{"glyphs":{"0":{"ha":888,"x_min":0,"x_max":0,"o":"m 441 -18 b 74 489 245 -18 74 157 b 448 998 74 830 241 998 b 814 490 644 998 814 823 b 441 -18 814 149 648 -18 m 448 45 b 629 469 565 45 629 176 b 440 934 629 768 561 934 b 260 510 323 934 260 803 b 448 45 260 212 328 45 "},"1":{"ha":568,"x_min":0,"x_max":0,"o":"m 372 147 b 519 46 372 79 397 60 l 519 0 l 62 0 l 62 46 b 208 147 183 60 208 79 l 208 851 l 54 808 l 54 850 b 287 980 138 891 218 936 l 373 980 "},"2":{"ha":694,"x_min":0,"x_max":0,"o":"m 43 0 l 43 108 l 208 290 b 442 695 383 473 442 572 b 261 886 442 812 370 886 b 47 758 153 886 83 833 l 47 808 b 342 998 79 917 181 998 b 615 743 500 998 615 898 b 295 280 615 598 529 482 l 137 138 l 637 138 l 630 0 "},"3":{"ha":749,"x_min":0,"x_max":0,"o":"m 125 288 b 208 205 172 288 208 252 b 132 125 208 160 174 125 b 295 56 165 83 224 56 b 510 264 414 56 510 136 b 217 498 510 404 404 497 l 217 544 b 488 740 406 571 488 641 b 313 886 488 831 420 886 b 77 763 204 886 123 840 l 77 809 b 382 998 109 917 224 998 b 649 777 541 998 649 913 b 444 561 649 661 563 584 b 684 286 586 539 684 432 b 335 -18 684 87 508 -18 b 41 198 163 -18 41 85 b 125 288 41 250 79 288 "},"4":{"ha":819,"x_min":0,"x_max":0,"o":"m 486 236 l 38 236 l 38 314 l 509 980 l 636 980 l 636 358 l 789 358 l 785 236 l 636 236 l 636 0 l 486 0 m 487 851 l 156 358 l 487 358 "},"5":{"ha":750,"x_min":0,"x_max":0,"o":"m 131 283 b 214 200 178 283 214 248 b 139 121 214 155 180 120 b 301 56 172 81 230 56 b 516 288 418 56 516 139 b 315 516 516 423 427 516 b 138 437 229 516 168 481 l 89 439 l 187 979 l 650 979 l 643 840 l 229 840 l 158 518 b 391 610 199 568 283 610 b 688 315 551 610 688 498 b 334 -18 688 112 518 -18 b 47 192 159 -18 47 85 b 131 283 47 244 84 283 "},"6":{"ha":831,"x_min":0,"x_max":0,"o":"m 72 397 b 721 987 73 731 335 992 l 722 941 b 242 416 431 921 257 714 b 500 597 279 526 369 597 b 767 307 662 597 767 479 b 426 -18 767 102 611 -18 b 72 397 210 -18 71 132 m 248 299 b 426 45 248 149 315 45 b 596 267 527 45 596 130 b 426 503 596 410 532 503 b 248 299 322 503 248 420 "},"7":{"ha":669,"x_min":0,"x_max":0,"o":"m 112 0 l 112 8 b 560 840 272 348 415 608 l 32 840 l 39 979 l 623 979 l 623 841 b 289 0 507 596 404 335 "},"8":{"ha":840,"x_min":0,"x_max":0,"o":"m 766 252 b 420 -18 766 85 616 -18 b 75 224 211 -18 75 71 b 316 485 74 357 167 446 b 105 747 188 549 105 627 b 425 998 105 907 239 998 b 736 775 621 998 736 905 b 513 557 736 661 648 592 l 525 551 b 766 252 686 472 766 388 m 475 576 b 586 757 547 615 586 676 b 422 933 586 856 525 933 b 256 793 317 933 256 876 b 412 607 256 711 307 660 m 225 244 b 423 46 224 129 302 46 b 615 206 541 46 615 110 b 427 429 615 300 566 359 l 353 466 b 225 244 268 423 224 344 "},"9":{"ha":831,"x_min":0,"x_max":0,"o":"m 758 583 b 110 -7 758 248 496 -13 l 109 38 b 589 563 399 58 574 265 b 331 382 552 453 462 382 b 63 672 168 382 63 500 b 405 998 63 878 219 998 b 758 583 621 998 759 847 m 405 477 b 583 680 509 477 583 559 b 405 934 583 831 516 934 b 235 713 304 934 235 850 b 405 477 235 569 298 477 "}," ":{"ha":332,"x_min":0,"x_max":0,"o":""},"A":{"ha":972,"x_min":0,"x_max":0,"o":"m 841 182 b 979 46 880 77 901 57 l 979 0 l 572 0 l 572 46 b 652 183 672 59 687 83 l 600 336 l 264 336 l 216 193 b 294 46 179 83 191 60 l 294 0 l -6 0 l -6 46 b 138 196 76 58 95 77 l 425 979 l 551 979 l 841 182 m 578 395 l 431 823 l 285 395 "},"Á":{"ha":972,"x_min":0,"x_max":0,"o":"m 407 1054 l 507 1246 l 681 1246 l 681 1241 l 465 1054 m 841 182 b 979 46 880 77 901 57 l 979 0 l 572 0 l 572 46 b 652 183 672 59 687 83 l 600 336 l 264 336 l 216 193 b 294 46 179 83 191 60 l 294 0 l -6 0 l -6 46 b 138 196 76 58 95 77 l 425 979 l 551 979 l 841 182 m 578 395 l 431 823 l 285 395 "},"À":{"ha":972,"x_min":0,"x_max":0,"o":"m 303 1241 l 303 1246 l 484 1246 l 579 1054 l 522 1054 m 841 182 b 979 46 880 77 901 57 l 979 0 l 572 0 l 572 46 b 652 183 672 59 687 83 l 600 336 l 264 336 l 216 193 b 294 46 179 83 191 60 l 294 0 l -6 0 l -6 46 b 138 196 76 58 95 77 l 425 979 l 551 979 l 841 182 m 578 395 l 431 823 l 285 395 "},"Ȁ":{"ha":972,"x_min":0,"x_max":0,"o":"m 450 1053 l 389 1053 l 200 1241 l 200 1246 l 353 1246 m 635 1053 l 577 1053 l 449 1241 l 449 1246 l 590 1246 m 841 182 b 979 46 880 77 901 57 l 979 0 l 572 0 l 572 46 b 652 183 672 59 687 83 l 600 336 l 264 336 l 216 193 b 294 46 179 83 191 60 l 294 0 l -6 0 l -6 46 b 138 196 76 58 95 77 l 425 979 l 551 979 l 841 182 m 578 395 l 431 823 l 285 395 "},"Â":{"ha":972,"x_min":0,"x_max":0,"o":"m 299 1054 l 441 1246 l 547 1246 l 690 1054 l 631 1054 l 494 1153 l 355 1054 m 841 182 b 979 46 880 77 901 57 l 979 0 l 572 0 l 572 46 b 652 183 672 59 687 83 l 600 336 l 264 336 l 216 193 b 294 46 179 83 191 60 l 294 0 l -6 0 l -6 46 b 138 196 76 58 95 77 l 425 979 l 551 979 l 841 182 m 578 395 l 431 823 l 285 395 "},"Ấ":{"ha":972,"x_min":0,"x_max":0,"o":"m 293 1185 l 293 1226 l 679 1326 l 679 1238 m 294 1055 l 469 1160 l 502 1160 l 679 1055 l 679 1013 l 486 1074 l 293 1013 m 841 182 b 979 46 880 77 901 57 l 979 0 l 572 0 l 572 46 b 652 183 672 59 687 83 l 600 336 l 264 336 l 216 193 b 294 46 179 83 191 60 l 294 0 l -6 0 l -6 46 b 138 196 76 58 95 77 l 425 979 l 551 979 l 841 182 m 578 395 l 431 823 l 285 395 "},"Ầ":{"ha":972,"x_min":0,"x_max":0,"o":"m 293 1326 l 678 1226 l 678 1185 l 293 1238 m 294 1055 l 469 1160 l 502 1160 l 679 1055 l 679 1013 l 486 1074 l 293 1013 m 841 182 b 979 46 880 77 901 57 l 979 0 l 572 0 l 572 46 b 652 183 672 59 687 83 l 600 336 l 264 336 l 216 193 b 294 46 179 83 191 60 l 294 0 l -6 0 l -6 46 b 138 196 76 58 95 77 l 425 979 l 551 979 l 841 182 m 578 395 l 431 823 l 285 395 "},"Ẫ":{"ha":972,"x_min":0,"x_max":0,"o":"m 568 1202 b 477 1218 535 1202 507 1208 l 456 1225 b 393 1238 429 1234 411 1238 b 345 1195 364 1238 345 1225 l 293 1195 b 404 1309 293 1272 341 1309 b 494 1293 437 1309 465 1303 l 515 1286 b 579 1273 543 1277 561 1273 b 627 1316 608 1273 627 1285 l 679 1316 b 568 1202 679 1240 632 1202 m 294 1055 l 469 1160 l 502 1160 l 679 1055 l 679 1013 l 486 1074 l 293 1013 m 841 182 b 979 46 880 77 901 57 l 979 0 l 572 0 l 572 46 b 652 183 672 59 687 83 l 600 336 l 264 336 l 216 193 b 294 46 179 83 191 60 l 294 0 l -6 0 l -6 46 b 138 196 76 58 95 77 l 425 979 l 551 979 l 841 182 m 578 395 l 431 823 l 285 395 "},"Ẩ":{"ha":972,"x_min":0,"x_max":0,"o":"m 646 1307 b 769 1230 710 1307 769 1280 b 644 1138 769 1181 722 1156 l 604 1164 b 674 1214 652 1175 674 1191 b 608 1252 674 1237 650 1252 b 531 1235 578 1252 547 1244 l 531 1269 b 646 1307 554 1288 595 1307 m 294 1055 l 469 1160 l 502 1160 l 679 1055 l 679 1013 l 486 1074 l 293 1013 m 841 182 b 979 46 880 77 901 57 l 979 0 l 572 0 l 572 46 b 652 183 672 59 687 83 l 600 336 l 264 336 l 216 193 b 294 46 179 83 191 60 l 294 0 l -6 0 l -6 46 b 138 196 76 58 95 77 l 425 979 l 551 979 l 841 182 m 578 395 l 431 823 l 285 395 "},"Ậ":{"ha":972,"x_min":0,"x_max":0,"o":"m 299 1054 l 441 1246 l 547 1246 l 690 1054 l 631 1054 l 494 1153 l 355 1054 m 841 182 b 979 46 880 77 901 57 l 979 0 l 572 0 l 572 46 b 652 183 672 59 687 83 l 600 336 l 264 336 l 216 193 b 294 46 179 83 191 60 l 294 0 l -6 0 l -6 46 b 138 196 76 58 95 77 l 425 979 l 551 979 l 841 182 m 578 395 l 431 823 l 285 395 m 451 -125 b 529 -200 494 -125 529 -157 b 451 -276 529 -243 494 -276 b 372 -200 408 -276 372 -243 b 451 -125 372 -157 408 -125 "},"Ǎ":{"ha":972,"x_min":0,"x_max":0,"o":"m 688 1251 l 545 1058 l 440 1058 l 298 1251 l 356 1251 l 493 1152 l 632 1251 m 841 182 b 979 46 880 77 901 57 l 979 0 l 572 0 l 572 46 b 652 183 672 59 687 83 l 600 336 l 264 336 l 216 193 b 294 46 179 83 191 60 l 294 0 l -6 0 l -6 46 b 138 196 76 58 95 77 l 425 979 l 551 979 l 841 182 m 578 395 l 431 823 l 285 395 "},"Ă":{"ha":972,"x_min":0,"x_max":0,"o":"m 486 1078 b 301 1251 368 1078 301 1162 b 303 1283 301 1262 302 1273 l 352 1283 l 352 1278 b 486 1173 352 1219 404 1173 b 620 1278 568 1173 620 1218 l 620 1283 l 668 1283 b 671 1251 670 1273 671 1262 b 486 1078 671 1162 605 1078 m 841 182 b 979 46 880 77 901 57 l 979 0 l 572 0 l 572 46 b 652 183 672 59 687 83 l 600 336 l 264 336 l 216 193 b 294 46 179 83 191 60 l 294 0 l -6 0 l -6 46 b 138 196 76 58 95 77 l 425 979 l 551 979 l 841 182 m 578 395 l 431 823 l 285 395 "},"Ắ":{"ha":972,"x_min":0,"x_max":0,"o":"m 293 1199 l 293 1240 l 679 1340 l 679 1253 m 486 1038 b 293 1180 369 1038 288 1093 l 345 1180 b 486 1117 347 1142 407 1117 b 627 1180 566 1117 625 1142 l 679 1180 b 486 1038 684 1093 602 1038 m 841 182 b 979 46 880 77 901 57 l 979 0 l 572 0 l 572 46 b 652 183 672 59 687 83 l 600 336 l 264 336 l 216 193 b 294 46 179 83 191 60 l 294 0 l -6 0 l -6 46 b 138 196 76 58 95 77 l 425 979 l 551 979 l 841 182 m 578 395 l 431 823 l 285 395 "},"Ằ":{"ha":972,"x_min":0,"x_max":0,"o":"m 293 1340 l 678 1240 l 678 1199 l 293 1253 m 486 1038 b 293 1180 369 1038 288 1093 l 345 1180 b 486 1117 347 1142 407 1117 b 627 1180 566 1117 625 1142 l 679 1180 b 486 1038 684 1093 602 1038 m 841 182 b 979 46 880 77 901 57 l 979 0 l 572 0 l 572 46 b 652 183 672 59 687 83 l 600 336 l 264 336 l 216 193 b 294 46 179 83 191 60 l 294 0 l -6 0 l -6 46 b 138 196 76 58 95 77 l 425 979 l 551 979 l 841 182 m 578 395 l 431 823 l 285 395 "},"Ẵ":{"ha":972,"x_min":0,"x_max":0,"o":"m 568 1217 b 477 1232 535 1217 507 1223 l 456 1239 b 393 1252 429 1248 411 1252 b 345 1209 364 1252 345 1240 l 293 1209 b 404 1323 293 1286 341 1323 b 494 1307 437 1323 465 1316 l 515 1300 b 579 1287 543 1291 561 1287 b 627 1330 608 1287 627 1299 l 679 1330 b 568 1217 679 1253 632 1217 m 486 1038 b 293 1180 369 1038 288 1093 l 345 1180 b 486 1117 347 1142 407 1117 b 627 1180 566 1117 625 1142 l 679 1180 b 486 1038 684 1093 602 1038 m 841 182 b 979 46 880 77 901 57 l 979 0 l 572 0 l 572 46 b 652 183 672 59 687 83 l 600 336 l 264 336 l 216 193 b 294 46 179 83 191 60 l 294 0 l -6 0 l -6 46 b 138 196 76 58 95 77 l 425 979 l 551 979 l 841 182 m 578 395 l 431 823 l 285 395 "},"Ẳ":{"ha":972,"x_min":0,"x_max":0,"o":"m 481 1337 b 609 1261 549 1337 609 1310 b 478 1169 609 1211 560 1186 l 436 1195 b 510 1244 487 1206 510 1221 b 441 1283 510 1268 485 1283 b 361 1265 410 1283 378 1274 l 361 1300 b 481 1337 385 1319 429 1337 m 486 1038 b 293 1180 369 1038 288 1093 l 345 1180 b 486 1117 347 1142 407 1117 b 627 1180 566 1117 625 1142 l 679 1180 b 486 1038 684 1093 602 1038 m 841 182 b 979 46 880 77 901 57 l 979 0 l 572 0 l 572 46 b 652 183 672 59 687 83 l 600 336 l 264 336 l 216 193 b 294 46 179 83 191 60 l 294 0 l -6 0 l -6 46 b 138 196 76 58 95 77 l 425 979 l 551 979 l 841 182 m 578 395 l 431 823 l 285 395 "},"Ặ":{"ha":972,"x_min":0,"x_max":0,"o":"m 486 1078 b 301 1251 368 1078 301 1162 b 303 1283 301 1262 302 1273 l 352 1283 l 352 1278 b 486 1173 352 1219 404 1173 b 620 1278 568 1173 620 1218 l 620 1283 l 668 1283 b 671 1251 670 1273 671 1262 b 486 1078 671 1162 605 1078 m 841 182 b 979 46 880 77 901 57 l 979 0 l 572 0 l 572 46 b 652 183 672 59 687 83 l 600 336 l 264 336 l 216 193 b 294 46 179 83 191 60 l 294 0 l -6 0 l -6 46 b 138 196 76 58 95 77 l 425 979 l 551 979 l 841 182 m 578 395 l 431 823 l 285 395 m 451 -125 b 529 -200 494 -125 529 -157 b 451 -276 529 -243 494 -276 b 372 -200 408 -276 372 -243 b 451 -125 372 -157 408 -125 "},"Ȃ":{"ha":972,"x_min":0,"x_max":0,"o":"m 486 1283 b 671 1110 604 1283 671 1198 b 668 1078 671 1099 670 1088 l 620 1078 l 620 1082 b 486 1188 620 1142 568 1188 b 352 1082 404 1188 352 1142 l 352 1078 l 303 1078 b 301 1110 302 1088 301 1099 b 486 1283 301 1198 367 1283 m 841 182 b 979 46 880 77 901 57 l 979 0 l 572 0 l 572 46 b 652 183 672 59 687 83 l 600 336 l 264 336 l 216 193 b 294 46 179 83 191 60 l 294 0 l -6 0 l -6 46 b 138 196 76 58 95 77 l 425 979 l 551 979 l 841 182 m 578 395 l 431 823 l 285 395 "},"Ä":{"ha":972,"x_min":0,"x_max":0,"o":"m 371 1076 b 295 1150 329 1076 295 1108 b 371 1225 295 1192 329 1225 b 447 1150 414 1225 447 1192 b 371 1076 447 1108 414 1076 m 602 1076 b 525 1150 559 1076 525 1108 b 602 1225 525 1192 559 1225 b 677 1150 644 1225 677 1192 b 602 1076 677 1108 644 1076 m 841 182 b 979 46 880 77 901 57 l 979 0 l 572 0 l 572 46 b 652 183 672 59 687 83 l 600 336 l 264 336 l 216 193 b 294 46 179 83 191 60 l 294 0 l -6 0 l -6 46 b 138 196 76 58 95 77 l 425 979 l 551 979 l 841 182 m 578 395 l 431 823 l 285 395 "},"Ǟ":{"ha":972,"x_min":0,"x_max":0,"o":"m 293 1303 l 679 1303 l 679 1236 l 293 1236 m 375 1054 b 313 1108 340 1054 313 1077 b 375 1162 313 1139 340 1162 l 382 1162 b 444 1108 416 1162 444 1139 b 382 1054 444 1077 416 1054 m 590 1054 b 528 1108 555 1054 528 1077 b 590 1162 528 1139 555 1162 l 596 1162 b 659 1108 631 1162 659 1139 b 596 1054 659 1077 631 1054 m 841 182 b 979 46 880 77 901 57 l 979 0 l 572 0 l 572 46 b 652 183 672 59 687 83 l 600 336 l 264 336 l 216 193 b 294 46 179 83 191 60 l 294 0 l -6 0 l -6 46 b 138 196 76 58 95 77 l 425 979 l 551 979 l 841 182 m 578 395 l 431 823 l 285 395 "},"Ã":{"ha":972,"x_min":0,"x_max":0,"o":"m 566 1063 b 465 1103 528 1063 499 1079 l 445 1118 b 389 1142 424 1133 408 1142 b 344 1059 361 1142 347 1121 l 292 1059 b 406 1238 290 1189 341 1238 b 507 1198 445 1238 473 1221 l 527 1183 b 583 1159 549 1168 564 1159 b 628 1241 610 1159 625 1179 l 681 1241 b 566 1063 683 1112 631 1063 m 841 182 b 979 46 880 77 901 57 l 979 0 l 572 0 l 572 46 b 652 183 672 59 687 83 l 600 336 l 264 336 l 216 193 b 294 46 179 83 191 60 l 294 0 l -6 0 l -6 46 b 138 196 76 58 95 77 l 425 979 l 551 979 l 841 182 m 578 395 l 431 823 l 285 395 "},"Ā":{"ha":972,"x_min":0,"x_max":0,"o":"m 303 1180 l 669 1180 l 669 1094 l 303 1094 m 841 182 b 979 46 880 77 901 57 l 979 0 l 572 0 l 572 46 b 652 183 672 59 687 83 l 600 336 l 264 336 l 216 193 b 294 46 179 83 191 60 l 294 0 l -6 0 l -6 46 b 138 196 76 58 95 77 l 425 979 l 551 979 l 841 182 m 578 395 l 431 823 l 285 395 "},"Ả":{"ha":972,"x_min":0,"x_max":0,"o":"m 503 1278 b 625 1189 576 1278 625 1241 b 483 1061 625 1141 587 1103 l 434 1061 b 521 1159 492 1099 521 1127 b 450 1208 521 1189 494 1208 b 367 1182 416 1208 385 1196 l 367 1218 b 503 1278 391 1249 438 1278 m 841 182 b 979 46 880 77 901 57 l 979 0 l 572 0 l 572 46 b 652 183 672 59 687 83 l 600 336 l 264 336 l 216 193 b 294 46 179 83 191 60 l 294 0 l -6 0 l -6 46 b 138 196 76 58 95 77 l 425 979 l 551 979 l 841 182 m 578 395 l 431 823 l 285 395 "},"Å":{"ha":972,"x_min":0,"x_max":0,"o":"m 317 1183 b 486 1309 317 1257 392 1309 b 655 1183 580 1309 655 1257 b 486 1057 655 1107 580 1057 b 317 1183 392 1057 317 1107 m 421 1183 b 486 1104 421 1136 448 1104 b 550 1183 523 1104 550 1136 b 486 1261 550 1230 523 1261 b 421 1183 448 1261 421 1230 m 841 182 b 979 46 880 77 901 57 l 979 0 l 572 0 l 572 46 b 652 183 672 59 687 83 l 600 336 l 264 336 l 216 193 b 294 46 179 83 191 60 l 294 0 l -6 0 l -6 46 b 138 196 76 58 95 77 l 425 979 l 551 979 l 841 182 m 578 395 l 431 823 l 285 395 "},"Ǻ":{"ha":972,"x_min":0,"x_max":0,"o":"m 293 1188 l 293 1230 l 679 1329 l 679 1241 m 463 1028 b 326 1098 380 1028 326 1056 b 463 1167 326 1140 380 1167 l 509 1167 b 646 1098 592 1167 646 1140 b 509 1028 646 1056 592 1028 m 503 1065 b 548 1098 532 1065 548 1078 b 503 1131 548 1118 532 1131 l 468 1131 b 423 1098 440 1131 423 1118 b 468 1065 423 1078 439 1065 l 503 1065 m 841 182 b 979 46 880 77 901 57 l 979 0 l 572 0 l 572 46 b 652 183 672 59 687 83 l 600 336 l 264 336 l 216 193 b 294 46 179 83 191 60 l 294 0 l -6 0 l -6 46 b 138 196 76 58 95 77 l 425 979 l 551 979 l 841 182 m 578 395 l 431 823 l 285 395 "},"Ḁ":{"ha":972,"x_min":0,"x_max":0,"o":"m 841 182 b 979 46 880 77 901 57 l 979 0 l 572 0 l 572 46 b 652 183 672 59 687 83 l 600 336 l 264 336 l 216 193 b 294 46 179 83 191 60 l 294 0 l -6 0 l -6 46 b 138 196 76 58 95 77 l 425 979 l 551 979 l 841 182 m 578 395 l 431 823 l 285 395 m 264 -201 b 451 -75 264 -125 347 -75 b 638 -200 555 -75 638 -125 b 451 -326 638 -276 555 -326 b 264 -201 347 -326 264 -276 m 379 -201 b 451 -277 379 -246 409 -277 b 523 -200 492 -277 523 -247 b 451 -123 523 -155 492 -123 b 379 -201 409 -123 379 -155 "},"Ȧ":{"ha":972,"x_min":0,"x_max":0,"o":"m 486 1075 b 408 1150 442 1075 408 1107 b 486 1225 408 1193 442 1225 b 564 1150 530 1225 564 1193 b 486 1075 564 1107 530 1075 m 841 182 b 979 46 880 77 901 57 l 979 0 l 572 0 l 572 46 b 652 183 672 59 687 83 l 600 336 l 264 336 l 216 193 b 294 46 179 83 191 60 l 294 0 l -6 0 l -6 46 b 138 196 76 58 95 77 l 425 979 l 551 979 l 841 182 m 578 395 l 431 823 l 285 395 "},"Ǡ":{"ha":972,"x_min":0,"x_max":0,"o":"m 293 1287 l 679 1287 l 679 1220 l 293 1220 m 486 1049 b 418 1109 448 1049 418 1075 b 486 1168 418 1142 448 1168 b 554 1109 524 1168 554 1142 b 486 1049 554 1075 524 1049 m 841 182 b 979 46 880 77 901 57 l 979 0 l 572 0 l 572 46 b 652 183 672 59 687 83 l 600 336 l 264 336 l 216 193 b 294 46 179 83 191 60 l 294 0 l -6 0 l -6 46 b 138 196 76 58 95 77 l 425 979 l 551 979 l 841 182 m 578 395 l 431 823 l 285 395 "},"Ạ":{"ha":972,"x_min":0,"x_max":0,"o":"m 841 182 b 979 46 880 77 901 57 l 979 0 l 572 0 l 572 46 b 652 183 672 59 687 83 l 600 336 l 264 336 l 216 193 b 294 46 179 83 191 60 l 294 0 l -6 0 l -6 46 b 138 196 76 58 95 77 l 425 979 l 551 979 l 841 182 m 578 395 l 431 823 l 285 395 m 451 -125 b 529 -200 494 -125 529 -157 b 451 -276 529 -243 494 -276 b 372 -200 408 -276 372 -243 b 451 -125 372 -157 408 -125 "},"Ą":{"ha":972,"x_min":0,"x_max":0,"o":"m 793 -330 b 652 -197 713 -330 652 -279 b 762 0 652 -125 698 -54 l 572 0 l 572 46 b 652 183 672 59 687 83 l 600 336 l 264 336 l 216 193 b 294 46 179 83 191 60 l 294 0 l -6 0 l -6 46 b 138 196 76 58 95 77 l 425 979 l 551 979 l 841 182 b 979 46 880 77 901 57 l 979 0 l 812 0 b 779 -118 792 -28 779 -72 b 868 -245 779 -191 818 -245 b 922 -225 891 -245 911 -236 l 922 -271 b 793 -330 901 -305 850 -330 m 578 395 l 431 823 l 285 395 "},"B":{"ha":945,"x_min":0,"x_max":0,"o":"m 886 284 b 460 0 886 95 692 0 l 42 0 l 42 46 b 150 132 138 58 150 71 l 150 848 b 42 933 150 908 138 922 l 42 979 l 460 979 b 837 744 699 979 837 893 b 580 532 837 617 722 546 b 886 284 762 519 886 435 m 653 726 b 414 923 653 842 585 918 l 329 926 l 329 541 l 442 541 b 653 726 579 542 653 610 m 695 272 b 442 486 695 407 605 486 l 329 487 l 329 54 l 414 56 b 695 272 588 62 695 131 "},"Ḇ":{"ha":945,"x_min":0,"x_max":0,"o":"m 886 284 b 460 0 886 95 692 0 l 42 0 l 42 46 b 150 132 138 58 150 71 l 150 848 b 42 933 150 908 138 922 l 42 979 l 460 979 b 837 744 699 979 837 893 b 580 532 837 617 722 546 b 886 284 762 519 886 435 m 653 726 b 414 923 653 842 585 918 l 329 926 l 329 541 l 442 541 b 653 726 579 542 653 610 m 695 272 b 442 486 695 407 605 486 l 329 487 l 329 54 l 414 56 b 695 272 588 62 695 131 m 287 -156 l 664 -156 l 664 -243 l 287 -243 "},"Ḃ":{"ha":945,"x_min":0,"x_max":0,"o":"m 475 1075 b 397 1150 431 1075 397 1107 b 475 1225 397 1193 431 1225 b 553 1150 518 1225 553 1193 b 475 1075 553 1107 518 1075 m 886 284 b 460 0 886 95 692 0 l 42 0 l 42 46 b 150 132 138 58 150 71 l 150 848 b 42 933 150 908 138 922 l 42 979 l 460 979 b 837 744 699 979 837 893 b 580 532 837 617 722 546 b 886 284 762 519 886 435 m 653 726 b 414 923 653 842 585 918 l 329 926 l 329 541 l 442 541 b 653 726 579 542 653 610 m 695 272 b 442 486 695 407 605 486 l 329 487 l 329 54 l 414 56 b 695 272 588 62 695 131 "},"Ḅ":{"ha":945,"x_min":0,"x_max":0,"o":"m 886 284 b 460 0 886 95 692 0 l 42 0 l 42 46 b 150 132 138 58 150 71 l 150 848 b 42 933 150 908 138 922 l 42 979 l 460 979 b 837 744 699 979 837 893 b 580 532 837 617 722 546 b 886 284 762 519 886 435 m 653 726 b 414 923 653 842 585 918 l 329 926 l 329 541 l 442 541 b 653 726 579 542 653 610 m 695 272 b 442 486 695 407 605 486 l 329 487 l 329 54 l 414 56 b 695 272 588 62 695 131 m 475 -125 b 553 -200 519 -125 553 -157 b 475 -276 553 -243 519 -276 b 397 -200 432 -276 397 -243 b 475 -125 397 -157 432 -125 "},"C":{"ha":975,"x_min":0,"x_max":0,"o":"m 66 492 b 582 998 66 811 292 998 b 903 925 733 998 846 966 l 911 697 l 867 697 b 596 932 830 857 740 932 b 266 507 387 932 266 761 b 597 47 266 248 395 47 b 871 290 736 47 832 115 l 915 290 l 907 62 b 583 -18 850 20 720 -18 b 66 492 298 -18 66 175 "},"Ć":{"ha":975,"x_min":0,"x_max":0,"o":"m 494 1054 l 594 1246 l 768 1246 l 768 1241 l 552 1054 m 66 492 b 582 998 66 811 292 998 b 903 925 733 998 846 966 l 911 697 l 867 697 b 596 932 830 857 740 932 b 266 507 387 932 266 761 b 597 47 266 248 395 47 b 871 290 736 47 832 115 l 915 290 l 907 62 b 583 -18 850 20 720 -18 b 66 492 298 -18 66 175 "},"Ĉ":{"ha":975,"x_min":0,"x_max":0,"o":"m 387 1054 l 529 1246 l 635 1246 l 777 1054 l 719 1054 l 581 1153 l 442 1054 m 66 492 b 582 998 66 811 292 998 b 903 925 733 998 846 966 l 911 697 l 867 697 b 596 932 830 857 740 932 b 266 507 387 932 266 761 b 597 47 266 248 395 47 b 871 290 736 47 832 115 l 915 290 l 907 62 b 583 -18 850 20 720 -18 b 66 492 298 -18 66 175 "},"Č":{"ha":975,"x_min":0,"x_max":0,"o":"m 776 1251 l 633 1058 l 528 1058 l 385 1251 l 444 1251 l 581 1152 l 720 1251 m 66 492 b 582 998 66 811 292 998 b 903 925 733 998 846 966 l 911 697 l 867 697 b 596 932 830 857 740 932 b 266 507 387 932 266 761 b 597 47 266 248 395 47 b 871 290 736 47 832 115 l 915 290 l 907 62 b 583 -18 850 20 720 -18 b 66 492 298 -18 66 175 "},"Ċ":{"ha":975,"x_min":0,"x_max":0,"o":"m 573 1075 b 495 1150 530 1075 495 1107 b 573 1225 495 1193 530 1225 b 652 1150 617 1225 652 1193 b 573 1075 652 1107 617 1075 m 66 492 b 582 998 66 811 292 998 b 903 925 733 998 846 966 l 911 697 l 867 697 b 596 932 830 857 740 932 b 266 507 387 932 266 761 b 597 47 266 248 395 47 b 871 290 736 47 832 115 l 915 290 l 907 62 b 583 -18 850 20 720 -18 b 66 492 298 -18 66 175 "},"Ç":{"ha":975,"x_min":0,"x_max":0,"o":"m 66 492 b 582 998 66 811 292 998 b 903 925 733 998 846 966 l 911 697 l 867 697 b 596 932 830 857 740 932 b 266 507 387 932 266 761 b 597 47 266 248 395 47 b 871 290 736 47 832 115 l 915 290 l 907 62 b 618 -18 854 24 742 -12 l 574 -78 b 585 -77 577 -78 581 -77 b 734 -199 669 -78 734 -121 b 573 -322 734 -279 656 -322 b 435 -273 513 -322 463 -302 l 435 -227 b 527 -254 456 -243 491 -254 b 602 -200 569 -254 602 -235 b 519 -144 602 -163 566 -144 b 490 -148 507 -144 495 -145 l 489 -108 l 559 -18 b 66 492 286 -7 66 184 "},"Ḉ":{"ha":975,"x_min":0,"x_max":0,"o":"m 494 1054 l 594 1246 l 768 1246 l 768 1241 l 552 1054 m 66 492 b 582 998 66 811 292 998 b 903 925 733 998 846 966 l 911 697 l 867 697 b 596 932 830 857 740 932 b 266 507 387 932 266 761 b 597 47 266 248 395 47 b 871 290 736 47 832 115 l 915 290 l 907 62 b 618 -18 854 24 742 -12 l 574 -78 b 585 -77 577 -78 581 -77 b 734 -199 669 -78 734 -121 b 573 -322 734 -279 656 -322 b 435 -273 513 -322 463 -302 l 435 -227 b 527 -254 456 -243 491 -254 b 602 -200 569 -254 602 -235 b 519 -144 602 -163 566 -144 b 490 -148 507 -144 495 -145 l 489 -108 l 559 -18 b 66 492 286 -7 66 184 "},"D":{"ha":1066,"x_min":0,"x_max":0,"o":"m 1007 505 b 444 0 1007 189 747 0 l 42 0 l 42 46 b 150 132 138 58 150 71 l 150 848 b 42 933 150 908 138 922 l 42 979 l 439 979 b 1007 505 770 979 1007 808 m 809 492 b 410 923 809 749 658 915 l 329 926 l 329 54 l 410 56 b 809 492 656 64 809 227 "},"Ḓ":{"ha":1066,"x_min":0,"x_max":0,"o":"m 1007 505 b 444 0 1007 189 747 0 l 42 0 l 42 46 b 150 132 138 58 150 71 l 150 848 b 42 933 150 908 138 922 l 42 979 l 439 979 b 1007 505 770 979 1007 808 m 809 492 b 410 923 809 749 658 915 l 329 926 l 329 54 l 410 56 b 809 492 656 64 809 227 m 301 -313 l 448 -87 l 543 -87 l 690 -313 l 634 -313 l 496 -193 l 355 -313 "},"Ď":{"ha":1066,"x_min":0,"x_max":0,"o":"m 710 1251 l 568 1058 l 462 1058 l 319 1251 l 378 1251 l 515 1152 l 654 1251 m 1007 505 b 444 0 1007 189 747 0 l 42 0 l 42 46 b 150 132 138 58 150 71 l 150 848 b 42 933 150 908 138 922 l 42 979 l 439 979 b 1007 505 770 979 1007 808 m 809 492 b 410 923 809 749 658 915 l 329 926 l 329 54 l 410 56 b 809 492 656 64 809 227 "},"Ḏ":{"ha":1066,"x_min":0,"x_max":0,"o":"m 1007 505 b 444 0 1007 189 747 0 l 42 0 l 42 46 b 150 132 138 58 150 71 l 150 848 b 42 933 150 908 138 922 l 42 979 l 439 979 b 1007 505 770 979 1007 808 m 809 492 b 410 923 809 749 658 915 l 329 926 l 329 54 l 410 56 b 809 492 656 64 809 227 m 307 -156 l 684 -156 l 684 -243 l 307 -243 "},"Ḋ":{"ha":1066,"x_min":0,"x_max":0,"o":"m 508 1075 b 429 1150 465 1075 429 1107 b 508 1225 429 1193 465 1225 b 586 1150 551 1225 586 1193 b 508 1075 586 1107 551 1075 m 1007 505 b 444 0 1007 189 747 0 l 42 0 l 42 46 b 150 132 138 58 150 71 l 150 848 b 42 933 150 908 138 922 l 42 979 l 439 979 b 1007 505 770 979 1007 808 m 809 492 b 410 923 809 749 658 915 l 329 926 l 329 54 l 410 56 b 809 492 656 64 809 227 "},"Ḍ":{"ha":1066,"x_min":0,"x_max":0,"o":"m 1007 505 b 444 0 1007 189 747 0 l 42 0 l 42 46 b 150 132 138 58 150 71 l 150 848 b 42 933 150 908 138 922 l 42 979 l 439 979 b 1007 505 770 979 1007 808 m 809 492 b 410 923 809 749 658 915 l 329 926 l 329 54 l 410 56 b 809 492 656 64 809 227 m 495 -125 b 574 -200 539 -125 574 -157 b 495 -276 574 -243 538 -276 b 417 -200 452 -276 417 -243 b 495 -125 417 -157 452 -125 "},"Ḑ":{"ha":1066,"x_min":0,"x_max":0,"o":"m 1007 505 b 444 0 1007 189 747 0 l 42 0 l 42 46 b 150 132 138 58 150 71 l 150 848 b 42 933 150 908 138 922 l 42 979 l 439 979 b 1007 505 770 979 1007 808 m 809 492 b 410 923 809 749 658 915 l 329 926 l 329 54 l 410 56 b 809 492 656 64 809 227 m 486 -323 b 354 -279 428 -323 378 -303 l 354 -235 b 449 -260 376 -250 410 -260 b 527 -206 494 -260 527 -241 b 452 -153 527 -173 494 -154 b 393 -164 429 -153 406 -159 l 393 -123 b 508 -78 412 -99 454 -78 b 651 -199 592 -78 651 -125 b 486 -323 651 -274 585 -323 "},"Ð":{"ha":1066,"x_min":0,"x_max":0,"o":"m 42 530 l 150 530 l 150 848 b 42 933 150 908 138 922 l 42 979 l 439 979 b 1007 505 770 979 1007 808 b 444 0 1007 189 747 0 l 42 0 l 42 46 b 150 132 138 58 150 71 l 150 473 l 42 473 m 809 492 b 410 923 809 749 658 915 l 329 926 l 329 530 l 539 530 l 539 473 l 329 473 l 329 54 l 410 56 b 809 492 656 64 809 227 "},"E":{"ha":873,"x_min":0,"x_max":0,"o":"m 791 730 l 748 730 b 492 920 713 880 661 913 l 329 926 l 329 528 l 507 530 b 608 667 568 531 585 555 l 648 667 l 648 336 l 608 336 b 507 473 587 446 570 472 l 329 475 l 329 54 l 503 60 b 781 278 696 67 745 94 l 825 278 l 814 0 l 42 0 l 42 46 b 150 132 138 58 150 71 l 150 848 b 42 933 150 908 138 922 l 42 979 l 783 979 "},"É":{"ha":873,"x_min":0,"x_max":0,"o":"m 377 1054 l 477 1246 l 652 1246 l 652 1241 l 435 1054 m 791 730 l 748 730 b 492 920 713 880 661 913 l 329 926 l 329 528 l 507 530 b 608 667 568 531 585 555 l 648 667 l 648 336 l 608 336 b 507 473 587 446 570 472 l 329 475 l 329 54 l 503 60 b 781 278 696 67 745 94 l 825 278 l 814 0 l 42 0 l 42 46 b 150 132 138 58 150 71 l 150 848 b 42 933 150 908 138 922 l 42 979 l 783 979 "},"È":{"ha":873,"x_min":0,"x_max":0,"o":"m 273 1241 l 273 1246 l 454 1246 l 549 1054 l 492 1054 m 791 730 l 748 730 b 492 920 713 880 661 913 l 329 926 l 329 528 l 507 530 b 608 667 568 531 585 555 l 648 667 l 648 336 l 608 336 b 507 473 587 446 570 472 l 329 475 l 329 54 l 503 60 b 781 278 696 67 745 94 l 825 278 l 814 0 l 42 0 l 42 46 b 150 132 138 58 150 71 l 150 848 b 42 933 150 908 138 922 l 42 979 l 783 979 "},"Ȅ":{"ha":873,"x_min":0,"x_max":0,"o":"m 421 1053 l 359 1053 l 170 1241 l 170 1246 l 323 1246 m 606 1053 l 547 1053 l 419 1241 l 419 1246 l 560 1246 m 791 730 l 748 730 b 492 920 713 880 661 913 l 329 926 l 329 528 l 507 530 b 608 667 568 531 585 555 l 648 667 l 648 336 l 608 336 b 507 473 587 446 570 472 l 329 475 l 329 54 l 503 60 b 781 278 696 67 745 94 l 825 278 l 814 0 l 42 0 l 42 46 b 150 132 138 58 150 71 l 150 848 b 42 933 150 908 138 922 l 42 979 l 783 979 "},"Ê":{"ha":873,"x_min":0,"x_max":0,"o":"m 269 1054 l 412 1246 l 517 1246 l 660 1054 l 602 1054 l 465 1153 l 326 1054 m 791 730 l 748 730 b 492 920 713 880 661 913 l 329 926 l 329 528 l 507 530 b 608 667 568 531 585 555 l 648 667 l 648 336 l 608 336 b 507 473 587 446 570 472 l 329 475 l 329 54 l 503 60 b 781 278 696 67 745 94 l 825 278 l 814 0 l 42 0 l 42 46 b 150 132 138 58 150 71 l 150 848 b 42 933 150 908 138 922 l 42 979 l 783 979 "},"Ế":{"ha":873,"x_min":0,"x_max":0,"o":"m 264 1185 l 264 1226 l 649 1326 l 649 1238 m 264 1055 l 439 1160 l 473 1160 l 649 1055 l 649 1013 l 456 1074 l 264 1013 m 791 730 l 748 730 b 492 920 713 880 661 913 l 329 926 l 329 528 l 507 530 b 608 667 568 531 585 555 l 648 667 l 648 336 l 608 336 b 507 473 587 446 570 472 l 329 475 l 329 54 l 503 60 b 781 278 696 67 745 94 l 825 278 l 814 0 l 42 0 l 42 46 b 150 132 138 58 150 71 l 150 848 b 42 933 150 908 138 922 l 42 979 l 783 979 "},"Ề":{"ha":873,"x_min":0,"x_max":0,"o":"m 263 1326 l 649 1226 l 649 1185 l 263 1238 m 264 1055 l 439 1160 l 473 1160 l 649 1055 l 649 1013 l 456 1074 l 264 1013 m 791 730 l 748 730 b 492 920 713 880 661 913 l 329 926 l 329 528 l 507 530 b 608 667 568 531 585 555 l 648 667 l 648 336 l 608 336 b 507 473 587 446 570 472 l 329 475 l 329 54 l 503 60 b 781 278 696 67 745 94 l 825 278 l 814 0 l 42 0 l 42 46 b 150 132 138 58 150 71 l 150 848 b 42 933 150 908 138 922 l 42 979 l 783 979 "},"Ễ":{"ha":873,"x_min":0,"x_max":0,"o":"m 538 1202 b 448 1218 505 1202 477 1208 l 427 1225 b 363 1238 399 1234 381 1238 b 315 1195 334 1238 316 1225 l 264 1195 b 374 1309 263 1272 311 1309 b 465 1293 407 1309 435 1303 l 486 1286 b 549 1273 513 1277 531 1273 b 597 1316 578 1273 597 1285 l 649 1316 b 538 1202 649 1240 602 1202 m 264 1055 l 439 1160 l 473 1160 l 649 1055 l 649 1013 l 456 1074 l 264 1013 m 791 730 l 748 730 b 492 920 713 880 661 913 l 329 926 l 329 528 l 507 530 b 608 667 568 531 585 555 l 648 667 l 648 336 l 608 336 b 507 473 587 446 570 472 l 329 475 l 329 54 l 503 60 b 781 278 696 67 745 94 l 825 278 l 814 0 l 42 0 l 42 46 b 150 132 138 58 150 71 l 150 848 b 42 933 150 908 138 922 l 42 979 l 783 979 "},"Ể":{"ha":873,"x_min":0,"x_max":0,"o":"m 616 1307 b 739 1230 681 1307 739 1280 b 614 1138 739 1181 692 1156 l 574 1164 b 644 1214 622 1175 644 1191 b 578 1252 644 1237 621 1252 b 501 1235 548 1252 517 1244 l 501 1269 b 616 1307 524 1288 566 1307 m 264 1055 l 439 1160 l 473 1160 l 649 1055 l 649 1013 l 456 1074 l 264 1013 m 791 730 l 748 730 b 492 920 713 880 661 913 l 329 926 l 329 528 l 507 530 b 608 667 568 531 585 555 l 648 667 l 648 336 l 608 336 b 507 473 587 446 570 472 l 329 475 l 329 54 l 503 60 b 781 278 696 67 745 94 l 825 278 l 814 0 l 42 0 l 42 46 b 150 132 138 58 150 71 l 150 848 b 42 933 150 908 138 922 l 42 979 l 783 979 "},"Ệ":{"ha":873,"x_min":0,"x_max":0,"o":"m 269 1054 l 412 1246 l 517 1246 l 660 1054 l 602 1054 l 465 1153 l 326 1054 m 791 730 l 748 730 b 492 920 713 880 661 913 l 329 926 l 329 528 l 507 530 b 608 667 568 531 585 555 l 648 667 l 648 336 l 608 336 b 507 473 587 446 570 472 l 329 475 l 329 54 l 503 60 b 781 278 696 67 745 94 l 825 278 l 814 0 l 42 0 l 42 46 b 150 132 138 58 150 71 l 150 848 b 42 933 150 908 138 922 l 42 979 l 783 979 m 452 -125 b 530 -200 496 -125 530 -157 b 452 -276 530 -243 496 -276 b 374 -200 408 -276 374 -243 b 452 -125 374 -157 408 -125 "},"Ḙ":{"ha":873,"x_min":0,"x_max":0,"o":"m 791 730 l 748 730 b 492 920 713 880 661 913 l 329 926 l 329 528 l 507 530 b 608 667 568 531 585 555 l 648 667 l 648 336 l 608 336 b 507 473 587 446 570 472 l 329 475 l 329 54 l 503 60 b 781 278 696 67 745 94 l 825 278 l 814 0 l 42 0 l 42 46 b 150 132 138 58 150 71 l 150 848 b 42 933 150 908 138 922 l 42 979 l 783 979 m 258 -313 l 405 -87 l 499 -87 l 646 -313 l 591 -313 l 452 -193 l 312 -313 "},"Ě":{"ha":873,"x_min":0,"x_max":0,"o":"m 659 1251 l 516 1058 l 410 1058 l 268 1251 l 326 1251 l 464 1152 l 602 1251 m 791 730 l 748 730 b 492 920 713 880 661 913 l 329 926 l 329 528 l 507 530 b 608 667 568 531 585 555 l 648 667 l 648 336 l 608 336 b 507 473 587 446 570 472 l 329 475 l 329 54 l 503 60 b 781 278 696 67 745 94 l 825 278 l 814 0 l 42 0 l 42 46 b 150 132 138 58 150 71 l 150 848 b 42 933 150 908 138 922 l 42 979 l 783 979 "},"Ĕ":{"ha":873,"x_min":0,"x_max":0,"o":"m 456 1078 b 271 1251 338 1078 271 1162 b 274 1283 271 1262 272 1273 l 322 1283 l 322 1278 b 456 1173 322 1219 374 1173 b 590 1278 538 1173 590 1218 l 590 1283 l 638 1283 b 641 1251 640 1273 641 1262 b 456 1078 641 1162 575 1078 m 791 730 l 748 730 b 492 920 713 880 661 913 l 329 926 l 329 528 l 507 530 b 608 667 568 531 585 555 l 648 667 l 648 336 l 608 336 b 507 473 587 446 570 472 l 329 475 l 329 54 l 503 60 b 781 278 696 67 745 94 l 825 278 l 814 0 l 42 0 l 42 46 b 150 132 138 58 150 71 l 150 848 b 42 933 150 908 138 922 l 42 979 l 783 979 "},"Ȇ":{"ha":873,"x_min":0,"x_max":0,"o":"m 456 1283 b 641 1110 574 1283 641 1198 b 638 1078 641 1099 640 1088 l 590 1078 l 590 1082 b 456 1188 590 1142 538 1188 b 322 1082 374 1188 322 1142 l 322 1078 l 274 1078 b 271 1110 272 1088 271 1099 b 456 1283 271 1198 337 1283 m 791 730 l 748 730 b 492 920 713 880 661 913 l 329 926 l 329 528 l 507 530 b 608 667 568 531 585 555 l 648 667 l 648 336 l 608 336 b 507 473 587 446 570 472 l 329 475 l 329 54 l 503 60 b 781 278 696 67 745 94 l 825 278 l 814 0 l 42 0 l 42 46 b 150 132 138 58 150 71 l 150 848 b 42 933 150 908 138 922 l 42 979 l 783 979 "},"Ë":{"ha":873,"x_min":0,"x_max":0,"o":"m 341 1076 b 265 1150 299 1076 265 1108 b 341 1225 265 1192 299 1225 b 418 1150 384 1225 418 1192 b 341 1076 418 1108 384 1076 m 572 1076 b 496 1150 529 1076 496 1108 b 572 1225 496 1192 529 1225 b 648 1150 614 1225 648 1192 b 572 1076 648 1108 614 1076 m 791 730 l 748 730 b 492 920 713 880 661 913 l 329 926 l 329 528 l 507 530 b 608 667 568 531 585 555 l 648 667 l 648 336 l 608 336 b 507 473 587 446 570 472 l 329 475 l 329 54 l 503 60 b 781 278 696 67 745 94 l 825 278 l 814 0 l 42 0 l 42 46 b 150 132 138 58 150 71 l 150 848 b 42 933 150 908 138 922 l 42 979 l 783 979 "},"Ẽ":{"ha":873,"x_min":0,"x_max":0,"o":"m 536 1063 b 435 1103 498 1063 469 1079 l 416 1118 b 359 1142 394 1133 378 1142 b 314 1059 332 1142 317 1121 l 262 1059 b 376 1238 260 1189 311 1238 b 477 1198 415 1238 444 1221 l 497 1183 b 553 1159 519 1168 535 1159 b 599 1241 581 1159 596 1179 l 651 1241 b 536 1063 653 1112 601 1063 m 791 730 l 748 730 b 492 920 713 880 661 913 l 329 926 l 329 528 l 507 530 b 608 667 568 531 585 555 l 648 667 l 648 336 l 608 336 b 507 473 587 446 570 472 l 329 475 l 329 54 l 503 60 b 781 278 696 67 745 94 l 825 278 l 814 0 l 42 0 l 42 46 b 150 132 138 58 150 71 l 150 848 b 42 933 150 908 138 922 l 42 979 l 783 979 "},"Ḛ":{"ha":873,"x_min":0,"x_max":0,"o":"m 791 730 l 748 730 b 492 920 713 880 661 913 l 329 926 l 329 528 l 507 530 b 608 667 568 531 585 555 l 648 667 l 648 336 l 608 336 b 507 473 587 446 570 472 l 329 475 l 329 54 l 503 60 b 781 278 696 67 745 94 l 825 278 l 814 0 l 42 0 l 42 46 b 150 132 138 58 150 71 l 150 848 b 42 933 150 908 138 922 l 42 979 l 783 979 m 530 -285 b 431 -245 492 -285 464 -269 l 412 -231 b 357 -208 391 -216 375 -208 b 313 -288 330 -208 315 -228 l 264 -288 b 374 -116 262 -163 312 -116 b 473 -155 412 -116 440 -132 l 492 -170 b 547 -193 513 -185 529 -193 b 591 -113 574 -193 589 -173 l 640 -113 b 530 -285 642 -237 592 -285 "},"Ē":{"ha":873,"x_min":0,"x_max":0,"o":"m 273 1180 l 640 1180 l 640 1094 l 273 1094 m 791 730 l 748 730 b 492 920 713 880 661 913 l 329 926 l 329 528 l 507 530 b 608 667 568 531 585 555 l 648 667 l 648 336 l 608 336 b 507 473 587 446 570 472 l 329 475 l 329 54 l 503 60 b 781 278 696 67 745 94 l 825 278 l 814 0 l 42 0 l 42 46 b 150 132 138 58 150 71 l 150 848 b 42 933 150 908 138 922 l 42 979 l 783 979 "},"Ḗ":{"ha":873,"x_min":0,"x_max":0,"o":"m 264 1199 l 264 1240 l 649 1340 l 649 1253 m 263 1143 l 649 1143 l 649 1075 l 263 1075 m 791 730 l 748 730 b 492 920 713 880 661 913 l 329 926 l 329 528 l 507 530 b 608 667 568 531 585 555 l 648 667 l 648 336 l 608 336 b 507 473 587 446 570 472 l 329 475 l 329 54 l 503 60 b 781 278 696 67 745 94 l 825 278 l 814 0 l 42 0 l 42 46 b 150 132 138 58 150 71 l 150 848 b 42 933 150 908 138 922 l 42 979 l 783 979 "},"Ḕ":{"ha":873,"x_min":0,"x_max":0,"o":"m 263 1340 l 649 1240 l 649 1199 l 263 1253 m 263 1143 l 649 1143 l 649 1075 l 263 1075 m 791 730 l 748 730 b 492 920 713 880 661 913 l 329 926 l 329 528 l 507 530 b 608 667 568 531 585 555 l 648 667 l 648 336 l 608 336 b 507 473 587 446 570 472 l 329 475 l 329 54 l 503 60 b 781 278 696 67 745 94 l 825 278 l 814 0 l 42 0 l 42 46 b 150 132 138 58 150 71 l 150 848 b 42 933 150 908 138 922 l 42 979 l 783 979 "},"Ẻ":{"ha":873,"x_min":0,"x_max":0,"o":"m 473 1278 b 595 1189 547 1278 595 1241 b 454 1061 595 1141 557 1103 l 404 1061 b 491 1159 462 1099 491 1127 b 421 1208 491 1189 465 1208 b 337 1182 386 1208 355 1196 l 337 1218 b 473 1278 361 1249 409 1278 m 791 730 l 748 730 b 492 920 713 880 661 913 l 329 926 l 329 528 l 507 530 b 608 667 568 531 585 555 l 648 667 l 648 336 l 608 336 b 507 473 587 446 570 472 l 329 475 l 329 54 l 503 60 b 781 278 696 67 745 94 l 825 278 l 814 0 l 42 0 l 42 46 b 150 132 138 58 150 71 l 150 848 b 42 933 150 908 138 922 l 42 979 l 783 979 "},"Ė":{"ha":873,"x_min":0,"x_max":0,"o":"m 456 1075 b 378 1150 412 1075 378 1107 b 456 1225 378 1193 413 1225 b 534 1150 500 1225 534 1193 b 456 1075 534 1107 500 1075 m 791 730 l 748 730 b 492 920 713 880 661 913 l 329 926 l 329 528 l 507 530 b 608 667 568 531 585 555 l 648 667 l 648 336 l 608 336 b 507 473 587 446 570 472 l 329 475 l 329 54 l 503 60 b 781 278 696 67 745 94 l 825 278 l 814 0 l 42 0 l 42 46 b 150 132 138 58 150 71 l 150 848 b 42 933 150 908 138 922 l 42 979 l 783 979 "},"Ẹ":{"ha":873,"x_min":0,"x_max":0,"o":"m 791 730 l 748 730 b 492 920 713 880 661 913 l 329 926 l 329 528 l 507 530 b 608 667 568 531 585 555 l 648 667 l 648 336 l 608 336 b 507 473 587 446 570 472 l 329 475 l 329 54 l 503 60 b 781 278 696 67 745 94 l 825 278 l 814 0 l 42 0 l 42 46 b 150 132 138 58 150 71 l 150 848 b 42 933 150 908 138 922 l 42 979 l 783 979 m 452 -125 b 530 -200 496 -125 530 -157 b 452 -276 530 -243 496 -276 b 374 -200 408 -276 374 -243 b 452 -125 374 -157 408 -125 "},"Ȩ":{"ha":873,"x_min":0,"x_max":0,"o":"m 433 -322 b 295 -273 373 -322 323 -302 l 295 -227 b 387 -254 316 -243 351 -254 b 461 -200 429 -254 461 -235 b 379 -144 461 -163 427 -144 b 349 -148 367 -144 355 -145 l 349 -108 l 433 0 l 42 0 l 42 46 b 150 132 138 58 150 71 l 150 848 b 42 933 150 908 138 922 l 42 979 l 783 979 l 791 730 l 748 730 b 492 920 713 880 661 913 l 329 926 l 329 528 l 507 530 b 608 667 568 531 585 555 l 648 667 l 648 336 l 608 336 b 507 473 587 446 570 472 l 329 475 l 329 54 l 503 60 b 781 278 696 67 745 94 l 825 278 l 814 0 l 490 0 l 490 -2 l 433 -78 b 446 -77 437 -78 441 -77 b 594 -199 528 -78 594 -121 b 433 -322 594 -279 515 -322 "},"Ḝ":{"ha":873,"x_min":0,"x_max":0,"o":"m 456 1078 b 271 1251 338 1078 271 1162 b 274 1283 271 1262 272 1273 l 322 1283 l 322 1278 b 456 1173 322 1219 374 1173 b 590 1278 538 1173 590 1218 l 590 1283 l 638 1283 b 641 1251 640 1273 641 1262 b 456 1078 641 1162 575 1078 m 433 -322 b 295 -273 373 -322 323 -302 l 295 -227 b 387 -254 316 -243 351 -254 b 461 -200 429 -254 461 -235 b 379 -144 461 -163 427 -144 b 349 -148 367 -144 355 -145 l 349 -108 l 433 0 l 42 0 l 42 46 b 150 132 138 58 150 71 l 150 848 b 42 933 150 908 138 922 l 42 979 l 783 979 l 791 730 l 748 730 b 492 920 713 880 661 913 l 329 926 l 329 528 l 507 530 b 608 667 568 531 585 555 l 648 667 l 648 336 l 608 336 b 507 473 587 446 570 472 l 329 475 l 329 54 l 503 60 b 781 278 696 67 745 94 l 825 278 l 814 0 l 490 0 l 490 -2 l 433 -78 b 446 -77 437 -78 441 -77 b 594 -199 528 -78 594 -121 b 433 -322 594 -279 515 -322 "},"Ę":{"ha":873,"x_min":0,"x_max":0,"o":"m 694 -330 b 554 -197 615 -330 554 -279 b 665 0 554 -125 600 -54 l 42 0 l 42 46 b 150 132 138 58 150 71 l 150 848 b 42 933 150 908 138 922 l 42 979 l 783 979 l 791 730 l 748 730 b 492 920 713 880 661 913 l 329 926 l 329 528 l 507 530 b 608 667 568 531 585 555 l 648 667 l 648 336 l 608 336 b 507 473 587 446 570 472 l 329 475 l 329 54 l 503 60 b 781 278 696 67 745 94 l 825 278 l 814 0 l 715 0 b 681 -118 694 -28 681 -72 b 770 -245 681 -191 720 -245 b 825 -225 793 -245 813 -236 l 825 -271 b 694 -330 802 -305 753 -330 "},"F":{"ha":804,"x_min":0,"x_max":0,"o":"m 771 730 l 728 730 b 475 920 692 881 641 914 l 329 926 l 329 522 l 487 523 b 586 659 548 524 564 547 l 627 659 l 627 329 l 586 329 b 487 466 567 440 549 465 l 329 467 l 329 141 b 446 46 329 75 343 58 l 446 0 l 42 0 l 42 46 b 150 132 138 58 150 71 l 150 848 b 42 933 150 908 138 922 l 42 979 l 762 979 "},"Ḟ":{"ha":804,"x_min":0,"x_max":0,"o":"m 441 1075 b 363 1150 397 1075 363 1107 b 441 1225 363 1193 398 1225 b 519 1150 485 1225 519 1193 b 441 1075 519 1107 485 1075 m 771 730 l 728 730 b 475 920 692 881 641 914 l 329 926 l 329 522 l 487 523 b 586 659 548 524 564 547 l 627 659 l 627 329 l 586 329 b 487 466 567 440 549 465 l 329 467 l 329 141 b 446 46 329 75 343 58 l 446 0 l 42 0 l 42 46 b 150 132 138 58 150 71 l 150 848 b 42 933 150 908 138 922 l 42 979 l 762 979 "},"G":{"ha":1059,"x_min":0,"x_max":0,"o":"m 66 491 b 583 998 66 812 292 998 b 906 925 736 998 848 966 l 914 698 l 871 698 b 597 932 833 857 741 932 b 266 507 387 932 266 761 b 598 47 266 248 395 47 b 774 93 673 47 735 64 l 774 347 b 659 429 774 408 763 420 l 659 476 l 1042 476 l 1042 429 b 937 347 948 420 937 408 l 937 75 b 583 -18 859 20 722 -18 b 66 491 296 -18 66 178 "},"Ǵ":{"ha":1059,"x_min":0,"x_max":0,"o":"m 491 1054 l 591 1246 l 765 1246 l 765 1241 l 548 1054 m 66 491 b 583 998 66 812 292 998 b 906 925 736 998 848 966 l 914 698 l 871 698 b 597 932 833 857 741 932 b 266 507 387 932 266 761 b 598 47 266 248 395 47 b 774 93 673 47 735 64 l 774 347 b 659 429 774 408 763 420 l 659 476 l 1042 476 l 1042 429 b 937 347 948 420 937 408 l 937 75 b 583 -18 859 20 722 -18 b 66 491 296 -18 66 178 "},"Ĝ":{"ha":1059,"x_min":0,"x_max":0,"o":"m 383 1054 l 526 1246 l 631 1246 l 774 1054 l 715 1054 l 578 1153 l 439 1054 m 66 491 b 583 998 66 812 292 998 b 906 925 736 998 848 966 l 914 698 l 871 698 b 597 932 833 857 741 932 b 266 507 387 932 266 761 b 598 47 266 248 395 47 b 774 93 673 47 735 64 l 774 347 b 659 429 774 408 763 420 l 659 476 l 1042 476 l 1042 429 b 937 347 948 420 937 408 l 937 75 b 583 -18 859 20 722 -18 b 66 491 296 -18 66 178 "},"Ǧ":{"ha":1059,"x_min":0,"x_max":0,"o":"m 772 1251 l 629 1058 l 524 1058 l 382 1251 l 440 1251 l 577 1152 l 716 1251 m 66 491 b 583 998 66 812 292 998 b 906 925 736 998 848 966 l 914 698 l 871 698 b 597 932 833 857 741 932 b 266 507 387 932 266 761 b 598 47 266 248 395 47 b 774 93 673 47 735 64 l 774 347 b 659 429 774 408 763 420 l 659 476 l 1042 476 l 1042 429 b 937 347 948 420 937 408 l 937 75 b 583 -18 859 20 722 -18 b 66 491 296 -18 66 178 "},"Ğ":{"ha":1059,"x_min":0,"x_max":0,"o":"m 570 1078 b 385 1251 452 1078 385 1162 b 387 1283 385 1262 386 1273 l 436 1283 l 436 1278 b 570 1173 436 1219 488 1173 b 704 1278 652 1173 704 1218 l 704 1283 l 752 1283 b 755 1251 754 1273 755 1262 b 570 1078 755 1162 688 1078 m 66 491 b 583 998 66 812 292 998 b 906 925 736 998 848 966 l 914 698 l 871 698 b 597 932 833 857 741 932 b 266 507 387 932 266 761 b 598 47 266 248 395 47 b 774 93 673 47 735 64 l 774 347 b 659 429 774 408 763 420 l 659 476 l 1042 476 l 1042 429 b 937 347 948 420 937 408 l 937 75 b 583 -18 859 20 722 -18 b 66 491 296 -18 66 178 "},"Ḡ":{"ha":1059,"x_min":0,"x_max":0,"o":"m 387 1180 l 753 1180 l 753 1094 l 387 1094 m 66 491 b 583 998 66 812 292 998 b 906 925 736 998 848 966 l 914 698 l 871 698 b 597 932 833 857 741 932 b 266 507 387 932 266 761 b 598 47 266 248 395 47 b 774 93 673 47 735 64 l 774 347 b 659 429 774 408 763 420 l 659 476 l 1042 476 l 1042 429 b 937 347 948 420 937 408 l 937 75 b 583 -18 859 20 722 -18 b 66 491 296 -18 66 178 "},"Ġ":{"ha":1059,"x_min":0,"x_max":0,"o":"m 570 1075 b 492 1150 526 1075 492 1107 b 570 1225 492 1193 526 1225 b 648 1150 614 1225 648 1193 b 570 1075 648 1107 614 1075 m 66 491 b 583 998 66 812 292 998 b 906 925 736 998 848 966 l 914 698 l 871 698 b 597 932 833 857 741 932 b 266 507 387 932 266 761 b 598 47 266 248 395 47 b 774 93 673 47 735 64 l 774 347 b 659 429 774 408 763 420 l 659 476 l 1042 476 l 1042 429 b 937 347 948 420 937 408 l 937 75 b 583 -18 859 20 722 -18 b 66 491 296 -18 66 178 "},"Ģ":{"ha":1059,"x_min":0,"x_max":0,"o":"m 66 491 b 583 998 66 812 292 998 b 906 925 736 998 848 966 l 914 698 l 871 698 b 597 932 833 857 741 932 b 266 507 387 932 266 761 b 598 47 266 248 395 47 b 774 93 673 47 735 64 l 774 347 b 659 429 774 408 763 420 l 659 476 l 1042 476 l 1042 429 b 937 347 948 420 937 408 l 937 75 b 583 -18 859 20 722 -18 b 66 491 296 -18 66 178 m 571 -323 b 438 -279 513 -323 463 -303 l 438 -235 b 534 -260 461 -250 495 -260 b 612 -206 578 -260 612 -241 b 536 -153 612 -173 578 -154 b 478 -164 513 -153 490 -159 l 478 -123 b 593 -78 496 -99 538 -78 b 735 -199 676 -78 735 -125 b 571 -323 735 -274 670 -323 "},"H":{"ha":1120,"x_min":0,"x_max":0,"o":"m 329 128 b 431 46 329 70 342 58 l 431 0 l 42 0 l 42 46 b 150 132 137 58 150 71 l 150 848 b 42 933 150 908 138 922 l 42 979 l 431 979 l 431 932 b 329 850 342 922 329 909 l 329 530 l 791 530 l 791 851 b 689 933 791 909 779 922 l 689 979 l 1078 979 l 1078 933 b 970 848 985 922 970 909 l 970 132 b 1078 46 970 71 985 58 l 1078 0 l 689 0 l 689 46 b 791 128 779 58 791 70 l 791 472 l 329 472 l 329 128 "},"Ĥ":{"ha":1120,"x_min":0,"x_max":0,"o":"m 374 1053 l 517 1246 l 623 1246 l 765 1053 l 707 1053 l 570 1153 l 431 1053 m 329 128 b 431 46 329 70 342 58 l 431 0 l 42 0 l 42 46 b 150 132 137 58 150 71 l 150 848 b 42 933 150 908 138 922 l 42 979 l 431 979 l 431 932 b 329 850 342 922 329 909 l 329 530 l 791 530 l 791 851 b 689 933 791 909 779 922 l 689 979 l 1078 979 l 1078 933 b 970 848 985 922 970 909 l 970 132 b 1078 46 970 71 985 58 l 1078 0 l 689 0 l 689 46 b 791 128 779 58 791 70 l 791 472 l 329 472 l 329 128 "},"Ȟ":{"ha":1120,"x_min":0,"x_max":0,"o":"m 764 1251 l 621 1058 l 515 1058 l 373 1251 l 431 1251 l 569 1152 l 707 1251 m 329 128 b 431 46 329 70 342 58 l 431 0 l 42 0 l 42 46 b 150 132 137 58 150 71 l 150 848 b 42 933 150 908 138 922 l 42 979 l 431 979 l 431 932 b 329 850 342 922 329 909 l 329 530 l 791 530 l 791 851 b 689 933 791 909 779 922 l 689 979 l 1078 979 l 1078 933 b 970 848 985 922 970 909 l 970 132 b 1078 46 970 71 985 58 l 1078 0 l 689 0 l 689 46 b 791 128 779 58 791 70 l 791 472 l 329 472 l 329 128 "},"Ḫ":{"ha":1120,"x_min":0,"x_max":0,"o":"m 329 128 b 431 46 329 70 342 58 l 431 0 l 42 0 l 42 46 b 150 132 137 58 150 71 l 150 848 b 42 933 150 908 138 922 l 42 979 l 431 979 l 431 932 b 329 850 342 922 329 909 l 329 530 l 791 530 l 791 851 b 689 933 791 909 779 922 l 689 979 l 1078 979 l 1078 933 b 970 848 985 922 970 909 l 970 132 b 1078 46 970 71 985 58 l 1078 0 l 689 0 l 689 46 b 791 128 779 58 791 70 l 791 472 l 329 472 l 329 128 m 562 -306 b 370 -129 438 -306 370 -219 b 373 -95 370 -117 371 -105 l 422 -95 l 422 -100 b 562 -206 422 -160 475 -206 b 701 -100 647 -206 701 -160 l 701 -95 l 749 -95 b 752 -129 751 -105 752 -117 b 562 -306 752 -219 685 -306 "},"Ḧ":{"ha":1120,"x_min":0,"x_max":0,"o":"m 446 1076 b 370 1150 404 1076 370 1108 b 446 1225 370 1192 404 1225 b 522 1150 489 1225 522 1192 b 446 1076 522 1108 489 1076 m 677 1076 b 601 1150 634 1076 601 1108 b 677 1225 601 1192 634 1225 b 753 1150 719 1225 753 1192 b 677 1076 753 1108 719 1076 m 329 128 b 431 46 329 70 342 58 l 431 0 l 42 0 l 42 46 b 150 132 137 58 150 71 l 150 848 b 42 933 150 908 138 922 l 42 979 l 431 979 l 431 932 b 329 850 342 922 329 909 l 329 530 l 791 530 l 791 851 b 689 933 791 909 779 922 l 689 979 l 1078 979 l 1078 933 b 970 848 985 922 970 909 l 970 132 b 1078 46 970 71 985 58 l 1078 0 l 689 0 l 689 46 b 791 128 779 58 791 70 l 791 472 l 329 472 l 329 128 "},"Ḣ":{"ha":1120,"x_min":0,"x_max":0,"o":"m 562 1075 b 483 1150 517 1075 483 1107 b 562 1225 483 1193 517 1225 b 640 1150 605 1225 640 1193 b 562 1075 640 1107 605 1075 m 329 128 b 431 46 329 70 342 58 l 431 0 l 42 0 l 42 46 b 150 132 137 58 150 71 l 150 848 b 42 933 150 908 138 922 l 42 979 l 431 979 l 431 932 b 329 850 342 922 329 909 l 329 530 l 791 530 l 791 851 b 689 933 791 909 779 922 l 689 979 l 1078 979 l 1078 933 b 970 848 985 922 970 909 l 970 132 b 1078 46 970 71 985 58 l 1078 0 l 689 0 l 689 46 b 791 128 779 58 791 70 l 791 472 l 329 472 l 329 128 "},"Ḥ":{"ha":1120,"x_min":0,"x_max":0,"o":"m 329 128 b 431 46 329 70 342 58 l 431 0 l 42 0 l 42 46 b 150 132 137 58 150 71 l 150 848 b 42 933 150 908 138 922 l 42 979 l 431 979 l 431 932 b 329 850 342 922 329 909 l 329 530 l 791 530 l 791 851 b 689 933 791 909 779 922 l 689 979 l 1078 979 l 1078 933 b 970 848 985 922 970 909 l 970 132 b 1078 46 970 71 985 58 l 1078 0 l 689 0 l 689 46 b 791 128 779 58 791 70 l 791 472 l 329 472 l 329 128 m 562 -125 b 640 -200 605 -125 640 -157 b 562 -276 640 -243 605 -276 b 483 -200 517 -276 483 -243 b 562 -125 483 -157 517 -125 "},"Ḩ":{"ha":1120,"x_min":0,"x_max":0,"o":"m 329 128 b 431 46 329 70 342 58 l 431 0 l 273 0 l 216 -78 b 228 -77 220 -78 224 -77 b 376 -199 311 -78 376 -121 b 216 -322 376 -279 298 -322 b 77 -273 156 -322 106 -302 l 78 -227 b 170 -254 98 -243 134 -254 b 244 -200 212 -254 244 -235 b 161 -144 244 -163 209 -144 b 132 -148 150 -144 138 -145 l 132 -108 l 214 0 l 42 0 l 42 46 b 150 132 137 58 150 71 l 150 848 b 42 933 150 908 138 922 l 42 979 l 431 979 l 431 932 b 329 850 342 922 329 909 l 329 530 l 791 530 l 791 851 b 689 933 791 909 779 922 l 689 979 l 1078 979 l 1078 933 b 970 848 985 922 970 909 l 970 132 b 1078 46 970 71 985 58 l 1078 0 l 689 0 l 689 46 b 791 128 779 58 791 70 l 791 472 l 329 472 l 329 128 "},"Ħ":{"ha":1120,"x_min":0,"x_max":0,"o":"m 329 128 b 431 46 329 70 342 58 l 431 0 l 42 0 l 42 46 b 150 132 137 58 150 71 l 150 725 l 42 725 l 42 781 l 150 781 l 150 848 b 42 933 150 908 138 922 l 42 979 l 431 979 l 431 932 b 329 850 342 922 329 909 l 329 781 l 791 781 l 791 851 b 689 933 791 909 779 922 l 689 979 l 1078 979 l 1078 933 b 970 848 985 922 970 909 l 970 781 l 1078 781 l 1078 725 l 970 725 l 970 132 b 1078 46 970 71 985 58 l 1078 0 l 689 0 l 689 46 b 791 128 779 58 791 70 l 791 471 l 329 471 l 329 128 m 791 530 l 791 725 l 329 725 l 329 530 "},"I":{"ha":479,"x_min":0,"x_max":0,"o":"m 329 132 b 437 46 329 71 341 58 l 437 0 l 42 0 l 42 46 b 150 132 138 58 150 71 l 150 848 b 42 933 150 908 138 922 l 42 979 l 437 979 l 437 933 b 329 848 341 922 329 908 l 329 132 "},"Í":{"ha":479,"x_min":0,"x_max":0,"o":"m 160 1054 l 260 1246 l 435 1246 l 435 1241 l 218 1054 m 329 132 b 437 46 329 71 341 58 l 437 0 l 42 0 l 42 46 b 150 132 138 58 150 71 l 150 848 b 42 933 150 908 138 922 l 42 979 l 437 979 l 437 933 b 329 848 341 922 329 908 l 329 132 "},"Ì":{"ha":479,"x_min":0,"x_max":0,"o":"m 56 1241 l 56 1246 l 238 1246 l 333 1054 l 275 1054 m 329 132 b 437 46 329 71 341 58 l 437 0 l 42 0 l 42 46 b 150 132 138 58 150 71 l 150 848 b 42 933 150 908 138 922 l 42 979 l 437 979 l 437 933 b 329 848 341 922 329 908 l 329 132 "},"Ȉ":{"ha":479,"x_min":0,"x_max":0,"o":"m 204 1053 l 142 1053 l -47 1241 l -47 1246 l 106 1246 m 389 1053 l 330 1053 l 202 1241 l 202 1246 l 343 1246 m 329 132 b 437 46 329 71 341 58 l 437 0 l 42 0 l 42 46 b 150 132 138 58 150 71 l 150 848 b 42 933 150 908 138 922 l 42 979 l 437 979 l 437 933 b 329 848 341 922 329 908 l 329 132 "},"Î":{"ha":479,"x_min":0,"x_max":0,"o":"m 52 1054 l 195 1246 l 300 1246 l 443 1054 l 385 1054 l 248 1153 l 109 1054 m 329 132 b 437 46 329 71 341 58 l 437 0 l 42 0 l 42 46 b 150 132 138 58 150 71 l 150 848 b 42 933 150 908 138 922 l 42 979 l 437 979 l 437 933 b 329 848 341 922 329 908 l 329 132 "},"Ǐ":{"ha":479,"x_min":0,"x_max":0,"o":"m 441 1251 l 299 1058 l 193 1058 l 51 1251 l 110 1251 l 247 1152 l 385 1251 m 329 132 b 437 46 329 71 341 58 l 437 0 l 42 0 l 42 46 b 150 132 138 58 150 71 l 150 848 b 42 933 150 908 138 922 l 42 979 l 437 979 l 437 933 b 329 848 341 922 329 908 l 329 132 "},"Ĭ":{"ha":479,"x_min":0,"x_max":0,"o":"m 239 1078 b 54 1251 121 1078 54 1162 b 57 1283 54 1262 55 1273 l 105 1283 l 105 1278 b 239 1173 105 1219 157 1173 b 373 1278 321 1173 373 1218 l 373 1283 l 422 1283 b 424 1251 423 1273 424 1262 b 239 1078 424 1162 358 1078 m 329 132 b 437 46 329 71 341 58 l 437 0 l 42 0 l 42 46 b 150 132 138 58 150 71 l 150 848 b 42 933 150 908 138 922 l 42 979 l 437 979 l 437 933 b 329 848 341 922 329 908 l 329 132 "},"Ȋ":{"ha":479,"x_min":0,"x_max":0,"o":"m 239 1283 b 424 1110 357 1283 424 1198 b 422 1078 424 1099 423 1088 l 373 1078 l 373 1082 b 239 1188 373 1142 321 1188 b 105 1082 157 1188 105 1142 l 105 1078 l 57 1078 b 54 1110 55 1088 54 1099 b 239 1283 54 1198 120 1283 m 329 132 b 437 46 329 71 341 58 l 437 0 l 42 0 l 42 46 b 150 132 138 58 150 71 l 150 848 b 42 933 150 908 138 922 l 42 979 l 437 979 l 437 933 b 329 848 341 922 329 908 l 329 132 "},"Ï":{"ha":479,"x_min":0,"x_max":0,"o":"m 125 1076 b 48 1150 82 1076 48 1108 b 125 1225 48 1192 82 1225 b 201 1150 167 1225 201 1192 b 125 1076 201 1108 167 1076 m 355 1076 b 279 1150 313 1076 279 1108 b 355 1225 279 1192 313 1225 b 431 1150 397 1225 431 1192 b 355 1076 431 1108 397 1076 m 329 132 b 437 46 329 71 341 58 l 437 0 l 42 0 l 42 46 b 150 132 138 58 150 71 l 150 848 b 42 933 150 908 138 922 l 42 979 l 437 979 l 437 933 b 329 848 341 922 329 908 l 329 132 "},"Ḯ":{"ha":479,"x_min":0,"x_max":0,"o":"m 47 1199 l 47 1240 l 432 1340 l 432 1252 m 129 1054 b 66 1108 94 1054 66 1077 b 129 1162 66 1139 94 1162 l 135 1162 b 197 1108 170 1162 197 1139 b 135 1054 197 1077 170 1054 m 343 1054 b 281 1108 309 1054 281 1077 b 343 1162 281 1139 309 1162 l 350 1162 b 412 1108 385 1162 412 1139 b 350 1054 412 1077 385 1054 m 329 132 b 437 46 329 71 341 58 l 437 0 l 42 0 l 42 46 b 150 132 138 58 150 71 l 150 848 b 42 933 150 908 138 922 l 42 979 l 437 979 l 437 933 b 329 848 341 922 329 908 l 329 132 "},"Ĩ":{"ha":479,"x_min":0,"x_max":0,"o":"m 319 1063 b 218 1103 281 1063 252 1079 l 199 1118 b 142 1142 177 1133 161 1142 b 97 1059 115 1142 100 1121 l 45 1059 b 159 1238 43 1189 95 1238 b 260 1198 198 1238 227 1221 l 281 1183 b 337 1159 302 1168 318 1159 b 382 1241 364 1159 379 1179 l 434 1241 b 319 1063 436 1112 384 1063 m 329 132 b 437 46 329 71 341 58 l 437 0 l 42 0 l 42 46 b 150 132 138 58 150 71 l 150 848 b 42 933 150 908 138 922 l 42 979 l 437 979 l 437 933 b 329 848 341 922 329 908 l 329 132 "},"Ḭ":{"ha":479,"x_min":0,"x_max":0,"o":"m 329 132 b 437 46 329 71 341 58 l 437 0 l 42 0 l 42 46 b 150 132 138 58 150 71 l 150 848 b 42 933 150 908 138 922 l 42 979 l 437 979 l 437 933 b 329 848 341 922 329 908 l 329 132 m 317 -285 b 218 -245 279 -285 251 -269 l 199 -231 b 144 -208 178 -216 163 -208 b 100 -288 117 -208 102 -228 l 51 -288 b 161 -116 49 -163 99 -116 b 260 -155 199 -116 227 -132 l 279 -170 b 334 -193 300 -185 316 -193 b 378 -113 361 -193 376 -173 l 428 -113 b 317 -285 430 -237 379 -285 "},"Ī":{"ha":479,"x_min":0,"x_max":0,"o":"m 56 1180 l 422 1180 l 422 1094 l 56 1094 m 329 132 b 437 46 329 71 341 58 l 437 0 l 42 0 l 42 46 b 150 132 138 58 150 71 l 150 848 b 42 933 150 908 138 922 l 42 979 l 437 979 l 437 933 b 329 848 341 922 329 908 l 329 132 "},"Ỉ":{"ha":479,"x_min":0,"x_max":0,"o":"m 257 1278 b 378 1189 330 1278 378 1241 b 237 1061 378 1141 340 1103 l 187 1061 b 274 1159 245 1099 274 1127 b 204 1208 274 1189 248 1208 b 120 1182 169 1208 138 1196 l 120 1218 b 257 1278 144 1249 192 1278 m 329 132 b 437 46 329 71 341 58 l 437 0 l 42 0 l 42 46 b 150 132 138 58 150 71 l 150 848 b 42 933 150 908 138 922 l 42 979 l 437 979 l 437 933 b 329 848 341 922 329 908 l 329 132 "},"İ":{"ha":479,"x_min":0,"x_max":0,"o":"m 239 1075 b 161 1150 196 1075 161 1107 b 239 1225 161 1193 196 1225 b 317 1150 283 1225 317 1193 b 239 1075 317 1107 283 1075 m 329 132 b 437 46 329 71 341 58 l 437 0 l 42 0 l 42 46 b 150 132 138 58 150 71 l 150 848 b 42 933 150 908 138 922 l 42 979 l 437 979 l 437 933 b 329 848 341 922 329 908 l 329 132 "},"Ị":{"ha":479,"x_min":0,"x_max":0,"o":"m 329 132 b 437 46 329 71 341 58 l 437 0 l 42 0 l 42 46 b 150 132 138 58 150 71 l 150 848 b 42 933 150 908 138 922 l 42 979 l 437 979 l 437 933 b 329 848 341 922 329 908 l 329 132 m 239 -125 b 317 -200 283 -125 317 -157 b 239 -276 317 -243 283 -276 b 161 -200 196 -276 161 -243 b 239 -125 161 -157 196 -125 "},"Į":{"ha":479,"x_min":0,"x_max":0,"o":"m 329 132 b 437 46 329 71 341 58 l 437 0 l 275 0 b 241 -118 254 -28 241 -72 b 330 -245 241 -191 280 -245 b 385 -225 353 -245 373 -236 l 385 -271 b 254 -330 363 -305 313 -330 b 114 -197 176 -330 114 -279 b 224 0 114 -125 160 -54 l 42 0 l 42 46 b 150 132 138 58 150 71 l 150 848 b 42 933 150 908 138 922 l 42 979 l 437 979 l 437 933 b 329 848 341 922 329 908 l 329 132 "},"J":{"ha":479,"x_min":0,"x_max":0,"o":"m 329 180 b -16 -279 329 -60 217 -161 l -39 -240 b 150 182 101 -142 150 -39 l 150 848 b 42 933 150 908 138 922 l 42 979 l 437 979 l 437 933 b 329 848 341 922 329 908 l 329 180 "},"Ĵ":{"ha":479,"x_min":0,"x_max":0,"o":"m 52 1054 l 195 1246 l 300 1246 l 443 1054 l 385 1054 l 247 1153 l 108 1054 m 329 180 b -16 -279 329 -60 217 -161 l -39 -240 b 150 182 101 -142 150 -39 l 150 848 b 42 933 150 908 138 922 l 42 979 l 437 979 l 437 933 b 329 848 341 922 329 908 l 329 180 "},"K":{"ha":955,"x_min":0,"x_max":0,"o":"m 329 128 b 431 46 329 70 342 58 l 431 0 l 42 0 l 42 46 b 150 132 137 58 150 71 l 150 848 b 42 933 150 908 137 922 l 42 979 l 431 979 l 431 932 b 329 850 342 922 329 909 l 329 534 l 431 534 l 650 799 b 618 933 729 895 721 924 l 618 979 l 943 979 l 943 933 b 712 771 866 918 815 882 b 558 602 656 713 606 655 l 785 235 b 959 43 874 93 909 58 l 959 0 l 727 0 l 432 478 l 329 478 l 329 128 "},"Ḱ":{"ha":955,"x_min":0,"x_max":0,"o":"m 434 1054 l 534 1246 l 708 1246 l 708 1241 l 492 1054 m 329 128 b 431 46 329 70 342 58 l 431 0 l 42 0 l 42 46 b 150 132 137 58 150 71 l 150 848 b 42 933 150 908 137 922 l 42 979 l 431 979 l 431 932 b 329 850 342 922 329 909 l 329 534 l 431 534 l 650 799 b 618 933 729 895 721 924 l 618 979 l 943 979 l 943 933 b 712 771 866 918 815 882 b 558 602 656 713 606 655 l 785 235 b 959 43 874 93 909 58 l 959 0 l 727 0 l 432 478 l 329 478 l 329 128 "},"Ǩ":{"ha":955,"x_min":0,"x_max":0,"o":"m 715 1251 l 572 1058 l 467 1058 l 325 1251 l 383 1251 l 520 1152 l 659 1251 m 329 128 b 431 46 329 70 342 58 l 431 0 l 42 0 l 42 46 b 150 132 137 58 150 71 l 150 848 b 42 933 150 908 137 922 l 42 979 l 431 979 l 431 932 b 329 850 342 922 329 909 l 329 534 l 431 534 l 650 799 b 618 933 729 895 721 924 l 618 979 l 943 979 l 943 933 b 712 771 866 918 815 882 b 558 602 656 713 606 655 l 785 235 b 959 43 874 93 909 58 l 959 0 l 727 0 l 432 478 l 329 478 l 329 128 "},"Ḵ":{"ha":955,"x_min":0,"x_max":0,"o":"m 329 128 b 431 46 329 70 342 58 l 431 0 l 42 0 l 42 46 b 150 132 137 58 150 71 l 150 848 b 42 933 150 908 137 922 l 42 979 l 431 979 l 431 932 b 329 850 342 922 329 909 l 329 534 l 431 534 l 650 799 b 618 933 729 895 721 924 l 618 979 l 943 979 l 943 933 b 712 771 866 918 815 882 b 558 602 656 713 606 655 l 785 235 b 959 43 874 93 909 58 l 959 0 l 727 0 l 432 478 l 329 478 l 329 128 m 342 -156 l 720 -156 l 720 -243 l 342 -243 "},"Ḳ":{"ha":955,"x_min":0,"x_max":0,"o":"m 329 128 b 431 46 329 70 342 58 l 431 0 l 42 0 l 42 46 b 150 132 137 58 150 71 l 150 848 b 42 933 150 908 137 922 l 42 979 l 431 979 l 431 932 b 329 850 342 922 329 909 l 329 534 l 431 534 l 650 799 b 618 933 729 895 721 924 l 618 979 l 943 979 l 943 933 b 712 771 866 918 815 882 b 558 602 656 713 606 655 l 785 235 b 959 43 874 93 909 58 l 959 0 l 727 0 l 432 478 l 329 478 l 329 128 m 531 -125 b 609 -200 574 -125 609 -157 b 531 -276 609 -243 574 -276 b 453 -200 488 -276 453 -243 b 531 -125 453 -157 488 -125 "},"Ķ":{"ha":955,"x_min":0,"x_max":0,"o":"m 329 128 b 431 46 329 70 342 58 l 431 0 l 42 0 l 42 46 b 150 132 137 58 150 71 l 150 848 b 42 933 150 908 137 922 l 42 979 l 431 979 l 431 932 b 329 850 342 922 329 909 l 329 534 l 431 534 l 650 799 b 618 933 729 895 721 924 l 618 979 l 943 979 l 943 933 b 712 771 866 918 815 882 b 558 602 656 713 606 655 l 785 235 b 959 43 874 93 909 58 l 959 0 l 727 0 l 432 478 l 329 478 l 329 128 m 522 -323 b 389 -279 464 -323 414 -303 l 389 -235 b 485 -260 412 -250 446 -260 b 563 -206 530 -260 563 -241 b 488 -153 563 -173 530 -154 b 429 -164 465 -153 441 -159 l 429 -123 b 544 -78 448 -99 490 -78 b 687 -199 627 -78 687 -125 b 522 -323 687 -274 621 -323 "},"L":{"ha":806,"x_min":0,"x_max":0,"o":"m 42 0 l 42 46 b 150 132 137 58 150 71 l 150 848 b 42 933 150 908 138 922 l 42 979 l 446 979 l 446 933 b 329 840 343 922 329 905 l 329 54 l 464 58 b 730 298 627 65 686 98 l 773 298 l 763 0 "},"Ĺ":{"ha":806,"x_min":0,"x_max":0,"o":"m 162 1054 l 262 1246 l 436 1246 l 436 1241 l 219 1054 m 42 0 l 42 46 b 150 132 137 58 150 71 l 150 848 b 42 933 150 908 138 922 l 42 979 l 446 979 l 446 933 b 329 840 343 922 329 905 l 329 54 l 464 58 b 730 298 627 65 686 98 l 773 298 l 763 0 "},"Ḽ":{"ha":806,"x_min":0,"x_max":0,"o":"m 42 0 l 42 46 b 150 132 137 58 150 71 l 150 848 b 42 933 150 908 138 922 l 42 979 l 446 979 l 446 933 b 329 840 343 922 329 905 l 329 54 l 464 58 b 730 298 627 65 686 98 l 773 298 l 763 0 m 221 -313 l 368 -87 l 463 -87 l 610 -313 l 554 -313 l 416 -193 l 275 -313 "},"Ľ":{"ha":806,"x_min":0,"x_max":0,"o":"m 574 760 l 604 1041 l 739 1041 l 618 760 m 42 0 l 42 46 b 150 132 137 58 150 71 l 150 848 b 42 933 150 908 138 922 l 42 979 l 446 979 l 446 933 b 329 840 343 922 329 905 l 329 54 l 464 58 b 730 298 627 65 686 98 l 773 298 l 763 0 "},"Ḻ":{"ha":806,"x_min":0,"x_max":0,"o":"m 42 0 l 42 46 b 150 132 137 58 150 71 l 150 848 b 42 933 150 908 138 922 l 42 979 l 446 979 l 446 933 b 329 840 343 922 329 905 l 329 54 l 464 58 b 730 298 627 65 686 98 l 773 298 l 763 0 m 227 -156 l 604 -156 l 604 -243 l 227 -243 "},"Ŀ":{"ha":806,"x_min":0,"x_max":0,"o":"m 42 0 l 42 46 b 150 132 137 58 150 71 l 150 848 b 42 933 150 908 138 922 l 42 979 l 446 979 l 446 933 b 329 840 343 922 329 905 l 329 54 l 464 58 b 730 298 627 65 686 98 l 773 298 l 763 0 m 617 479 b 525 568 566 479 525 517 b 617 656 525 618 566 656 b 709 568 668 656 709 618 b 617 479 709 517 668 479 "},"Ḷ":{"ha":806,"x_min":0,"x_max":0,"o":"m 42 0 l 42 46 b 150 132 137 58 150 71 l 150 848 b 42 933 150 908 138 922 l 42 979 l 446 979 l 446 933 b 329 840 343 922 329 905 l 329 54 l 464 58 b 730 298 627 65 686 98 l 773 298 l 763 0 m 416 -125 b 494 -200 459 -125 494 -157 b 416 -276 494 -243 459 -276 b 337 -200 372 -276 337 -243 b 416 -125 337 -157 372 -125 "},"Ḹ":{"ha":806,"x_min":0,"x_max":0,"o":"m 58 1180 l 424 1180 l 424 1094 l 58 1094 m 42 0 l 42 46 b 150 132 137 58 150 71 l 150 848 b 42 933 150 908 138 922 l 42 979 l 446 979 l 446 933 b 329 840 343 922 329 905 l 329 54 l 464 58 b 730 298 627 65 686 98 l 773 298 l 763 0 m 416 -125 b 494 -200 459 -125 494 -157 b 416 -276 494 -243 459 -276 b 337 -200 372 -276 337 -243 b 416 -125 337 -157 372 -125 "},"Ļ":{"ha":806,"x_min":0,"x_max":0,"o":"m 42 0 l 42 46 b 150 132 137 58 150 71 l 150 848 b 42 933 150 908 138 922 l 42 979 l 446 979 l 446 933 b 329 840 343 922 329 905 l 329 54 l 464 58 b 730 298 627 65 686 98 l 773 298 l 763 0 m 407 -323 b 274 -279 349 -323 299 -303 l 274 -235 b 370 -260 297 -250 331 -260 b 448 -206 415 -260 448 -241 b 372 -153 448 -173 415 -154 b 314 -164 349 -153 326 -159 l 314 -123 b 429 -78 332 -99 374 -78 b 572 -199 512 -78 572 -125 b 407 -323 572 -274 506 -323 "},"Ł":{"ha":806,"x_min":0,"x_max":0,"o":"m 42 476 l 150 508 l 150 848 b 42 933 150 908 138 922 l 42 979 l 446 979 l 446 933 b 329 840 343 922 329 905 l 329 560 l 569 631 l 569 570 l 329 500 l 329 54 l 464 58 b 730 298 627 65 686 98 l 773 298 l 763 0 l 42 0 l 42 46 b 150 132 137 58 150 71 l 150 447 l 42 415 "},"M":{"ha":1265,"x_min":0,"x_max":0,"o":"m 640 190 l 907 980 l 1215 979 l 1215 933 b 1109 848 1122 922 1107 908 l 1128 132 b 1236 46 1130 71 1141 57 l 1236 0 l 848 0 l 848 46 b 950 130 938 57 951 70 l 932 848 l 705 229 l 624 0 l 536 0 l 212 854 l 210 161 b 314 46 209 77 220 58 l 314 0 l 24 0 l 24 46 b 131 159 116 58 127 76 l 151 830 b 49 933 153 902 136 921 l 49 979 l 347 979 "},"Ḿ":{"ha":1265,"x_min":0,"x_max":0,"o":"m 552 1054 l 652 1246 l 826 1246 l 826 1241 l 609 1054 m 640 190 l 907 980 l 1215 979 l 1215 933 b 1109 848 1122 922 1107 908 l 1128 132 b 1236 46 1130 71 1141 57 l 1236 0 l 848 0 l 848 46 b 950 130 938 57 951 70 l 932 848 l 705 229 l 624 0 l 536 0 l 212 854 l 210 161 b 314 46 209 77 220 58 l 314 0 l 24 0 l 24 46 b 131 159 116 58 127 76 l 151 830 b 49 933 153 902 136 921 l 49 979 l 347 979 "},"Ṁ":{"ha":1265,"x_min":0,"x_max":0,"o":"m 631 1075 b 553 1150 587 1075 553 1107 b 631 1225 553 1193 587 1225 b 709 1150 674 1225 709 1193 b 631 1075 709 1107 674 1075 m 640 190 l 907 980 l 1215 979 l 1215 933 b 1109 848 1122 922 1107 908 l 1128 132 b 1236 46 1130 71 1141 57 l 1236 0 l 848 0 l 848 46 b 950 130 938 57 951 70 l 932 848 l 705 229 l 624 0 l 536 0 l 212 854 l 210 161 b 314 46 209 77 220 58 l 314 0 l 24 0 l 24 46 b 131 159 116 58 127 76 l 151 830 b 49 933 153 902 136 921 l 49 979 l 347 979 "},"Ṃ":{"ha":1265,"x_min":0,"x_max":0,"o":"m 640 190 l 907 980 l 1215 979 l 1215 933 b 1109 848 1122 922 1107 908 l 1128 132 b 1236 46 1130 71 1141 57 l 1236 0 l 848 0 l 848 46 b 950 130 938 57 951 70 l 932 848 l 705 229 l 624 0 l 536 0 l 212 854 l 210 161 b 314 46 209 77 220 58 l 314 0 l 24 0 l 24 46 b 131 159 116 58 127 76 l 151 830 b 49 933 153 902 136 921 l 49 979 l 347 979 m 579 -125 b 657 -200 623 -125 657 -157 b 579 -276 657 -243 623 -276 b 500 -200 536 -276 500 -243 b 579 -125 500 -157 536 -125 "},"N":{"ha":1044,"x_min":0,"x_max":0,"o":"m 850 172 l 838 817 b 727 933 836 904 824 922 l 727 979 l 1022 979 l 1022 933 b 917 818 929 920 918 902 l 911 0 l 744 0 l 193 839 l 205 163 b 316 46 207 75 220 57 l 316 0 l 21 0 l 21 46 b 127 161 114 59 126 77 l 131 829 b 28 933 131 901 116 920 l 28 979 l 319 979 "},"Ń":{"ha":1044,"x_min":0,"x_max":0,"o":"m 458 1054 l 558 1246 l 732 1246 l 732 1241 l 515 1054 m 850 172 l 838 817 b 727 933 836 904 824 922 l 727 979 l 1022 979 l 1022 933 b 917 818 929 920 918 902 l 911 0 l 744 0 l 193 839 l 205 163 b 316 46 207 75 220 57 l 316 0 l 21 0 l 21 46 b 127 161 114 59 126 77 l 131 829 b 28 933 131 901 116 920 l 28 979 l 319 979 "},"Ǹ":{"ha":1044,"x_min":0,"x_max":0,"o":"m 354 1241 l 354 1246 l 536 1246 l 631 1054 l 573 1054 m 850 172 l 838 817 b 727 933 836 904 824 922 l 727 979 l 1022 979 l 1022 933 b 917 818 929 920 918 902 l 911 0 l 744 0 l 193 839 l 205 163 b 316 46 207 75 220 57 l 316 0 l 21 0 l 21 46 b 127 161 114 59 126 77 l 131 829 b 28 933 131 901 116 920 l 28 979 l 319 979 "},"Ṋ":{"ha":1044,"x_min":0,"x_max":0,"o":"m 850 172 l 838 817 b 727 933 836 904 824 922 l 727 979 l 1022 979 l 1022 933 b 917 818 929 920 918 902 l 911 0 l 744 0 l 193 839 l 205 163 b 316 46 207 75 220 57 l 316 0 l 21 0 l 21 46 b 127 161 114 59 126 77 l 131 829 b 28 933 131 901 116 920 l 28 979 l 319 979 m 320 -313 l 467 -87 l 562 -87 l 709 -313 l 653 -313 l 515 -193 l 374 -313 "},"Ň":{"ha":1044,"x_min":0,"x_max":0,"o":"m 739 1251 l 597 1058 l 492 1058 l 349 1251 l 408 1251 l 545 1152 l 684 1251 m 850 172 l 838 817 b 727 933 836 904 824 922 l 727 979 l 1022 979 l 1022 933 b 917 818 929 920 918 902 l 911 0 l 744 0 l 193 839 l 205 163 b 316 46 207 75 220 57 l 316 0 l 21 0 l 21 46 b 127 161 114 59 126 77 l 131 829 b 28 933 131 901 116 920 l 28 979 l 319 979 "},"Ñ":{"ha":1044,"x_min":0,"x_max":0,"o":"m 617 1063 b 516 1103 578 1063 550 1079 l 496 1118 b 440 1142 475 1133 459 1142 b 395 1059 413 1142 397 1121 l 342 1059 b 457 1238 340 1189 393 1238 b 558 1198 496 1238 525 1221 l 578 1183 b 635 1159 600 1168 616 1159 b 680 1241 662 1159 677 1179 l 732 1241 b 617 1063 734 1112 682 1063 m 850 172 l 838 817 b 727 933 836 904 824 922 l 727 979 l 1022 979 l 1022 933 b 917 818 929 920 918 902 l 911 0 l 744 0 l 193 839 l 205 163 b 316 46 207 75 220 57 l 316 0 l 21 0 l 21 46 b 127 161 114 59 126 77 l 131 829 b 28 933 131 901 116 920 l 28 979 l 319 979 "},"Ṉ":{"ha":1044,"x_min":0,"x_max":0,"o":"m 850 172 l 838 817 b 727 933 836 904 824 922 l 727 979 l 1022 979 l 1022 933 b 917 818 929 920 918 902 l 911 0 l 744 0 l 193 839 l 205 163 b 316 46 207 75 220 57 l 316 0 l 21 0 l 21 46 b 127 161 114 59 126 77 l 131 829 b 28 933 131 901 116 920 l 28 979 l 319 979 m 326 -156 l 703 -156 l 703 -243 l 326 -243 "},"Ṅ":{"ha":1044,"x_min":0,"x_max":0,"o":"m 537 1075 b 459 1150 494 1075 459 1107 b 537 1225 459 1193 494 1225 b 615 1150 581 1225 615 1193 b 537 1075 615 1107 581 1075 m 850 172 l 838 817 b 727 933 836 904 824 922 l 727 979 l 1022 979 l 1022 933 b 917 818 929 920 918 902 l 911 0 l 744 0 l 193 839 l 205 163 b 316 46 207 75 220 57 l 316 0 l 21 0 l 21 46 b 127 161 114 59 126 77 l 131 829 b 28 933 131 901 116 920 l 28 979 l 319 979 "},"Ṇ":{"ha":1044,"x_min":0,"x_max":0,"o":"m 850 172 l 838 817 b 727 933 836 904 824 922 l 727 979 l 1022 979 l 1022 933 b 917 818 929 920 918 902 l 911 0 l 744 0 l 193 839 l 205 163 b 316 46 207 75 220 57 l 316 0 l 21 0 l 21 46 b 127 161 114 59 126 77 l 131 829 b 28 933 131 901 116 920 l 28 979 l 319 979 m 515 -125 b 593 -200 558 -125 593 -157 b 515 -276 593 -243 558 -276 b 437 -200 471 -276 437 -243 b 515 -125 437 -157 471 -125 "},"Ņ":{"ha":1044,"x_min":0,"x_max":0,"o":"m 850 172 l 838 817 b 727 933 836 904 824 922 l 727 979 l 1022 979 l 1022 933 b 917 818 929 920 918 902 l 911 0 l 744 0 l 193 839 l 205 163 b 316 46 207 75 220 57 l 316 0 l 21 0 l 21 46 b 127 161 114 59 126 77 l 131 829 b 28 933 131 901 116 920 l 28 979 l 319 979 m 506 -323 b 373 -279 448 -323 398 -303 l 373 -235 b 469 -260 396 -250 430 -260 b 547 -206 514 -260 547 -241 b 471 -153 547 -173 514 -154 b 413 -164 448 -153 425 -159 l 413 -123 b 528 -78 431 -99 473 -78 b 671 -199 611 -78 671 -125 b 506 -323 671 -274 605 -323 "},"O":{"ha":1137,"x_min":0,"x_max":0,"o":"m 66 489 b 569 998 66 772 264 998 b 1071 490 831 998 1071 804 b 568 -18 1071 207 872 -18 b 66 489 305 -18 66 176 m 266 501 b 576 47 266 250 384 47 b 871 479 785 47 871 237 b 561 932 871 730 753 932 b 266 501 352 932 266 743 "},"Ó":{"ha":1137,"x_min":0,"x_max":0,"o":"m 485 1054 l 585 1246 l 760 1246 l 760 1241 l 543 1054 m 66 489 b 569 998 66 772 264 998 b 1071 490 831 998 1071 804 b 568 -18 1071 207 872 -18 b 66 489 305 -18 66 176 m 266 501 b 576 47 266 250 384 47 b 871 479 785 47 871 237 b 561 932 871 730 753 932 b 266 501 352 932 266 743 "},"Ò":{"ha":1137,"x_min":0,"x_max":0,"o":"m 381 1241 l 381 1246 l 563 1246 l 658 1054 l 600 1054 m 66 489 b 569 998 66 772 264 998 b 1071 490 831 998 1071 804 b 568 -18 1071 207 872 -18 b 66 489 305 -18 66 176 m 266 501 b 576 47 266 250 384 47 b 871 479 785 47 871 237 b 561 932 871 730 753 932 b 266 501 352 932 266 743 "},"Ő":{"ha":1137,"x_min":0,"x_max":0,"o":"m 620 1246 l 620 1241 l 491 1054 l 433 1054 l 478 1246 m 869 1246 l 869 1241 l 680 1054 l 617 1054 l 716 1246 m 66 489 b 569 998 66 772 264 998 b 1071 490 831 998 1071 804 b 568 -18 1071 207 872 -18 b 66 489 305 -18 66 176 m 266 501 b 576 47 266 250 384 47 b 871 479 785 47 871 237 b 561 932 871 730 753 932 b 266 501 352 932 266 743 "},"Ȍ":{"ha":1137,"x_min":0,"x_max":0,"o":"m 529 1053 l 467 1053 l 278 1241 l 278 1246 l 431 1246 m 713 1053 l 655 1053 l 527 1241 l 527 1246 l 668 1246 m 66 489 b 569 998 66 772 264 998 b 1071 490 831 998 1071 804 b 568 -18 1071 207 872 -18 b 66 489 305 -18 66 176 m 266 501 b 576 47 266 250 384 47 b 871 479 785 47 871 237 b 561 932 871 730 753 932 b 266 501 352 932 266 743 "},"Ô":{"ha":1137,"x_min":0,"x_max":0,"o":"m 377 1054 l 519 1246 l 625 1246 l 768 1054 l 709 1054 l 572 1153 l 433 1054 m 66 489 b 569 998 66 772 264 998 b 1071 490 831 998 1071 804 b 568 -18 1071 207 872 -18 b 66 489 305 -18 66 176 m 266 501 b 576 47 266 250 384 47 b 871 479 785 47 871 237 b 561 932 871 730 753 932 b 266 501 352 932 266 743 "},"Ố":{"ha":1137,"x_min":0,"x_max":0,"o":"m 372 1185 l 372 1226 l 757 1326 l 757 1238 m 372 1055 l 547 1160 l 581 1160 l 757 1055 l 757 1013 l 564 1074 l 372 1013 m 66 489 b 569 998 66 772 264 998 b 1071 490 831 998 1071 804 b 568 -18 1071 207 872 -18 b 66 489 305 -18 66 176 m 266 501 b 576 47 266 250 384 47 b 871 479 785 47 871 237 b 561 932 871 730 753 932 b 266 501 352 932 266 743 "},"Ồ":{"ha":1137,"x_min":0,"x_max":0,"o":"m 372 1326 l 757 1226 l 757 1185 l 372 1238 m 372 1055 l 547 1160 l 581 1160 l 757 1055 l 757 1013 l 564 1074 l 372 1013 m 66 489 b 569 998 66 772 264 998 b 1071 490 831 998 1071 804 b 568 -18 1071 207 872 -18 b 66 489 305 -18 66 176 m 266 501 b 576 47 266 250 384 47 b 871 479 785 47 871 237 b 561 932 871 730 753 932 b 266 501 352 932 266 743 "},"Ỗ":{"ha":1137,"x_min":0,"x_max":0,"o":"m 646 1202 b 556 1218 614 1202 585 1208 l 534 1225 b 471 1238 508 1234 489 1238 b 423 1195 442 1238 424 1225 l 372 1195 b 483 1309 371 1272 419 1309 b 573 1293 515 1309 543 1303 l 594 1286 b 657 1273 621 1277 640 1273 b 705 1316 686 1273 705 1285 l 757 1316 b 646 1202 758 1240 710 1202 m 372 1055 l 547 1160 l 581 1160 l 757 1055 l 757 1013 l 564 1074 l 372 1013 m 66 489 b 569 998 66 772 264 998 b 1071 490 831 998 1071 804 b 568 -18 1071 207 872 -18 b 66 489 305 -18 66 176 m 266 501 b 576 47 266 250 384 47 b 871 479 785 47 871 237 b 561 932 871 730 753 932 b 266 501 352 932 266 743 "},"Ổ":{"ha":1137,"x_min":0,"x_max":0,"o":"m 724 1307 b 847 1230 789 1307 847 1280 b 722 1138 847 1181 800 1156 l 682 1164 b 753 1214 730 1175 753 1191 b 687 1252 753 1237 728 1252 b 609 1235 656 1252 625 1244 l 609 1269 b 724 1307 632 1288 674 1307 m 372 1055 l 547 1160 l 581 1160 l 757 1055 l 757 1013 l 564 1074 l 372 1013 m 66 489 b 569 998 66 772 264 998 b 1071 490 831 998 1071 804 b 568 -18 1071 207 872 -18 b 66 489 305 -18 66 176 m 266 501 b 576 47 266 250 384 47 b 871 479 785 47 871 237 b 561 932 871 730 753 932 b 266 501 352 932 266 743 "},"Ộ":{"ha":1137,"x_min":0,"x_max":0,"o":"m 377 1054 l 519 1246 l 625 1246 l 768 1054 l 709 1054 l 572 1153 l 433 1054 m 66 489 b 569 998 66 772 264 998 b 1071 490 831 998 1071 804 b 568 -18 1071 207 872 -18 b 66 489 305 -18 66 176 m 266 501 b 576 47 266 250 384 47 b 871 479 785 47 871 237 b 561 932 871 730 753 932 b 266 501 352 932 266 743 m 573 -125 b 651 -200 616 -125 651 -157 b 573 -276 651 -243 616 -276 b 494 -200 529 -276 494 -243 b 573 -125 494 -157 529 -125 "},"Ǒ":{"ha":1137,"x_min":0,"x_max":0,"o":"m 766 1251 l 624 1058 l 518 1058 l 376 1251 l 434 1251 l 572 1152 l 710 1251 m 66 489 b 569 998 66 772 264 998 b 1071 490 831 998 1071 804 b 568 -18 1071 207 872 -18 b 66 489 305 -18 66 176 m 266 501 b 576 47 266 250 384 47 b 871 479 785 47 871 237 b 561 932 871 730 753 932 b 266 501 352 932 266 743 "},"Ŏ":{"ha":1137,"x_min":0,"x_max":0,"o":"m 564 1078 b 379 1251 446 1078 379 1162 b 382 1283 379 1262 380 1273 l 430 1283 l 430 1278 b 564 1173 430 1219 481 1173 b 698 1278 646 1173 698 1218 l 698 1283 l 746 1283 b 749 1251 748 1273 749 1262 b 564 1078 749 1162 683 1078 m 66 489 b 569 998 66 772 264 998 b 1071 490 831 998 1071 804 b 568 -18 1071 207 872 -18 b 66 489 305 -18 66 176 m 266 501 b 576 47 266 250 384 47 b 871 479 785 47 871 237 b 561 932 871 730 753 932 b 266 501 352 932 266 743 "},"Ȏ":{"ha":1137,"x_min":0,"x_max":0,"o":"m 564 1283 b 749 1110 682 1283 749 1198 b 746 1078 749 1099 748 1088 l 698 1078 l 698 1082 b 564 1188 698 1142 646 1188 b 430 1082 481 1188 430 1142 l 430 1078 l 382 1078 b 379 1110 380 1088 379 1099 b 564 1283 379 1198 445 1283 m 66 489 b 569 998 66 772 264 998 b 1071 490 831 998 1071 804 b 568 -18 1071 207 872 -18 b 66 489 305 -18 66 176 m 266 501 b 576 47 266 250 384 47 b 871 479 785 47 871 237 b 561 932 871 730 753 932 b 266 501 352 932 266 743 "},"Ö":{"ha":1137,"x_min":0,"x_max":0,"o":"m 449 1076 b 373 1150 407 1076 373 1108 b 449 1225 373 1192 407 1225 b 526 1150 492 1225 526 1192 b 449 1076 526 1108 492 1076 m 680 1076 b 604 1150 637 1076 604 1108 b 680 1225 604 1192 637 1225 b 755 1150 722 1225 755 1192 b 680 1076 755 1108 722 1076 m 66 489 b 569 998 66 772 264 998 b 1071 490 831 998 1071 804 b 568 -18 1071 207 872 -18 b 66 489 305 -18 66 176 m 266 501 b 576 47 266 250 384 47 b 871 479 785 47 871 237 b 561 932 871 730 753 932 b 266 501 352 932 266 743 "},"Ȫ":{"ha":1137,"x_min":0,"x_max":0,"o":"m 371 1303 l 757 1303 l 757 1236 l 371 1236 m 454 1054 b 391 1108 418 1054 391 1077 b 454 1162 391 1139 418 1162 l 460 1162 b 522 1108 495 1162 522 1139 b 460 1054 522 1077 495 1054 m 668 1054 b 606 1108 633 1054 606 1077 b 668 1162 606 1139 633 1162 l 675 1162 b 736 1108 710 1162 736 1139 b 675 1054 736 1077 710 1054 m 66 489 b 569 998 66 772 264 998 b 1071 490 831 998 1071 804 b 568 -18 1071 207 872 -18 b 66 489 305 -18 66 176 m 266 501 b 576 47 266 250 384 47 b 871 479 785 47 871 237 b 561 932 871 730 753 932 b 266 501 352 932 266 743 "},"Õ":{"ha":1137,"x_min":0,"x_max":0,"o":"m 644 1063 b 543 1103 606 1063 577 1079 l 524 1118 b 467 1142 502 1133 486 1142 b 422 1059 440 1142 425 1121 l 370 1059 b 484 1238 368 1189 420 1238 b 585 1198 523 1238 551 1221 l 606 1183 b 662 1159 627 1168 643 1159 b 707 1241 689 1159 704 1179 l 759 1241 b 644 1063 761 1112 709 1063 m 66 489 b 569 998 66 772 264 998 b 1071 490 831 998 1071 804 b 568 -18 1071 207 872 -18 b 66 489 305 -18 66 176 m 266 501 b 576 47 266 250 384 47 b 871 479 785 47 871 237 b 561 932 871 730 753 932 b 266 501 352 932 266 743 "},"Ṍ":{"ha":1137,"x_min":0,"x_max":0,"o":"m 372 1199 l 372 1240 l 757 1340 l 757 1252 m 646 1055 b 556 1072 614 1055 585 1062 l 534 1078 b 471 1091 508 1087 489 1091 b 423 1048 442 1091 424 1079 l 372 1048 b 483 1162 371 1125 419 1162 b 573 1146 515 1162 543 1156 l 594 1139 b 657 1126 621 1131 640 1126 b 705 1169 686 1126 705 1139 l 757 1169 b 646 1055 758 1093 710 1055 m 66 489 b 569 998 66 772 264 998 b 1071 490 831 998 1071 804 b 568 -18 1071 207 872 -18 b 66 489 305 -18 66 176 m 266 501 b 576 47 266 250 384 47 b 871 479 785 47 871 237 b 561 932 871 730 753 932 b 266 501 352 932 266 743 "},"Ṏ":{"ha":1137,"x_min":0,"x_max":0,"o":"m 454 1215 b 391 1270 418 1215 391 1238 b 454 1324 391 1301 418 1324 l 460 1324 b 522 1270 495 1324 522 1301 b 460 1215 522 1238 495 1215 m 668 1215 b 606 1270 633 1215 606 1238 b 668 1324 606 1301 633 1324 l 675 1324 b 736 1270 710 1324 736 1301 b 675 1215 736 1238 710 1215 m 646 1055 b 556 1072 614 1055 585 1062 l 534 1078 b 471 1091 508 1087 489 1091 b 423 1048 442 1091 424 1079 l 372 1048 b 483 1162 371 1125 419 1162 b 573 1146 515 1162 543 1156 l 594 1139 b 657 1126 621 1131 640 1126 b 705 1169 686 1126 705 1139 l 757 1169 b 646 1055 758 1093 710 1055 m 66 489 b 569 998 66 772 264 998 b 1071 490 831 998 1071 804 b 568 -18 1071 207 872 -18 b 66 489 305 -18 66 176 m 266 501 b 576 47 266 250 384 47 b 871 479 785 47 871 237 b 561 932 871 730 753 932 b 266 501 352 932 266 743 "},"Ȭ":{"ha":1137,"x_min":0,"x_max":0,"o":"m 371 1303 l 757 1303 l 757 1236 l 371 1236 m 646 1055 b 556 1072 614 1055 585 1062 l 534 1078 b 471 1091 508 1087 489 1091 b 423 1048 442 1091 424 1079 l 372 1048 b 483 1162 371 1125 419 1162 b 573 1146 515 1162 543 1156 l 594 1139 b 657 1126 621 1131 640 1126 b 705 1169 686 1126 705 1139 l 757 1169 b 646 1055 758 1093 710 1055 m 66 489 b 569 998 66 772 264 998 b 1071 490 831 998 1071 804 b 568 -18 1071 207 872 -18 b 66 489 305 -18 66 176 m 266 501 b 576 47 266 250 384 47 b 871 479 785 47 871 237 b 561 932 871 730 753 932 b 266 501 352 932 266 743 "},"Ō":{"ha":1137,"x_min":0,"x_max":0,"o":"m 381 1180 l 747 1180 l 747 1094 l 381 1094 m 66 489 b 569 998 66 772 264 998 b 1071 490 831 998 1071 804 b 568 -18 1071 207 872 -18 b 66 489 305 -18 66 176 m 266 501 b 576 47 266 250 384 47 b 871 479 785 47 871 237 b 561 932 871 730 753 932 b 266 501 352 932 266 743 "},"Ṓ":{"ha":1137,"x_min":0,"x_max":0,"o":"m 372 1199 l 372 1240 l 757 1340 l 757 1253 m 371 1143 l 757 1143 l 757 1075 l 371 1075 m 66 489 b 569 998 66 772 264 998 b 1071 490 831 998 1071 804 b 568 -18 1071 207 872 -18 b 66 489 305 -18 66 176 m 266 501 b 576 47 266 250 384 47 b 871 479 785 47 871 237 b 561 932 871 730 753 932 b 266 501 352 932 266 743 "},"Ṑ":{"ha":1137,"x_min":0,"x_max":0,"o":"m 372 1340 l 757 1240 l 757 1199 l 372 1253 m 371 1143 l 757 1143 l 757 1075 l 371 1075 m 66 489 b 569 998 66 772 264 998 b 1071 490 831 998 1071 804 b 568 -18 1071 207 872 -18 b 66 489 305 -18 66 176 m 266 501 b 576 47 266 250 384 47 b 871 479 785 47 871 237 b 561 932 871 730 753 932 b 266 501 352 932 266 743 "},"Ỏ":{"ha":1137,"x_min":0,"x_max":0,"o":"m 582 1278 b 703 1189 655 1278 703 1241 b 562 1061 703 1141 665 1103 l 512 1061 b 599 1159 570 1099 599 1127 b 529 1208 599 1189 572 1208 b 445 1182 494 1208 463 1196 l 445 1218 b 582 1278 469 1249 517 1278 m 66 489 b 569 998 66 772 264 998 b 1071 490 831 998 1071 804 b 568 -18 1071 207 872 -18 b 66 489 305 -18 66 176 m 266 501 b 576 47 266 250 384 47 b 871 479 785 47 871 237 b 561 932 871 730 753 932 b 266 501 352 932 266 743 "},"Ȯ":{"ha":1137,"x_min":0,"x_max":0,"o":"m 564 1075 b 486 1150 521 1075 486 1107 b 564 1225 486 1193 521 1225 b 642 1150 608 1225 642 1193 b 564 1075 642 1107 608 1075 m 66 489 b 569 998 66 772 264 998 b 1071 490 831 998 1071 804 b 568 -18 1071 207 872 -18 b 66 489 305 -18 66 176 m 266 501 b 576 47 266 250 384 47 b 871 479 785 47 871 237 b 561 932 871 730 753 932 b 266 501 352 932 266 743 "},"Ȱ":{"ha":1137,"x_min":0,"x_max":0,"o":"m 371 1287 l 757 1287 l 757 1220 l 371 1220 m 564 1049 b 496 1109 526 1049 496 1075 b 564 1168 496 1142 526 1168 b 632 1109 602 1168 632 1142 b 564 1049 632 1075 602 1049 m 66 489 b 569 998 66 772 264 998 b 1071 490 831 998 1071 804 b 568 -18 1071 207 872 -18 b 66 489 305 -18 66 176 m 266 501 b 576 47 266 250 384 47 b 871 479 785 47 871 237 b 561 932 871 730 753 932 b 266 501 352 932 266 743 "},"Ọ":{"ha":1137,"x_min":0,"x_max":0,"o":"m 66 489 b 569 998 66 772 264 998 b 1071 490 831 998 1071 804 b 568 -18 1071 207 872 -18 b 66 489 305 -18 66 176 m 266 501 b 576 47 266 250 384 47 b 871 479 785 47 871 237 b 561 932 871 730 753 932 b 266 501 352 932 266 743 m 573 -125 b 651 -200 616 -125 651 -157 b 573 -276 651 -243 616 -276 b 494 -200 529 -276 494 -243 b 573 -125 494 -157 529 -125 "},"Ǫ":{"ha":1137,"x_min":0,"x_max":0,"o":"m 66 489 b 569 998 66 772 264 998 b 1071 490 831 998 1071 804 b 603 -18 1071 218 888 -1 b 575 -123 585 -44 575 -83 b 664 -245 575 -194 613 -245 b 719 -225 687 -245 707 -236 l 719 -271 b 589 -330 696 -305 646 -330 b 448 -198 509 -330 448 -279 b 548 -18 448 -134 488 -69 b 66 489 293 -9 66 184 m 266 501 b 576 47 266 250 384 47 b 871 479 785 47 871 237 b 561 932 871 730 753 932 b 266 501 352 932 266 743 "},"Ǭ":{"ha":1137,"x_min":0,"x_max":0,"o":"m 381 1180 l 747 1180 l 747 1094 l 381 1094 m 66 489 b 569 998 66 772 264 998 b 1071 490 831 998 1071 804 b 603 -18 1071 218 888 -1 b 575 -123 585 -44 575 -83 b 664 -245 575 -194 613 -245 b 719 -225 687 -245 707 -236 l 719 -271 b 589 -330 696 -305 646 -330 b 448 -198 509 -330 448 -279 b 548 -18 448 -134 488 -69 b 66 489 293 -9 66 184 m 266 501 b 576 47 266 250 384 47 b 871 479 785 47 871 237 b 561 932 871 730 753 932 b 266 501 352 932 266 743 "},"Ơ":{"ha":1146,"x_min":0,"x_max":0,"o":"m 66 489 b 569 998 66 772 264 998 b 788 981 657 998 725 981 b 941 1124 890 981 941 1039 b 917 1216 941 1158 930 1198 l 963 1216 b 1065 1062 1021 1183 1065 1124 b 865 935 1064 975 983 935 b 807 940 844 935 825 937 b 1071 490 962 859 1071 699 b 568 -18 1071 207 872 -18 b 66 489 305 -18 66 176 m 266 501 b 576 47 266 250 384 47 b 871 479 785 47 871 237 b 561 932 871 730 753 932 b 266 501 352 932 266 743 "},"Ớ":{"ha":1146,"x_min":0,"x_max":0,"o":"m 486 1054 l 587 1246 l 761 1246 l 761 1241 l 544 1054 m 66 489 b 569 998 66 772 264 998 b 788 981 657 998 725 981 b 941 1124 890 981 941 1039 b 917 1216 941 1158 930 1198 l 963 1216 b 1065 1062 1021 1183 1065 1124 b 865 935 1064 975 983 935 b 807 940 844 935 825 937 b 1071 490 962 859 1071 699 b 568 -18 1071 207 872 -18 b 66 489 305 -18 66 176 m 266 501 b 576 47 266 250 384 47 b 871 479 785 47 871 237 b 561 932 871 730 753 932 b 266 501 352 932 266 743 "},"Ờ":{"ha":1146,"x_min":0,"x_max":0,"o":"m 383 1241 l 383 1246 l 564 1246 l 659 1054 l 602 1054 m 66 489 b 569 998 66 772 264 998 b 788 981 657 998 725 981 b 941 1124 890 981 941 1039 b 917 1216 941 1158 930 1198 l 963 1216 b 1065 1062 1021 1183 1065 1124 b 865 935 1064 975 983 935 b 807 940 844 935 825 937 b 1071 490 962 859 1071 699 b 568 -18 1071 207 872 -18 b 66 489 305 -18 66 176 m 266 501 b 576 47 266 250 384 47 b 871 479 785 47 871 237 b 561 932 871 730 753 932 b 266 501 352 932 266 743 "},"Ỡ":{"ha":1146,"x_min":0,"x_max":0,"o":"m 646 1063 b 545 1103 607 1063 578 1079 l 525 1118 b 469 1142 503 1133 488 1142 b 424 1059 441 1142 426 1121 l 371 1059 b 486 1238 369 1189 421 1238 b 587 1198 524 1238 553 1221 l 607 1183 b 663 1159 629 1168 644 1159 b 708 1241 690 1159 705 1179 l 760 1241 b 646 1063 763 1112 711 1063 m 66 489 b 569 998 66 772 264 998 b 788 981 657 998 725 981 b 941 1124 890 981 941 1039 b 917 1216 941 1158 930 1198 l 963 1216 b 1065 1062 1021 1183 1065 1124 b 865 935 1064 975 983 935 b 807 940 844 935 825 937 b 1071 490 962 859 1071 699 b 568 -18 1071 207 872 -18 b 66 489 305 -18 66 176 m 266 501 b 576 47 266 250 384 47 b 871 479 785 47 871 237 b 561 932 871 730 753 932 b 266 501 352 932 266 743 "},"Ở":{"ha":1146,"x_min":0,"x_max":0,"o":"m 583 1278 b 705 1189 656 1278 705 1241 b 563 1061 705 1141 667 1103 l 514 1061 b 600 1159 571 1099 600 1127 b 530 1208 600 1189 574 1208 b 446 1182 495 1208 465 1196 l 446 1218 b 583 1278 471 1249 518 1278 m 66 489 b 569 998 66 772 264 998 b 788 981 657 998 725 981 b 941 1124 890 981 941 1039 b 917 1216 941 1158 930 1198 l 963 1216 b 1065 1062 1021 1183 1065 1124 b 865 935 1064 975 983 935 b 807 940 844 935 825 937 b 1071 490 962 859 1071 699 b 568 -18 1071 207 872 -18 b 66 489 305 -18 66 176 m 266 501 b 576 47 266 250 384 47 b 871 479 785 47 871 237 b 561 932 871 730 753 932 b 266 501 352 932 266 743 "},"Ợ":{"ha":1146,"x_min":0,"x_max":0,"o":"m 66 489 b 569 998 66 772 264 998 b 788 981 657 998 725 981 b 941 1124 890 981 941 1039 b 917 1216 941 1158 930 1198 l 963 1216 b 1065 1062 1021 1183 1065 1124 b 865 935 1064 975 983 935 b 807 940 844 935 825 937 b 1071 490 962 859 1071 699 b 568 -18 1071 207 872 -18 b 66 489 305 -18 66 176 m 266 501 b 576 47 266 250 384 47 b 871 479 785 47 871 237 b 561 932 871 730 753 932 b 266 501 352 932 266 743 m 569 -125 b 648 -200 612 -125 648 -157 b 569 -276 648 -243 612 -276 b 491 -200 526 -276 491 -243 b 569 -125 491 -157 526 -125 "},"Ø":{"ha":1137,"x_min":0,"x_max":0,"o":"m 66 489 b 569 998 66 772 264 998 b 886 890 686 998 798 960 l 973 987 l 1017 947 l 930 850 b 1071 490 1016 763 1071 640 b 568 -18 1071 207 872 -18 b 251 90 451 -18 339 20 l 163 -8 l 119 33 l 207 130 b 66 489 121 217 66 339 m 266 501 b 313 248 266 408 282 321 l 795 788 b 561 932 742 877 661 932 b 266 501 352 932 266 743 m 871 479 b 824 731 871 572 854 659 l 342 191 b 576 47 395 102 475 47 b 871 479 785 47 871 237 "},"Ǿ":{"ha":1137,"x_min":0,"x_max":0,"o":"m 485 1054 l 585 1246 l 760 1246 l 760 1241 l 543 1054 m 66 489 b 569 998 66 772 264 998 b 886 890 686 998 798 960 l 973 987 l 1017 947 l 930 850 b 1071 490 1016 763 1071 640 b 568 -18 1071 207 872 -18 b 251 90 451 -18 339 20 l 163 -8 l 119 33 l 207 130 b 66 489 121 217 66 339 m 266 501 b 313 248 266 408 282 321 l 795 788 b 561 932 742 877 661 932 b 266 501 352 932 266 743 m 871 479 b 824 731 871 572 854 659 l 342 191 b 576 47 395 102 475 47 b 871 479 785 47 871 237 "},"P":{"ha":905,"x_min":0,"x_max":0,"o":"m 853 691 b 435 384 853 489 677 384 l 329 384 l 329 141 b 446 46 329 75 343 58 l 446 0 l 42 0 l 42 46 b 150 132 138 58 150 71 l 150 848 b 42 933 150 908 138 922 l 42 979 l 435 979 b 853 691 696 979 853 882 m 662 680 b 388 923 662 825 574 916 l 329 926 l 329 437 l 388 439 b 662 680 572 448 662 532 "},"Ṕ":{"ha":905,"x_min":0,"x_max":0,"o":"m 354 1054 l 454 1246 l 629 1246 l 629 1241 l 412 1054 m 853 691 b 435 384 853 489 677 384 l 329 384 l 329 141 b 446 46 329 75 343 58 l 446 0 l 42 0 l 42 46 b 150 132 138 58 150 71 l 150 848 b 42 933 150 908 138 922 l 42 979 l 435 979 b 853 691 696 979 853 882 m 662 680 b 388 923 662 825 574 916 l 329 926 l 329 437 l 388 439 b 662 680 572 448 662 532 "},"Ṗ":{"ha":905,"x_min":0,"x_max":0,"o":"m 433 1075 b 355 1150 389 1075 355 1107 b 433 1225 355 1193 390 1225 b 511 1150 477 1225 511 1193 b 433 1075 511 1107 477 1075 m 853 691 b 435 384 853 489 677 384 l 329 384 l 329 141 b 446 46 329 75 343 58 l 446 0 l 42 0 l 42 46 b 150 132 138 58 150 71 l 150 848 b 42 933 150 908 138 922 l 42 979 l 435 979 b 853 691 696 979 853 882 m 662 680 b 388 923 662 825 574 916 l 329 926 l 329 437 l 388 439 b 662 680 572 448 662 532 "},"Q":{"ha":1137,"x_min":0,"x_max":0,"o":"m 66 489 b 570 998 66 772 264 998 b 1071 490 832 998 1071 804 b 734 7 1071 263 943 73 l 814 -56 b 1075 -156 919 -139 994 -166 l 1075 -199 b 906 -248 1031 -230 970 -248 b 634 -114 818 -248 753 -217 l 521 -16 b 66 489 277 5 66 195 m 266 501 b 576 47 266 250 384 47 b 871 479 785 47 870 237 b 560 932 871 730 752 932 b 266 501 352 932 266 743 "},"R":{"ha":940,"x_min":0,"x_max":0,"o":"m 840 716 b 642 482 840 595 755 510 l 774 228 b 926 43 854 79 885 54 l 926 0 l 707 0 l 480 439 l 329 439 l 329 128 b 431 46 329 71 342 58 l 431 0 l 42 0 l 42 46 b 150 132 138 58 150 72 l 150 848 b 42 933 150 909 138 922 l 42 979 l 447 979 b 840 716 708 979 840 878 m 659 703 b 403 923 659 834 580 917 l 329 926 l 329 492 l 418 495 b 659 703 571 499 659 569 "},"Ŕ":{"ha":940,"x_min":0,"x_max":0,"o":"m 365 1054 l 465 1246 l 640 1246 l 640 1241 l 422 1054 m 840 716 b 642 482 840 595 755 510 l 774 228 b 926 43 854 79 885 54 l 926 0 l 707 0 l 480 439 l 329 439 l 329 128 b 431 46 329 71 342 58 l 431 0 l 42 0 l 42 46 b 150 132 138 58 150 72 l 150 848 b 42 933 150 909 138 922 l 42 979 l 447 979 b 840 716 708 979 840 878 m 659 703 b 403 923 659 834 580 917 l 329 926 l 329 492 l 418 495 b 659 703 571 499 659 569 "},"Ȑ":{"ha":940,"x_min":0,"x_max":0,"o":"m 409 1053 l 347 1053 l 158 1241 l 158 1246 l 311 1246 m 594 1053 l 535 1053 l 407 1241 l 407 1246 l 548 1246 m 840 716 b 642 482 840 595 755 510 l 774 228 b 926 43 854 79 885 54 l 926 0 l 707 0 l 480 439 l 329 439 l 329 128 b 431 46 329 71 342 58 l 431 0 l 42 0 l 42 46 b 150 132 138 58 150 72 l 150 848 b 42 933 150 909 138 922 l 42 979 l 447 979 b 840 716 708 979 840 878 m 659 703 b 403 923 659 834 580 917 l 329 926 l 329 492 l 418 495 b 659 703 571 499 659 569 "},"Ř":{"ha":940,"x_min":0,"x_max":0,"o":"m 646 1251 l 504 1058 l 399 1058 l 256 1251 l 315 1251 l 452 1152 l 591 1251 m 840 716 b 642 482 840 595 755 510 l 774 228 b 926 43 854 79 885 54 l 926 0 l 707 0 l 480 439 l 329 439 l 329 128 b 431 46 329 71 342 58 l 431 0 l 42 0 l 42 46 b 150 132 138 58 150 72 l 150 848 b 42 933 150 909 138 922 l 42 979 l 447 979 b 840 716 708 979 840 878 m 659 703 b 403 923 659 834 580 917 l 329 926 l 329 492 l 418 495 b 659 703 571 499 659 569 "},"Ȓ":{"ha":940,"x_min":0,"x_max":0,"o":"m 444 1283 b 629 1110 562 1283 629 1198 b 627 1078 629 1099 628 1088 l 578 1078 l 578 1082 b 444 1188 578 1142 526 1188 b 311 1082 361 1188 311 1142 l 311 1078 l 262 1078 b 259 1110 260 1088 259 1099 b 444 1283 259 1198 325 1283 m 840 716 b 642 482 840 595 755 510 l 774 228 b 926 43 854 79 885 54 l 926 0 l 707 0 l 480 439 l 329 439 l 329 128 b 431 46 329 71 342 58 l 431 0 l 42 0 l 42 46 b 150 132 138 58 150 72 l 150 848 b 42 933 150 909 138 922 l 42 979 l 447 979 b 840 716 708 979 840 878 m 659 703 b 403 923 659 834 580 917 l 329 926 l 329 492 l 418 495 b 659 703 571 499 659 569 "},"Ṟ":{"ha":940,"x_min":0,"x_max":0,"o":"m 840 716 b 642 482 840 595 755 510 l 774 228 b 926 43 854 79 885 54 l 926 0 l 707 0 l 480 439 l 329 439 l 329 128 b 431 46 329 71 342 58 l 431 0 l 42 0 l 42 46 b 150 132 138 58 150 72 l 150 848 b 42 933 150 909 138 922 l 42 979 l 447 979 b 840 716 708 979 840 878 m 659 703 b 403 923 659 834 580 917 l 329 926 l 329 492 l 418 495 b 659 703 571 499 659 569 m 312 -156 l 690 -156 l 690 -243 l 312 -243 "},"Ṙ":{"ha":940,"x_min":0,"x_max":0,"o":"m 444 1075 b 366 1150 401 1075 366 1107 b 444 1225 366 1193 401 1225 b 522 1150 488 1225 522 1193 b 444 1075 522 1107 488 1075 m 840 716 b 642 482 840 595 755 510 l 774 228 b 926 43 854 79 885 54 l 926 0 l 707 0 l 480 439 l 329 439 l 329 128 b 431 46 329 71 342 58 l 431 0 l 42 0 l 42 46 b 150 132 138 58 150 72 l 150 848 b 42 933 150 909 138 922 l 42 979 l 447 979 b 840 716 708 979 840 878 m 659 703 b 403 923 659 834 580 917 l 329 926 l 329 492 l 418 495 b 659 703 571 499 659 569 "},"Ṛ":{"ha":940,"x_min":0,"x_max":0,"o":"m 840 716 b 642 482 840 595 755 510 l 774 228 b 926 43 854 79 885 54 l 926 0 l 707 0 l 480 439 l 329 439 l 329 128 b 431 46 329 71 342 58 l 431 0 l 42 0 l 42 46 b 150 132 138 58 150 72 l 150 848 b 42 933 150 909 138 922 l 42 979 l 447 979 b 840 716 708 979 840 878 m 659 703 b 403 923 659 834 580 917 l 329 926 l 329 492 l 418 495 b 659 703 571 499 659 569 m 500 -125 b 579 -200 545 -125 579 -157 b 500 -276 579 -243 544 -276 b 422 -200 457 -276 422 -243 b 500 -125 422 -157 457 -125 "},"Ṝ":{"ha":940,"x_min":0,"x_max":0,"o":"m 261 1180 l 627 1180 l 627 1094 l 261 1094 m 840 716 b 642 482 840 595 755 510 l 774 228 b 926 43 854 79 885 54 l 926 0 l 707 0 l 480 439 l 329 439 l 329 128 b 431 46 329 71 342 58 l 431 0 l 42 0 l 42 46 b 150 132 138 58 150 72 l 150 848 b 42 933 150 909 138 922 l 42 979 l 447 979 b 840 716 708 979 840 878 m 659 703 b 403 923 659 834 580 917 l 329 926 l 329 492 l 418 495 b 659 703 571 499 659 569 m 500 -125 b 579 -200 545 -125 579 -157 b 500 -276 579 -243 544 -276 b 422 -200 457 -276 422 -243 b 500 -125 422 -157 457 -125 "},"Ŗ":{"ha":940,"x_min":0,"x_max":0,"o":"m 840 716 b 642 482 840 595 755 510 l 774 228 b 926 43 854 79 885 54 l 926 0 l 707 0 l 480 439 l 329 439 l 329 128 b 431 46 329 71 342 58 l 431 0 l 42 0 l 42 46 b 150 132 138 58 150 72 l 150 848 b 42 933 150 909 138 922 l 42 979 l 447 979 b 840 716 708 979 840 878 m 659 703 b 403 923 659 834 580 917 l 329 926 l 329 492 l 418 495 b 659 703 571 499 659 569 m 492 -323 b 359 -279 434 -323 384 -303 l 359 -235 b 455 -260 382 -250 416 -260 b 532 -206 500 -260 532 -241 b 457 -153 532 -173 500 -154 b 399 -164 434 -153 411 -159 l 399 -123 b 514 -78 417 -99 460 -78 b 656 -199 597 -78 656 -125 b 492 -323 656 -274 591 -323 "},"S":{"ha":814,"x_min":0,"x_max":0,"o":"m 388 -18 b 75 62 252 -18 136 18 l 66 286 l 109 286 b 389 47 145 125 256 47 b 589 215 511 47 589 115 b 399 412 589 310 530 367 l 329 436 b 75 721 163 493 75 584 b 431 998 75 890 214 998 b 700 927 549 998 647 966 l 707 710 l 664 710 b 428 932 633 859 548 932 b 235 777 303 932 235 869 b 428 589 235 682 302 632 l 497 565 b 750 273 667 506 750 414 b 388 -18 750 94 589 -18 "},"Ś":{"ha":814,"x_min":0,"x_max":0,"o":"m 347 1054 l 448 1246 l 622 1246 l 622 1241 l 405 1054 m 388 -18 b 75 62 252 -18 136 18 l 66 286 l 109 286 b 389 47 145 125 256 47 b 589 215 511 47 589 115 b 399 412 589 310 530 367 l 329 436 b 75 721 163 493 75 584 b 431 998 75 890 214 998 b 700 927 549 998 647 966 l 707 710 l 664 710 b 428 932 633 859 548 932 b 235 777 303 932 235 869 b 428 589 235 682 302 632 l 497 565 b 750 273 667 506 750 414 b 388 -18 750 94 589 -18 "},"Ṥ":{"ha":814,"x_min":0,"x_max":0,"o":"m 427 1192 b 359 1251 389 1192 359 1217 b 427 1310 359 1284 389 1310 b 494 1251 465 1310 494 1284 b 427 1192 494 1217 465 1192 m 234 1044 l 234 1085 l 619 1185 l 619 1097 m 388 -18 b 75 62 252 -18 136 18 l 66 286 l 109 286 b 389 47 145 125 256 47 b 589 215 511 47 589 115 b 399 412 589 310 530 367 l 329 436 b 75 721 163 493 75 584 b 431 998 75 890 214 998 b 700 927 549 998 647 966 l 707 710 l 664 710 b 428 932 633 859 548 932 b 235 777 303 932 235 869 b 428 589 235 682 302 632 l 497 565 b 750 273 667 506 750 414 b 388 -18 750 94 589 -18 "},"Ŝ":{"ha":814,"x_min":0,"x_max":0,"o":"m 239 1054 l 382 1246 l 488 1246 l 630 1054 l 572 1054 l 435 1153 l 296 1054 m 388 -18 b 75 62 252 -18 136 18 l 66 286 l 109 286 b 389 47 145 125 256 47 b 589 215 511 47 589 115 b 399 412 589 310 530 367 l 329 436 b 75 721 163 493 75 584 b 431 998 75 890 214 998 b 700 927 549 998 647 966 l 707 710 l 664 710 b 428 932 633 859 548 932 b 235 777 303 932 235 869 b 428 589 235 682 302 632 l 497 565 b 750 273 667 506 750 414 b 388 -18 750 94 589 -18 "},"Š":{"ha":814,"x_min":0,"x_max":0,"o":"m 629 1251 l 486 1058 l 380 1058 l 238 1251 l 296 1251 l 434 1152 l 572 1251 m 388 -18 b 75 62 252 -18 136 18 l 66 286 l 109 286 b 389 47 145 125 256 47 b 589 215 511 47 589 115 b 399 412 589 310 530 367 l 329 436 b 75 721 163 493 75 584 b 431 998 75 890 214 998 b 700 927 549 998 647 966 l 707 710 l 664 710 b 428 932 633 859 548 932 b 235 777 303 932 235 869 b 428 589 235 682 302 632 l 497 565 b 750 273 667 506 750 414 b 388 -18 750 94 589 -18 "},"Ṧ":{"ha":814,"x_min":0,"x_max":0,"o":"m 427 1206 b 359 1265 389 1206 359 1231 b 427 1324 359 1298 389 1324 b 494 1265 465 1324 494 1298 b 427 1206 494 1231 465 1206 m 624 1152 l 444 1046 l 410 1046 l 229 1152 l 229 1193 l 427 1132 l 624 1193 m 388 -18 b 75 62 252 -18 136 18 l 66 286 l 109 286 b 389 47 145 125 256 47 b 589 215 511 47 589 115 b 399 412 589 310 530 367 l 329 436 b 75 721 163 493 75 584 b 431 998 75 890 214 998 b 700 927 549 998 647 966 l 707 710 l 664 710 b 428 932 633 859 548 932 b 235 777 303 932 235 869 b 428 589 235 682 302 632 l 497 565 b 750 273 667 506 750 414 b 388 -18 750 94 589 -18 "},"Ṡ":{"ha":814,"x_min":0,"x_max":0,"o":"m 427 1075 b 348 1150 383 1075 348 1107 b 427 1225 348 1193 383 1225 b 505 1150 470 1225 505 1193 b 427 1075 505 1107 470 1075 m 388 -18 b 75 62 252 -18 136 18 l 66 286 l 109 286 b 389 47 145 125 256 47 b 589 215 511 47 589 115 b 399 412 589 310 530 367 l 329 436 b 75 721 163 493 75 584 b 431 998 75 890 214 998 b 700 927 549 998 647 966 l 707 710 l 664 710 b 428 932 633 859 548 932 b 235 777 303 932 235 869 b 428 589 235 682 302 632 l 497 565 b 750 273 667 506 750 414 b 388 -18 750 94 589 -18 "},"Ṣ":{"ha":814,"x_min":0,"x_max":0,"o":"m 388 -18 b 75 62 252 -18 136 18 l 66 286 l 109 286 b 389 47 145 125 256 47 b 589 215 511 47 589 115 b 399 412 589 310 530 367 l 329 436 b 75 721 163 493 75 584 b 431 998 75 890 214 998 b 700 927 549 998 647 966 l 707 710 l 664 710 b 428 932 633 859 548 932 b 235 777 303 932 235 869 b 428 589 235 682 302 632 l 497 565 b 750 273 667 506 750 414 b 388 -18 750 94 589 -18 m 398 -125 b 476 -200 441 -125 476 -157 b 398 -276 476 -243 441 -276 b 319 -200 355 -276 319 -243 b 398 -125 319 -157 355 -125 "},"Ṩ":{"ha":814,"x_min":0,"x_max":0,"o":"m 427 1075 b 348 1150 383 1075 348 1107 b 427 1225 348 1193 383 1225 b 505 1150 470 1225 505 1193 b 427 1075 505 1107 470 1075 m 388 -18 b 75 62 252 -18 136 18 l 66 286 l 109 286 b 389 47 145 125 256 47 b 589 215 511 47 589 115 b 399 412 589 310 530 367 l 329 436 b 75 721 163 493 75 584 b 431 998 75 890 214 998 b 700 927 549 998 647 966 l 707 710 l 664 710 b 428 932 633 859 548 932 b 235 777 303 932 235 869 b 428 589 235 682 302 632 l 497 565 b 750 273 667 506 750 414 b 388 -18 750 94 589 -18 m 398 -125 b 476 -200 441 -125 476 -157 b 398 -276 476 -243 441 -276 b 319 -200 355 -276 319 -243 b 398 -125 319 -157 355 -125 "},"Ș":{"ha":814,"x_min":0,"x_max":0,"o":"m 388 -18 b 75 62 252 -18 136 18 l 66 286 l 109 286 b 389 47 145 125 256 47 b 589 215 511 47 589 115 b 399 412 589 310 530 367 l 329 436 b 75 721 163 493 75 584 b 431 998 75 890 214 998 b 700 927 549 998 647 966 l 707 710 l 664 710 b 428 932 633 859 548 932 b 235 777 303 932 235 869 b 428 589 235 682 302 632 l 497 565 b 750 273 667 506 750 414 b 388 -18 750 94 589 -18 m 389 -323 b 256 -279 331 -323 281 -303 l 256 -235 b 352 -260 279 -250 313 -260 b 430 -206 397 -260 430 -241 b 354 -153 430 -173 397 -154 b 296 -164 331 -153 308 -159 l 296 -123 b 411 -78 315 -99 357 -78 b 553 -199 494 -78 553 -125 b 389 -323 553 -274 488 -323 "},"Ş":{"ha":814,"x_min":0,"x_max":0,"o":"m 378 -322 b 241 -273 319 -322 269 -302 l 241 -227 b 333 -254 262 -243 297 -254 b 408 -200 375 -254 408 -235 b 325 -144 408 -163 372 -144 b 295 -148 313 -144 301 -145 l 295 -108 l 365 -18 b 75 62 239 -14 133 20 l 66 286 l 109 286 b 389 47 145 125 256 47 b 589 215 511 47 589 115 b 399 412 589 310 530 367 l 329 436 b 75 721 163 493 75 584 b 431 998 75 890 214 998 b 700 927 549 998 647 966 l 707 710 l 664 710 b 428 932 633 859 548 932 b 235 777 303 932 235 869 b 428 589 235 682 302 632 l 497 565 b 750 273 667 506 750 414 b 425 -17 750 106 609 -4 l 379 -78 b 391 -77 383 -78 387 -77 b 540 -199 474 -78 540 -121 b 378 -322 540 -279 461 -322 "},"T":{"ha":924,"x_min":0,"x_max":0,"o":"m 892 730 l 848 730 b 590 924 819 886 768 916 l 551 926 l 551 141 b 669 46 551 75 566 58 l 669 0 l 256 0 l 256 46 b 372 141 358 58 372 75 l 372 926 l 334 924 b 76 730 156 916 105 886 l 33 730 l 41 979 l 883 979 "},"Ṱ":{"ha":924,"x_min":0,"x_max":0,"o":"m 892 730 l 848 730 b 590 924 819 886 768 916 l 551 926 l 551 141 b 669 46 551 75 566 58 l 669 0 l 256 0 l 256 46 b 372 141 358 58 372 75 l 372 926 l 334 924 b 76 730 156 916 105 886 l 33 730 l 41 979 l 883 979 m 267 -313 l 414 -87 l 509 -87 l 656 -313 l 600 -313 l 462 -193 l 321 -313 "},"Ť":{"ha":924,"x_min":0,"x_max":0,"o":"m 664 1251 l 522 1058 l 416 1058 l 273 1251 l 332 1251 l 469 1152 l 608 1251 m 892 730 l 848 730 b 590 924 819 886 768 916 l 551 926 l 551 141 b 669 46 551 75 566 58 l 669 0 l 256 0 l 256 46 b 372 141 358 58 372 75 l 372 926 l 334 924 b 76 730 156 916 105 886 l 33 730 l 41 979 l 883 979 "},"Ṯ":{"ha":924,"x_min":0,"x_max":0,"o":"m 892 730 l 848 730 b 590 924 819 886 768 916 l 551 926 l 551 141 b 669 46 551 75 566 58 l 669 0 l 256 0 l 256 46 b 372 141 358 58 372 75 l 372 926 l 334 924 b 76 730 156 916 105 886 l 33 730 l 41 979 l 883 979 m 273 -156 l 650 -156 l 650 -243 l 273 -243 "},"Ṫ":{"ha":924,"x_min":0,"x_max":0,"o":"m 462 1075 b 384 1150 418 1075 384 1107 b 462 1225 384 1193 418 1225 b 540 1150 505 1225 540 1193 b 462 1075 540 1107 505 1075 m 892 730 l 848 730 b 590 924 819 886 768 916 l 551 926 l 551 141 b 669 46 551 75 566 58 l 669 0 l 256 0 l 256 46 b 372 141 358 58 372 75 l 372 926 l 334 924 b 76 730 156 916 105 886 l 33 730 l 41 979 l 883 979 "},"Ṭ":{"ha":924,"x_min":0,"x_max":0,"o":"m 892 730 l 848 730 b 590 924 819 886 768 916 l 551 926 l 551 141 b 669 46 551 75 566 58 l 669 0 l 256 0 l 256 46 b 372 141 358 58 372 75 l 372 926 l 334 924 b 76 730 156 916 105 886 l 33 730 l 41 979 l 883 979 m 462 -125 b 540 -200 505 -125 540 -157 b 462 -276 540 -243 505 -276 b 384 -200 418 -276 384 -243 b 462 -125 384 -157 418 -125 "},"Ț":{"ha":924,"x_min":0,"x_max":0,"o":"m 892 730 l 848 730 b 590 924 819 886 768 916 l 551 926 l 551 141 b 669 46 551 75 566 58 l 669 0 l 256 0 l 256 46 b 372 141 358 58 372 75 l 372 926 l 334 924 b 76 730 156 916 105 886 l 33 730 l 41 979 l 883 979 m 453 -323 b 321 -279 395 -323 345 -303 l 321 -235 b 416 -260 343 -250 378 -260 b 494 -206 461 -260 494 -241 b 418 -153 494 -173 461 -154 b 360 -164 395 -153 372 -159 l 360 -123 b 475 -78 378 -99 421 -78 b 618 -199 559 -78 618 -125 b 453 -323 618 -274 552 -323 "},"Ţ":{"ha":924,"x_min":0,"x_max":0,"o":"m 443 -322 b 305 -273 383 -322 333 -302 l 305 -227 b 397 -254 326 -243 361 -254 b 471 -200 439 -254 471 -235 b 389 -144 471 -163 436 -144 b 359 -148 377 -144 365 -145 l 359 -108 l 441 0 l 256 0 l 256 46 b 372 141 358 58 372 75 l 372 926 l 334 924 b 76 730 156 916 105 886 l 33 730 l 41 979 l 883 979 l 892 730 l 848 730 b 590 924 819 886 768 916 l 551 926 l 551 141 b 669 46 551 75 566 58 l 669 0 l 500 0 l 443 -78 b 456 -77 447 -78 451 -77 b 604 -199 538 -78 604 -121 b 443 -322 604 -279 526 -322 "},"Ŧ":{"ha":924,"x_min":0,"x_max":0,"o":"m 180 530 l 372 530 l 372 926 l 334 924 b 76 730 156 916 105 886 l 33 730 l 41 979 l 883 979 l 892 730 l 848 730 b 590 924 819 886 768 916 l 551 926 l 551 530 l 744 530 l 744 473 l 551 473 l 551 140 b 669 46 551 75 566 58 l 669 0 l 256 0 l 256 46 b 372 140 358 58 372 75 l 372 473 l 180 473 "},"U":{"ha":1042,"x_min":0,"x_max":0,"o":"m 125 851 b 24 933 125 909 112 922 l 24 979 l 413 979 l 413 933 b 305 848 317 922 305 908 l 305 378 b 576 75 305 175 420 75 b 844 385 741 75 846 183 l 840 818 b 729 933 839 903 827 921 l 729 979 l 1022 979 l 1022 932 b 918 819 932 922 919 903 l 913 372 b 519 -18 911 134 765 -18 b 125 368 314 -18 125 102 l 125 851 "},"Ú":{"ha":1042,"x_min":0,"x_max":0,"o":"m 484 1054 l 583 1246 l 758 1246 l 758 1241 l 541 1054 m 125 851 b 24 933 125 909 112 922 l 24 979 l 413 979 l 413 933 b 305 848 317 922 305 908 l 305 378 b 576 75 305 175 420 75 b 844 385 741 75 846 183 l 840 818 b 729 933 839 903 827 921 l 729 979 l 1022 979 l 1022 932 b 918 819 932 922 919 903 l 913 372 b 519 -18 911 134 765 -18 b 125 368 314 -18 125 102 l 125 851 "},"Ù":{"ha":1042,"x_min":0,"x_max":0,"o":"m 380 1241 l 380 1246 l 561 1246 l 656 1054 l 599 1054 m 125 851 b 24 933 125 909 112 922 l 24 979 l 413 979 l 413 933 b 305 848 317 922 305 908 l 305 378 b 576 75 305 175 420 75 b 844 385 741 75 846 183 l 840 818 b 729 933 839 903 827 921 l 729 979 l 1022 979 l 1022 932 b 918 819 932 922 919 903 l 913 372 b 519 -18 911 134 765 -18 b 125 368 314 -18 125 102 l 125 851 "},"Ű":{"ha":1042,"x_min":0,"x_max":0,"o":"m 618 1246 l 618 1241 l 490 1054 l 431 1054 l 477 1246 m 867 1246 l 867 1241 l 677 1054 l 616 1054 l 714 1246 m 125 851 b 24 933 125 909 112 922 l 24 979 l 413 979 l 413 933 b 305 848 317 922 305 908 l 305 378 b 576 75 305 175 420 75 b 844 385 741 75 846 183 l 840 818 b 729 933 839 903 827 921 l 729 979 l 1022 979 l 1022 932 b 918 819 932 922 919 903 l 913 372 b 519 -18 911 134 765 -18 b 125 368 314 -18 125 102 l 125 851 "},"Ȕ":{"ha":1042,"x_min":0,"x_max":0,"o":"m 528 1053 l 466 1053 l 277 1241 l 277 1246 l 429 1246 m 712 1053 l 654 1053 l 526 1241 l 526 1246 l 667 1246 m 125 851 b 24 933 125 909 112 922 l 24 979 l 413 979 l 413 933 b 305 848 317 922 305 908 l 305 378 b 576 75 305 175 420 75 b 844 385 741 75 846 183 l 840 818 b 729 933 839 903 827 921 l 729 979 l 1022 979 l 1022 932 b 918 819 932 922 919 903 l 913 372 b 519 -18 911 134 765 -18 b 125 368 314 -18 125 102 l 125 851 "},"Û":{"ha":1042,"x_min":0,"x_max":0,"o":"m 376 1054 l 518 1246 l 624 1246 l 766 1054 l 708 1054 l 571 1153 l 432 1054 m 125 851 b 24 933 125 909 112 922 l 24 979 l 413 979 l 413 933 b 305 848 317 922 305 908 l 305 378 b 576 75 305 175 420 75 b 844 385 741 75 846 183 l 840 818 b 729 933 839 903 827 921 l 729 979 l 1022 979 l 1022 932 b 918 819 932 922 919 903 l 913 372 b 519 -18 911 134 765 -18 b 125 368 314 -18 125 102 l 125 851 "},"Ṷ":{"ha":1042,"x_min":0,"x_max":0,"o":"m 125 851 b 24 933 125 909 112 922 l 24 979 l 413 979 l 413 933 b 305 848 317 922 305 908 l 305 378 b 576 75 305 175 420 75 b 844 385 741 75 846 183 l 840 818 b 729 933 839 903 827 921 l 729 979 l 1022 979 l 1022 932 b 918 819 932 922 919 903 l 913 372 b 519 -18 911 134 765 -18 b 125 368 314 -18 125 102 l 125 851 m 352 -313 l 499 -87 l 594 -87 l 741 -313 l 685 -313 l 547 -193 l 406 -313 "},"Ǔ":{"ha":1042,"x_min":0,"x_max":0,"o":"m 765 1251 l 623 1058 l 517 1058 l 374 1251 l 433 1251 l 570 1152 l 709 1251 m 125 851 b 24 933 125 909 112 922 l 24 979 l 413 979 l 413 933 b 305 848 317 922 305 908 l 305 378 b 576 75 305 175 420 75 b 844 385 741 75 846 183 l 840 818 b 729 933 839 903 827 921 l 729 979 l 1022 979 l 1022 932 b 918 819 932 922 919 903 l 913 372 b 519 -18 911 134 765 -18 b 125 368 314 -18 125 102 l 125 851 "},"Ŭ":{"ha":1042,"x_min":0,"x_max":0,"o":"m 563 1078 b 378 1251 444 1078 378 1162 b 380 1283 378 1262 378 1273 l 429 1283 l 429 1278 b 562 1173 429 1219 480 1173 b 696 1278 645 1173 696 1218 l 696 1283 l 745 1283 b 747 1251 747 1273 747 1262 b 563 1078 747 1162 682 1078 m 125 851 b 24 933 125 909 112 922 l 24 979 l 413 979 l 413 933 b 305 848 317 922 305 908 l 305 378 b 576 75 305 175 420 75 b 844 385 741 75 846 183 l 840 818 b 729 933 839 903 827 921 l 729 979 l 1022 979 l 1022 932 b 918 819 932 922 919 903 l 913 372 b 519 -18 911 134 765 -18 b 125 368 314 -18 125 102 l 125 851 "},"Ȗ":{"ha":1042,"x_min":0,"x_max":0,"o":"m 562 1283 b 747 1110 681 1283 747 1198 b 745 1078 747 1099 747 1088 l 696 1078 l 696 1082 b 562 1188 696 1142 645 1188 b 429 1082 480 1188 429 1142 l 429 1078 l 380 1078 b 378 1110 378 1088 378 1099 b 562 1283 378 1198 444 1283 m 125 851 b 24 933 125 909 112 922 l 24 979 l 413 979 l 413 933 b 305 848 317 922 305 908 l 305 378 b 576 75 305 175 420 75 b 844 385 741 75 846 183 l 840 818 b 729 933 839 903 827 921 l 729 979 l 1022 979 l 1022 932 b 918 819 932 922 919 903 l 913 372 b 519 -18 911 134 765 -18 b 125 368 314 -18 125 102 l 125 851 "},"Ü":{"ha":1042,"x_min":0,"x_max":0,"o":"m 448 1076 b 372 1150 406 1076 372 1108 b 448 1225 372 1192 406 1225 b 524 1150 490 1225 524 1192 b 448 1076 524 1108 490 1076 m 678 1076 b 602 1150 635 1076 602 1108 b 678 1225 602 1192 635 1225 b 754 1150 720 1225 754 1192 b 678 1076 754 1108 720 1076 m 125 851 b 24 933 125 909 112 922 l 24 979 l 413 979 l 413 933 b 305 848 317 922 305 908 l 305 378 b 576 75 305 175 420 75 b 844 385 741 75 846 183 l 840 818 b 729 933 839 903 827 921 l 729 979 l 1022 979 l 1022 932 b 918 819 932 922 919 903 l 913 372 b 519 -18 911 134 765 -18 b 125 368 314 -18 125 102 l 125 851 "},"Ǘ":{"ha":1042,"x_min":0,"x_max":0,"o":"m 370 1199 l 370 1240 l 755 1340 l 755 1252 m 452 1054 b 389 1108 417 1054 389 1077 b 452 1162 389 1139 417 1162 l 458 1162 b 521 1108 493 1162 521 1139 b 458 1054 521 1077 493 1054 m 667 1054 b 604 1108 632 1054 604 1077 b 667 1162 604 1139 632 1162 l 673 1162 b 735 1108 708 1162 735 1139 b 673 1054 735 1077 708 1054 m 125 851 b 24 933 125 909 112 922 l 24 979 l 413 979 l 413 933 b 305 848 317 922 305 908 l 305 378 b 576 75 305 175 420 75 b 844 385 741 75 846 183 l 840 818 b 729 933 839 903 827 921 l 729 979 l 1022 979 l 1022 932 b 918 819 932 922 919 903 l 913 372 b 519 -18 911 134 765 -18 b 125 368 314 -18 125 102 l 125 851 "},"Ǜ":{"ha":1042,"x_min":0,"x_max":0,"o":"m 370 1340 l 755 1240 l 755 1199 l 370 1252 m 452 1054 b 389 1108 417 1054 389 1077 b 452 1162 389 1139 417 1162 l 458 1162 b 521 1108 493 1162 521 1139 b 458 1054 521 1077 493 1054 m 667 1054 b 604 1108 632 1054 604 1077 b 667 1162 604 1139 632 1162 l 673 1162 b 735 1108 708 1162 735 1139 b 673 1054 735 1077 708 1054 m 125 851 b 24 933 125 909 112 922 l 24 979 l 413 979 l 413 933 b 305 848 317 922 305 908 l 305 378 b 576 75 305 175 420 75 b 844 385 741 75 846 183 l 840 818 b 729 933 839 903 827 921 l 729 979 l 1022 979 l 1022 932 b 918 819 932 922 919 903 l 913 372 b 519 -18 911 134 765 -18 b 125 368 314 -18 125 102 l 125 851 "},"Ǚ":{"ha":1042,"x_min":0,"x_max":0,"o":"m 755 1299 l 579 1199 l 547 1199 l 370 1299 l 370 1340 l 562 1281 l 755 1340 m 452 1054 b 389 1108 417 1054 389 1077 b 452 1162 389 1139 417 1162 l 458 1162 b 521 1108 493 1162 521 1139 b 458 1054 521 1077 493 1054 m 667 1054 b 604 1108 632 1054 604 1077 b 667 1162 604 1139 632 1162 l 673 1162 b 735 1108 708 1162 735 1139 b 673 1054 735 1077 708 1054 m 125 851 b 24 933 125 909 112 922 l 24 979 l 413 979 l 413 933 b 305 848 317 922 305 908 l 305 378 b 576 75 305 175 420 75 b 844 385 741 75 846 183 l 840 818 b 729 933 839 903 827 921 l 729 979 l 1022 979 l 1022 932 b 918 819 932 922 919 903 l 913 372 b 519 -18 911 134 765 -18 b 125 368 314 -18 125 102 l 125 851 "},"Ǖ":{"ha":1042,"x_min":0,"x_max":0,"o":"m 370 1303 l 755 1303 l 755 1236 l 370 1236 m 452 1054 b 389 1108 417 1054 389 1077 b 452 1162 389 1139 417 1162 l 458 1162 b 521 1108 493 1162 521 1139 b 458 1054 521 1077 493 1054 m 667 1054 b 604 1108 632 1054 604 1077 b 667 1162 604 1139 632 1162 l 673 1162 b 735 1108 708 1162 735 1139 b 673 1054 735 1077 708 1054 m 125 851 b 24 933 125 909 112 922 l 24 979 l 413 979 l 413 933 b 305 848 317 922 305 908 l 305 378 b 576 75 305 175 420 75 b 844 385 741 75 846 183 l 840 818 b 729 933 839 903 827 921 l 729 979 l 1022 979 l 1022 932 b 918 819 932 922 919 903 l 913 372 b 519 -18 911 134 765 -18 b 125 368 314 -18 125 102 l 125 851 "},"Ṳ":{"ha":1042,"x_min":0,"x_max":0,"o":"m 125 851 b 24 933 125 909 112 922 l 24 979 l 413 979 l 413 933 b 305 848 317 922 305 908 l 305 378 b 576 75 305 175 420 75 b 844 385 741 75 846 183 l 840 818 b 729 933 839 903 827 921 l 729 979 l 1022 979 l 1022 932 b 918 819 932 922 919 903 l 913 372 b 519 -18 911 134 765 -18 b 125 368 314 -18 125 102 l 125 851 m 403 -275 b 322 -201 358 -275 322 -243 b 403 -126 322 -158 358 -126 b 483 -201 447 -126 483 -158 b 403 -275 483 -243 447 -275 m 690 -275 b 610 -201 646 -275 610 -243 b 690 -126 610 -158 646 -126 b 770 -201 734 -126 770 -158 b 690 -275 770 -243 734 -275 "},"Ũ":{"ha":1042,"x_min":0,"x_max":0,"o":"m 643 1063 b 542 1103 604 1063 576 1079 l 522 1118 b 466 1142 500 1133 484 1142 b 420 1059 438 1142 423 1121 l 368 1059 b 483 1238 366 1189 418 1238 b 584 1198 522 1238 550 1221 l 604 1183 b 660 1159 625 1168 641 1159 b 705 1241 687 1159 703 1179 l 758 1241 b 643 1063 760 1112 707 1063 m 125 851 b 24 933 125 909 112 922 l 24 979 l 413 979 l 413 933 b 305 848 317 922 305 908 l 305 378 b 576 75 305 175 420 75 b 844 385 741 75 846 183 l 840 818 b 729 933 839 903 827 921 l 729 979 l 1022 979 l 1022 932 b 918 819 932 922 919 903 l 913 372 b 519 -18 911 134 765 -18 b 125 368 314 -18 125 102 l 125 851 "},"Ṹ":{"ha":1042,"x_min":0,"x_max":0,"o":"m 370 1199 l 370 1240 l 755 1340 l 755 1252 m 644 1055 b 554 1072 612 1055 584 1062 l 533 1078 b 470 1091 506 1087 488 1091 b 422 1048 441 1091 422 1079 l 370 1048 b 481 1162 370 1125 418 1162 b 571 1146 513 1162 541 1156 l 593 1139 b 656 1126 619 1131 637 1126 b 704 1169 684 1126 703 1139 l 755 1169 b 644 1055 755 1093 709 1055 m 125 851 b 24 933 125 909 112 922 l 24 979 l 413 979 l 413 933 b 305 848 317 922 305 908 l 305 378 b 576 75 305 175 420 75 b 844 385 741 75 846 183 l 840 818 b 729 933 839 903 827 921 l 729 979 l 1022 979 l 1022 932 b 918 819 932 922 919 903 l 913 372 b 519 -18 911 134 765 -18 b 125 368 314 -18 125 102 l 125 851 "},"Ṵ":{"ha":1042,"x_min":0,"x_max":0,"o":"m 125 851 b 24 933 125 909 112 922 l 24 979 l 413 979 l 413 933 b 305 848 317 922 305 908 l 305 378 b 576 75 305 175 420 75 b 844 385 741 75 846 183 l 840 818 b 729 933 839 903 827 921 l 729 979 l 1022 979 l 1022 932 b 918 819 932 922 919 903 l 913 372 b 519 -18 911 134 765 -18 b 125 368 314 -18 125 102 l 125 851 m 624 -285 b 526 -245 587 -285 558 -269 l 507 -231 b 452 -208 486 -216 470 -208 b 408 -288 425 -208 410 -228 l 358 -288 b 469 -116 356 -163 406 -116 b 567 -155 507 -116 534 -132 l 587 -170 b 642 -193 607 -185 623 -193 b 686 -113 669 -193 683 -173 l 734 -113 b 624 -285 736 -237 686 -285 "},"Ū":{"ha":1042,"x_min":0,"x_max":0,"o":"m 380 1180 l 746 1180 l 746 1094 l 380 1094 m 125 851 b 24 933 125 909 112 922 l 24 979 l 413 979 l 413 933 b 305 848 317 922 305 908 l 305 378 b 576 75 305 175 420 75 b 844 385 741 75 846 183 l 840 818 b 729 933 839 903 827 921 l 729 979 l 1022 979 l 1022 932 b 918 819 932 922 919 903 l 913 372 b 519 -18 911 134 765 -18 b 125 368 314 -18 125 102 l 125 851 "},"Ṻ":{"ha":1042,"x_min":0,"x_max":0,"o":"m 452 1215 b 389 1270 417 1215 389 1238 b 452 1324 389 1301 417 1324 l 458 1324 b 521 1270 493 1324 521 1301 b 458 1215 521 1238 493 1215 m 667 1215 b 604 1270 632 1215 604 1238 b 667 1324 604 1301 632 1324 l 673 1324 b 735 1270 708 1324 735 1301 b 673 1215 735 1238 708 1215 m 384 1143 l 741 1143 l 741 1075 l 384 1075 m 125 851 b 24 933 125 909 112 922 l 24 979 l 413 979 l 413 933 b 305 848 317 922 305 908 l 305 378 b 576 75 305 175 420 75 b 844 385 741 75 846 183 l 840 818 b 729 933 839 903 827 921 l 729 979 l 1022 979 l 1022 932 b 918 819 932 922 919 903 l 913 372 b 519 -18 911 134 765 -18 b 125 368 314 -18 125 102 l 125 851 "},"Ủ":{"ha":1042,"x_min":0,"x_max":0,"o":"m 580 1278 b 701 1189 653 1278 701 1241 b 559 1061 701 1141 664 1103 l 511 1061 b 597 1159 568 1099 597 1127 b 528 1208 597 1189 571 1208 b 444 1182 492 1208 461 1196 l 444 1218 b 580 1278 467 1249 515 1278 m 125 851 b 24 933 125 909 112 922 l 24 979 l 413 979 l 413 933 b 305 848 317 922 305 908 l 305 378 b 576 75 305 175 420 75 b 844 385 741 75 846 183 l 840 818 b 729 933 839 903 827 921 l 729 979 l 1022 979 l 1022 932 b 918 819 932 922 919 903 l 913 372 b 519 -18 911 134 765 -18 b 125 368 314 -18 125 102 l 125 851 "},"Ů":{"ha":1042,"x_min":0,"x_max":0,"o":"m 393 1183 b 563 1309 393 1257 469 1309 b 732 1183 656 1309 732 1257 b 563 1057 732 1107 656 1057 b 393 1183 469 1057 393 1107 m 498 1183 b 562 1104 498 1136 525 1104 b 627 1183 600 1104 627 1136 b 562 1261 627 1230 600 1261 b 498 1183 525 1261 498 1230 m 125 851 b 24 933 125 909 112 922 l 24 979 l 413 979 l 413 933 b 305 848 317 922 305 908 l 305 378 b 576 75 305 175 420 75 b 844 385 741 75 846 183 l 840 818 b 729 933 839 903 827 921 l 729 979 l 1022 979 l 1022 932 b 918 819 932 922 919 903 l 913 372 b 519 -18 911 134 765 -18 b 125 368 314 -18 125 102 l 125 851 "},"Ụ":{"ha":1042,"x_min":0,"x_max":0,"o":"m 125 851 b 24 933 125 909 112 922 l 24 979 l 413 979 l 413 933 b 305 848 317 922 305 908 l 305 378 b 576 75 305 175 420 75 b 844 385 741 75 846 183 l 840 818 b 729 933 839 903 827 921 l 729 979 l 1022 979 l 1022 932 b 918 819 932 922 919 903 l 913 372 b 519 -18 911 134 765 -18 b 125 368 314 -18 125 102 l 125 851 m 547 -125 b 625 -200 590 -125 625 -157 b 547 -276 625 -243 590 -276 b 468 -200 503 -276 468 -243 b 547 -125 468 -157 503 -125 "},"Ų":{"ha":1042,"x_min":0,"x_max":0,"o":"m 562 -330 b 421 -198 483 -330 421 -279 b 521 -18 421 -134 462 -69 l 519 -18 b 125 368 314 -18 125 102 l 125 851 b 24 933 125 909 112 922 l 24 979 l 413 979 l 413 933 b 305 848 317 922 305 908 l 305 378 b 576 75 305 175 420 75 b 844 385 741 75 846 183 l 840 818 b 729 933 840 903 827 921 l 729 979 l 1022 979 l 1022 932 b 918 819 932 922 919 903 l 913 372 b 578 -16 911 153 788 7 b 549 -123 559 -42 549 -82 b 637 -245 549 -194 587 -245 b 692 -225 661 -245 680 -236 l 692 -271 b 562 -330 669 -305 620 -330 "},"Ư":{"ha":1116,"x_min":0,"x_max":0,"o":"m 125 843 b 26 933 125 905 111 919 l 26 979 l 414 979 l 414 933 b 304 841 319 919 304 905 l 304 378 b 576 75 304 175 420 75 b 844 385 741 75 846 183 l 840 817 b 727 933 839 901 827 918 l 727 979 l 811 979 b 994 1124 939 979 993 1043 b 969 1216 994 1160 983 1198 l 1016 1216 b 1112 1063 1071 1183 1112 1124 b 951 945 1112 989 1056 945 b 920 947 941 945 931 945 l 913 372 b 519 -18 910 134 765 -18 b 125 368 314 -18 125 102 "},"Ứ":{"ha":1116,"x_min":0,"x_max":0,"o":"m 497 1054 l 597 1246 l 771 1246 l 771 1241 l 554 1054 m 125 843 b 26 933 125 905 111 919 l 26 979 l 414 979 l 414 933 b 304 841 319 919 304 905 l 304 378 b 576 75 304 175 420 75 b 844 385 741 75 846 183 l 840 817 b 727 933 839 901 827 918 l 727 979 l 811 979 b 994 1124 939 979 993 1043 b 969 1216 994 1160 983 1198 l 1016 1216 b 1112 1063 1071 1183 1112 1124 b 951 945 1112 989 1056 945 b 920 947 941 945 931 945 l 913 372 b 519 -18 910 134 765 -18 b 125 368 314 -18 125 102 "},"Ừ":{"ha":1116,"x_min":0,"x_max":0,"o":"m 393 1241 l 393 1246 l 574 1246 l 669 1054 l 612 1054 m 125 843 b 26 933 125 905 111 919 l 26 979 l 414 979 l 414 933 b 304 841 319 919 304 905 l 304 378 b 576 75 304 175 420 75 b 844 385 741 75 846 183 l 840 817 b 727 933 839 901 827 918 l 727 979 l 811 979 b 994 1124 939 979 993 1043 b 969 1216 994 1160 983 1198 l 1016 1216 b 1112 1063 1071 1183 1112 1124 b 951 945 1112 989 1056 945 b 920 947 941 945 931 945 l 913 372 b 519 -18 910 134 765 -18 b 125 368 314 -18 125 102 "},"Ữ":{"ha":1116,"x_min":0,"x_max":0,"o":"m 656 1063 b 555 1103 617 1063 589 1079 l 535 1118 b 479 1142 513 1133 498 1142 b 434 1059 452 1142 436 1121 l 381 1059 b 496 1238 379 1189 431 1238 b 597 1198 534 1238 564 1221 l 617 1183 b 673 1159 639 1168 654 1159 b 718 1241 701 1159 715 1179 l 770 1241 b 656 1063 773 1112 721 1063 m 125 843 b 26 933 125 905 111 919 l 26 979 l 414 979 l 414 933 b 304 841 319 919 304 905 l 304 378 b 576 75 304 175 420 75 b 844 385 741 75 846 183 l 840 817 b 727 933 839 901 827 918 l 727 979 l 811 979 b 994 1124 939 979 993 1043 b 969 1216 994 1160 983 1198 l 1016 1216 b 1112 1063 1071 1183 1112 1124 b 951 945 1112 989 1056 945 b 920 947 941 945 931 945 l 913 372 b 519 -18 910 134 765 -18 b 125 368 314 -18 125 102 "},"Ử":{"ha":1116,"x_min":0,"x_max":0,"o":"m 593 1278 b 715 1189 667 1278 715 1241 b 573 1061 715 1141 677 1103 l 524 1061 b 610 1159 582 1099 610 1127 b 541 1208 610 1189 584 1208 b 456 1182 505 1208 475 1196 l 456 1218 b 593 1278 481 1249 528 1278 m 125 843 b 26 933 125 905 111 919 l 26 979 l 414 979 l 414 933 b 304 841 319 919 304 905 l 304 378 b 576 75 304 175 420 75 b 844 385 741 75 846 183 l 840 817 b 727 933 839 901 827 918 l 727 979 l 811 979 b 994 1124 939 979 993 1043 b 969 1216 994 1160 983 1198 l 1016 1216 b 1112 1063 1071 1183 1112 1124 b 951 945 1112 989 1056 945 b 920 947 941 945 931 945 l 913 372 b 519 -18 910 134 765 -18 b 125 368 314 -18 125 102 "},"Ự":{"ha":1116,"x_min":0,"x_max":0,"o":"m 125 843 b 26 933 125 905 111 919 l 26 979 l 414 979 l 414 933 b 304 841 319 919 304 905 l 304 378 b 576 75 304 175 420 75 b 844 385 741 75 846 183 l 840 817 b 727 933 839 901 827 918 l 727 979 l 811 979 b 994 1124 939 979 993 1043 b 969 1216 994 1160 983 1198 l 1016 1216 b 1112 1063 1071 1183 1112 1124 b 951 945 1112 989 1056 945 b 920 947 941 945 931 945 l 913 372 b 519 -18 910 134 765 -18 b 125 368 314 -18 125 102 m 562 -125 b 640 -200 605 -125 640 -157 b 562 -276 640 -243 605 -276 b 483 -200 518 -276 483 -243 b 562 -125 483 -157 518 -125 "},"V":{"ha":972,"x_min":0,"x_max":0,"o":"m 132 798 b -6 933 94 902 72 922 l -6 979 l 401 979 l 401 933 b 321 796 301 920 287 897 l 543 157 l 757 787 b 678 933 794 896 782 919 l 678 979 l 979 979 l 979 933 b 835 783 897 922 878 902 l 547 0 l 421 0 l 132 798 "},"Ṽ":{"ha":972,"x_min":0,"x_max":0,"o":"m 610 1063 b 509 1103 572 1063 543 1079 l 489 1118 b 433 1142 467 1133 452 1142 b 388 1059 406 1142 391 1121 l 335 1059 b 450 1238 333 1189 385 1238 b 551 1198 488 1238 517 1221 l 571 1183 b 627 1159 593 1168 608 1159 b 672 1241 654 1159 669 1179 l 725 1241 b 610 1063 727 1112 675 1063 m 132 798 b -6 933 94 902 72 922 l -6 979 l 401 979 l 401 933 b 321 796 301 920 287 897 l 543 157 l 757 787 b 678 933 794 896 782 919 l 678 979 l 979 979 l 979 933 b 835 783 897 922 878 902 l 547 0 l 421 0 l 132 798 "},"Ṿ":{"ha":972,"x_min":0,"x_max":0,"o":"m 132 798 b -6 933 94 902 72 922 l -6 979 l 401 979 l 401 933 b 321 796 301 920 287 897 l 543 157 l 757 787 b 678 933 794 896 782 919 l 678 979 l 979 979 l 979 933 b 835 783 897 922 878 902 l 547 0 l 421 0 l 132 798 m 489 -125 b 567 -200 532 -125 567 -157 b 489 -276 567 -243 532 -276 b 411 -200 446 -276 411 -243 b 489 -125 411 -157 446 -125 "},"W":{"ha":1489,"x_min":0,"x_max":0,"o":"m 130 798 b -6 933 96 905 71 923 l -6 979 l 397 979 l 397 933 b 317 797 297 920 288 898 l 503 167 l 682 795 b 602 933 711 901 703 919 l 602 979 l 989 979 l 989 933 b 913 798 891 920 884 901 l 1097 168 l 1275 788 b 1196 933 1306 897 1298 919 l 1196 979 l 1495 979 l 1495 933 b 1354 784 1413 922 1392 903 l 1103 0 l 975 0 l 747 760 l 510 0 l 383 0 l 130 798 "},"Ẃ":{"ha":1489,"x_min":0,"x_max":0,"o":"m 712 1054 l 812 1246 l 987 1246 l 987 1241 l 770 1054 m 130 798 b -6 933 96 905 71 923 l -6 979 l 397 979 l 397 933 b 317 797 297 920 288 898 l 503 167 l 682 795 b 602 933 711 901 703 919 l 602 979 l 989 979 l 989 933 b 913 798 891 920 884 901 l 1097 168 l 1275 788 b 1196 933 1306 897 1298 919 l 1196 979 l 1495 979 l 1495 933 b 1354 784 1413 922 1392 903 l 1103 0 l 975 0 l 747 760 l 510 0 l 383 0 l 130 798 "},"Ẁ":{"ha":1489,"x_min":0,"x_max":0,"o":"m 608 1241 l 608 1246 l 789 1246 l 884 1054 l 827 1054 m 130 798 b -6 933 96 905 71 923 l -6 979 l 397 979 l 397 933 b 317 797 297 920 288 898 l 503 167 l 682 795 b 602 933 711 901 703 919 l 602 979 l 989 979 l 989 933 b 913 798 891 920 884 901 l 1097 168 l 1275 788 b 1196 933 1306 897 1298 919 l 1196 979 l 1495 979 l 1495 933 b 1354 784 1413 922 1392 903 l 1103 0 l 975 0 l 747 760 l 510 0 l 383 0 l 130 798 "},"Ŵ":{"ha":1489,"x_min":0,"x_max":0,"o":"m 604 1054 l 747 1246 l 852 1246 l 995 1054 l 937 1054 l 800 1153 l 661 1054 m 130 798 b -6 933 96 905 71 923 l -6 979 l 397 979 l 397 933 b 317 797 297 920 288 898 l 503 167 l 682 795 b 602 933 711 901 703 919 l 602 979 l 989 979 l 989 933 b 913 798 891 920 884 901 l 1097 168 l 1275 788 b 1196 933 1306 897 1298 919 l 1196 979 l 1495 979 l 1495 933 b 1354 784 1413 922 1392 903 l 1103 0 l 975 0 l 747 760 l 510 0 l 383 0 l 130 798 "},"Ẅ":{"ha":1489,"x_min":0,"x_max":0,"o":"m 676 1076 b 600 1150 634 1076 600 1108 b 676 1225 600 1192 634 1225 b 752 1150 719 1225 752 1192 b 676 1076 752 1108 719 1076 m 907 1076 b 831 1150 864 1076 831 1108 b 907 1225 831 1192 864 1225 b 983 1150 949 1225 983 1192 b 907 1076 983 1108 949 1076 m 130 798 b -6 933 96 905 71 923 l -6 979 l 397 979 l 397 933 b 317 797 297 920 288 898 l 503 167 l 682 795 b 602 933 711 901 703 919 l 602 979 l 989 979 l 989 933 b 913 798 891 920 884 901 l 1097 168 l 1275 788 b 1196 933 1306 897 1298 919 l 1196 979 l 1495 979 l 1495 933 b 1354 784 1413 922 1392 903 l 1103 0 l 975 0 l 747 760 l 510 0 l 383 0 l 130 798 "},"Ẇ":{"ha":1489,"x_min":0,"x_max":0,"o":"m 791 1075 b 713 1150 747 1075 713 1107 b 791 1225 713 1193 747 1225 b 869 1150 835 1225 869 1193 b 791 1075 869 1107 835 1075 m 130 798 b -6 933 96 905 71 923 l -6 979 l 397 979 l 397 933 b 317 797 297 920 288 898 l 503 167 l 682 795 b 602 933 711 901 703 919 l 602 979 l 989 979 l 989 933 b 913 798 891 920 884 901 l 1097 168 l 1275 788 b 1196 933 1306 897 1298 919 l 1196 979 l 1495 979 l 1495 933 b 1354 784 1413 922 1392 903 l 1103 0 l 975 0 l 747 760 l 510 0 l 383 0 l 130 798 "},"Ẉ":{"ha":1489,"x_min":0,"x_max":0,"o":"m 130 798 b -6 933 96 905 71 923 l -6 979 l 397 979 l 397 933 b 317 797 297 920 288 898 l 503 167 l 682 795 b 602 933 711 901 703 919 l 602 979 l 989 979 l 989 933 b 913 798 891 920 884 901 l 1097 168 l 1275 788 b 1196 933 1306 897 1298 919 l 1196 979 l 1495 979 l 1495 933 b 1354 784 1413 922 1392 903 l 1103 0 l 975 0 l 747 760 l 510 0 l 383 0 l 130 798 m 745 -125 b 824 -200 789 -125 824 -157 b 745 -276 824 -243 789 -276 b 667 -200 702 -276 667 -243 b 745 -125 667 -157 702 -125 "},"X":{"ha":951,"x_min":0,"x_max":0,"o":"m 385 475 l 159 819 b 10 933 107 898 81 918 l 10 979 l 423 979 l 423 933 b 370 812 320 919 315 896 l 533 565 l 680 797 b 634 933 743 895 740 919 l 634 979 l 942 979 l 942 933 b 755 788 861 923 833 902 l 566 515 l 800 160 b 950 46 851 81 880 62 l 950 0 l 535 0 l 535 46 b 588 167 637 61 642 86 l 418 425 l 263 184 b 309 46 200 84 203 60 l 309 0 l 1 0 l 1 46 b 191 197 82 56 109 77 "},"Ẍ":{"ha":951,"x_min":0,"x_max":0,"o":"m 409 1076 b 333 1150 366 1076 333 1108 b 409 1225 333 1192 367 1225 b 485 1150 451 1225 485 1192 b 409 1076 485 1108 451 1076 m 639 1076 b 563 1150 597 1076 563 1108 b 639 1225 563 1192 597 1225 b 715 1150 682 1225 715 1192 b 639 1076 715 1108 682 1076 m 385 475 l 159 819 b 10 933 107 898 81 918 l 10 979 l 423 979 l 423 933 b 370 812 320 919 315 896 l 533 565 l 680 797 b 634 933 743 895 740 919 l 634 979 l 942 979 l 942 933 b 755 788 861 923 833 902 l 566 515 l 800 160 b 950 46 851 81 880 62 l 950 0 l 535 0 l 535 46 b 588 167 637 61 642 86 l 418 425 l 263 184 b 309 46 200 84 203 60 l 309 0 l 1 0 l 1 46 b 191 197 82 56 109 77 "},"Ẋ":{"ha":951,"x_min":0,"x_max":0,"o":"m 524 1075 b 446 1150 480 1075 446 1107 b 524 1225 446 1193 480 1225 b 602 1150 567 1225 602 1193 b 524 1075 602 1107 567 1075 m 385 475 l 159 819 b 10 933 107 898 81 918 l 10 979 l 423 979 l 423 933 b 370 812 320 919 315 896 l 533 565 l 680 797 b 634 933 743 895 740 919 l 634 979 l 942 979 l 942 933 b 755 788 861 923 833 902 l 566 515 l 800 160 b 950 46 851 81 880 62 l 950 0 l 535 0 l 535 46 b 588 167 637 61 642 86 l 418 425 l 263 184 b 309 46 200 84 203 60 l 309 0 l 1 0 l 1 46 b 191 197 82 56 109 77 "},"Y":{"ha":932,"x_min":0,"x_max":0,"o":"m 154 802 b -5 933 91 903 68 922 l -5 979 l 400 979 l 400 933 b 349 801 302 921 294 895 l 528 497 l 694 792 b 644 933 751 895 746 920 l 644 979 l 937 979 l 937 933 b 768 788 863 922 839 901 l 557 444 l 557 141 b 673 46 557 75 571 58 l 673 0 l 260 0 l 260 46 b 377 141 363 58 377 75 l 377 435 l 154 802 "},"Ý":{"ha":932,"x_min":0,"x_max":0,"o":"m 434 1054 l 534 1246 l 709 1246 l 709 1241 l 492 1054 m 154 802 b -5 933 91 903 68 922 l -5 979 l 400 979 l 400 933 b 349 801 302 921 294 895 l 528 497 l 694 792 b 644 933 751 895 746 920 l 644 979 l 937 979 l 937 933 b 768 788 863 922 839 901 l 557 444 l 557 141 b 673 46 557 75 571 58 l 673 0 l 260 0 l 260 46 b 377 141 363 58 377 75 l 377 435 l 154 802 "},"Ỳ":{"ha":932,"x_min":0,"x_max":0,"o":"m 331 1241 l 331 1246 l 512 1246 l 607 1054 l 550 1054 m 154 802 b -5 933 91 903 68 922 l -5 979 l 400 979 l 400 933 b 349 801 302 921 294 895 l 528 497 l 694 792 b 644 933 751 895 746 920 l 644 979 l 937 979 l 937 933 b 768 788 863 922 839 901 l 557 444 l 557 141 b 673 46 557 75 571 58 l 673 0 l 260 0 l 260 46 b 377 141 363 58 377 75 l 377 435 l 154 802 "},"Ŷ":{"ha":932,"x_min":0,"x_max":0,"o":"m 326 1054 l 469 1246 l 574 1246 l 718 1054 l 659 1054 l 522 1153 l 382 1054 m 154 802 b -5 933 91 903 68 922 l -5 979 l 400 979 l 400 933 b 349 801 302 921 294 895 l 528 497 l 694 792 b 644 933 751 895 746 920 l 644 979 l 937 979 l 937 933 b 768 788 863 922 839 901 l 557 444 l 557 141 b 673 46 557 75 571 58 l 673 0 l 260 0 l 260 46 b 377 141 363 58 377 75 l 377 435 l 154 802 "},"Ÿ":{"ha":932,"x_min":0,"x_max":0,"o":"m 399 1076 b 323 1150 356 1076 323 1108 b 399 1225 323 1192 356 1225 b 475 1150 441 1225 475 1192 b 399 1076 475 1108 441 1076 m 629 1076 b 553 1150 587 1076 553 1108 b 629 1225 553 1192 587 1225 b 705 1150 671 1225 705 1192 b 629 1076 705 1108 671 1076 m 154 802 b -5 933 91 903 68 922 l -5 979 l 400 979 l 400 933 b 349 801 302 921 294 895 l 528 497 l 694 792 b 644 933 751 895 746 920 l 644 979 l 937 979 l 937 933 b 768 788 863 922 839 901 l 557 444 l 557 141 b 673 46 557 75 571 58 l 673 0 l 260 0 l 260 46 b 377 141 363 58 377 75 l 377 435 l 154 802 "},"Ỹ":{"ha":932,"x_min":0,"x_max":0,"o":"m 593 1063 b 492 1103 555 1063 526 1079 l 473 1118 b 416 1142 451 1133 435 1142 b 372 1059 389 1142 374 1121 l 319 1059 b 433 1238 317 1189 369 1238 b 535 1198 472 1238 501 1221 l 555 1183 b 611 1159 576 1168 592 1159 b 656 1241 638 1159 653 1179 l 708 1241 b 593 1063 711 1112 659 1063 m 154 802 b -5 933 91 903 68 922 l -5 979 l 400 979 l 400 933 b 349 801 302 921 294 895 l 528 497 l 694 792 b 644 933 751 895 746 920 l 644 979 l 937 979 l 937 933 b 768 788 863 922 839 901 l 557 444 l 557 141 b 673 46 557 75 571 58 l 673 0 l 260 0 l 260 46 b 377 141 363 58 377 75 l 377 435 l 154 802 "},"Ȳ":{"ha":932,"x_min":0,"x_max":0,"o":"m 331 1180 l 696 1180 l 696 1094 l 331 1094 m 154 802 b -5 933 91 903 68 922 l -5 979 l 400 979 l 400 933 b 349 801 302 921 294 895 l 528 497 l 694 792 b 644 933 751 895 746 920 l 644 979 l 937 979 l 937 933 b 768 788 863 922 839 901 l 557 444 l 557 141 b 673 46 557 75 571 58 l 673 0 l 260 0 l 260 46 b 377 141 363 58 377 75 l 377 435 l 154 802 "},"Ỷ":{"ha":932,"x_min":0,"x_max":0,"o":"m 531 1278 b 652 1189 604 1278 652 1241 b 511 1061 652 1141 614 1103 l 462 1061 b 548 1159 519 1099 548 1127 b 478 1208 548 1189 522 1208 b 394 1182 443 1208 412 1196 l 394 1218 b 531 1278 418 1249 466 1278 m 154 802 b -5 933 91 903 68 922 l -5 979 l 400 979 l 400 933 b 349 801 302 921 294 895 l 528 497 l 694 792 b 644 933 751 895 746 920 l 644 979 l 937 979 l 937 933 b 768 788 863 922 839 901 l 557 444 l 557 141 b 673 46 557 75 571 58 l 673 0 l 260 0 l 260 46 b 377 141 363 58 377 75 l 377 435 l 154 802 "},"Ẏ":{"ha":932,"x_min":0,"x_max":0,"o":"m 513 1075 b 435 1150 470 1075 435 1107 b 513 1225 435 1193 470 1225 b 592 1150 557 1225 592 1193 b 513 1075 592 1107 557 1075 m 154 802 b -5 933 91 903 68 922 l -5 979 l 400 979 l 400 933 b 349 801 302 921 294 895 l 528 497 l 694 792 b 644 933 751 895 746 920 l 644 979 l 937 979 l 937 933 b 768 788 863 922 839 901 l 557 444 l 557 141 b 673 46 557 75 571 58 l 673 0 l 260 0 l 260 46 b 377 141 363 58 377 75 l 377 435 l 154 802 "},"Ỵ":{"ha":932,"x_min":0,"x_max":0,"o":"m 154 802 b -5 933 91 903 68 922 l -5 979 l 400 979 l 400 933 b 349 801 302 921 294 895 l 528 497 l 694 792 b 644 933 751 895 746 920 l 644 979 l 937 979 l 937 933 b 768 788 863 922 839 901 l 557 444 l 557 141 b 673 46 557 75 571 58 l 673 0 l 260 0 l 260 46 b 377 141 363 58 377 75 l 377 435 l 154 802 m 472 -125 b 550 -200 515 -125 550 -157 b 472 -276 550 -243 515 -276 b 394 -200 429 -276 394 -243 b 472 -125 394 -157 429 -125 "},"Z":{"ha":866,"x_min":0,"x_max":0,"o":"m 53 0 l 53 43 l 600 926 l 374 918 b 106 730 179 912 138 879 l 63 730 l 73 979 l 804 979 l 804 936 l 256 54 l 471 61 b 771 278 672 68 732 93 l 814 278 l 804 0 "},"Ź":{"ha":866,"x_min":0,"x_max":0,"o":"m 358 1054 l 458 1246 l 633 1246 l 633 1241 l 416 1054 m 53 0 l 53 43 l 600 926 l 374 918 b 106 730 179 912 138 879 l 63 730 l 73 979 l 804 979 l 804 936 l 256 54 l 471 61 b 771 278 672 68 732 93 l 814 278 l 804 0 "},"Ẑ":{"ha":866,"x_min":0,"x_max":0,"o":"m 250 1054 l 393 1246 l 498 1246 l 641 1054 l 583 1054 l 445 1153 l 307 1054 m 53 0 l 53 43 l 600 926 l 374 918 b 106 730 179 912 138 879 l 63 730 l 73 979 l 804 979 l 804 936 l 256 54 l 471 61 b 771 278 672 68 732 93 l 814 278 l 804 0 "},"Ž":{"ha":866,"x_min":0,"x_max":0,"o":"m 640 1251 l 497 1058 l 391 1058 l 249 1251 l 307 1251 l 445 1152 l 583 1251 m 53 0 l 53 43 l 600 926 l 374 918 b 106 730 179 912 138 879 l 63 730 l 73 979 l 804 979 l 804 936 l 256 54 l 471 61 b 771 278 672 68 732 93 l 814 278 l 804 0 "},"Ẕ":{"ha":866,"x_min":0,"x_max":0,"o":"m 53 0 l 53 43 l 600 926 l 374 918 b 106 730 179 912 138 879 l 63 730 l 73 979 l 804 979 l 804 936 l 256 54 l 471 61 b 771 278 672 68 732 93 l 814 278 l 804 0 m 246 -156 l 623 -156 l 623 -243 l 246 -243 "},"Ż":{"ha":866,"x_min":0,"x_max":0,"o":"m 437 1075 b 359 1150 393 1075 359 1107 b 437 1225 359 1193 393 1225 b 515 1150 481 1225 515 1193 b 437 1075 515 1107 481 1075 m 53 0 l 53 43 l 600 926 l 374 918 b 106 730 179 912 138 879 l 63 730 l 73 979 l 804 979 l 804 936 l 256 54 l 471 61 b 771 278 672 68 732 93 l 814 278 l 804 0 "},"Ẓ":{"ha":866,"x_min":0,"x_max":0,"o":"m 53 0 l 53 43 l 600 926 l 374 918 b 106 730 179 912 138 879 l 63 730 l 73 979 l 804 979 l 804 936 l 256 54 l 471 61 b 771 278 672 68 732 93 l 814 278 l 804 0 m 435 -125 b 513 -200 478 -125 513 -157 b 435 -276 513 -243 478 -276 b 357 -200 391 -276 357 -243 b 435 -125 357 -157 391 -125 "},"Æ":{"ha":1331,"x_min":0,"x_max":0,"o":"m 1249 730 l 1205 730 b 951 920 1168 880 1117 912 l 815 926 l 819 528 l 968 530 b 1066 667 1029 531 1045 555 l 1107 667 l 1110 336 l 1069 336 b 969 473 1048 446 1031 472 l 820 475 l 824 54 l 970 60 b 1240 278 1159 68 1205 94 l 1283 278 l 1275 0 l 551 0 l 551 46 b 654 128 642 58 654 70 l 651 401 l 340 401 l 238 193 b 296 46 186 87 201 59 l 296 0 l -11 0 l -11 46 b 155 193 68 56 96 75 l 555 979 l 1238 979 m 369 460 l 650 460 l 646 925 l 597 925 "},"Ǽ":{"ha":1331,"x_min":0,"x_max":0,"o":"m 772 1054 l 873 1246 l 1047 1246 l 1047 1241 l 830 1054 m 1249 730 l 1205 730 b 951 920 1168 880 1117 912 l 815 926 l 819 528 l 968 530 b 1066 667 1029 531 1045 555 l 1107 667 l 1110 336 l 1069 336 b 969 473 1048 446 1031 472 l 820 475 l 824 54 l 970 60 b 1240 278 1159 68 1205 94 l 1283 278 l 1275 0 l 551 0 l 551 46 b 654 128 642 58 654 70 l 651 401 l 340 401 l 238 193 b 296 46 186 87 201 59 l 296 0 l -11 0 l -11 46 b 155 193 68 56 96 75 l 555 979 l 1238 979 m 369 460 l 650 460 l 646 925 l 597 925 "},"Ǣ":{"ha":1331,"x_min":0,"x_max":0,"o":"m 669 1180 l 1035 1180 l 1035 1094 l 669 1094 m 1249 730 l 1205 730 b 951 920 1168 880 1117 912 l 815 926 l 819 528 l 968 530 b 1066 667 1029 531 1045 555 l 1107 667 l 1110 336 l 1069 336 b 969 473 1048 446 1031 472 l 820 475 l 824 54 l 970 60 b 1240 278 1159 68 1205 94 l 1283 278 l 1275 0 l 551 0 l 551 46 b 654 128 642 58 654 70 l 651 401 l 340 401 l 238 193 b 296 46 186 87 201 59 l 296 0 l -11 0 l -11 46 b 155 193 68 56 96 75 l 555 979 l 1238 979 m 369 460 l 650 460 l 646 925 l 597 925 "},"Œ":{"ha":1420,"x_min":0,"x_max":0,"o":"m 66 485 b 583 998 66 776 270 998 b 846 979 689 998 736 979 l 1333 979 l 1342 730 l 1299 730 b 1044 920 1263 880 1212 913 l 884 926 l 884 528 l 1061 530 b 1160 667 1121 531 1137 555 l 1200 667 l 1200 336 l 1160 336 b 1061 473 1140 446 1123 472 l 884 475 l 884 54 l 1055 60 b 1329 278 1245 67 1292 94 l 1372 278 l 1362 0 l 844 0 b 573 -18 745 0 680 -18 b 66 485 281 -18 66 203 m 262 492 b 592 45 262 237 385 45 b 704 62 632 45 672 51 l 704 915 b 596 934 675 928 637 934 b 262 492 380 934 262 742 "},"Ə":{"ha":1017,"x_min":0,"x_max":0,"o":"m 474 -18 b 56 406 197 -18 56 161 b 62 476 56 431 58 454 l 754 475 b 754 488 754 479 754 484 b 436 932 754 769 641 932 b 149 699 283 932 184 852 l 105 699 l 113 926 b 453 998 173 966 295 998 b 951 489 743 998 951 819 b 474 -18 951 181 762 -18 m 235 392 b 478 47 235 203 299 47 b 752 420 649 47 738 195 l 235 419 b 235 392 235 410 235 401 "},"ẞ":{"ha":1007,"x_min":0,"x_max":0,"o":"m 42 0 l 42 46 b 149 132 137 58 149 71 l 149 848 b 42 933 149 909 137 922 l 42 979 l 519 979 b 909 749 789 979 909 888 b 724 564 909 646 827 577 b 949 252 863 519 949 404 b 656 -18 949 72 800 -18 b 427 38 553 -18 467 9 l 427 254 l 471 254 b 654 45 494 122 562 45 b 794 210 735 45 794 104 b 574 451 794 330 713 416 l 574 557 b 739 728 681 574 739 635 b 469 920 739 833 659 913 l 329 926 l 329 0 "},"Þ":{"ha":897,"x_min":0,"x_max":0,"o":"m 850 504 b 437 224 850 319 677 224 l 329 224 l 329 141 b 446 46 329 75 343 58 l 446 0 l 42 0 l 42 46 b 150 131 138 58 150 71 l 150 848 b 42 933 150 908 138 922 l 42 979 l 446 979 l 446 933 b 329 838 343 922 329 905 l 329 769 l 437 769 b 850 504 687 769 850 685 m 659 492 b 390 713 659 627 565 708 l 329 715 l 329 278 l 390 280 b 659 492 564 286 659 356 "},"Ĳ":{"ha":958,"x_min":0,"x_max":0,"o":"m 329 132 b 437 46 329 71 341 58 l 437 0 l 42 0 l 42 46 b 150 132 138 58 150 71 l 150 848 b 42 933 150 908 138 922 l 42 979 l 437 979 l 437 933 b 329 848 341 922 329 908 l 329 132 m 808 180 b 463 -279 808 -60 696 -161 l 440 -240 b 628 182 580 -142 628 -39 l 628 848 b 521 933 628 908 616 922 l 521 979 l 916 979 l 916 933 b 808 848 820 922 808 908 l 808 180 "},"Ǳ":{"ha":1931,"x_min":0,"x_max":0,"o":"m 1007 505 b 444 0 1007 189 747 0 l 42 0 l 42 46 b 150 132 138 58 150 71 l 150 848 b 42 933 150 908 138 922 l 42 979 l 439 979 b 1007 505 770 979 1007 808 m 1119 0 l 1119 43 l 1666 926 l 1440 918 b 1172 730 1245 912 1204 879 l 1128 730 l 1138 979 l 1870 979 l 1870 936 l 1322 54 l 1537 61 b 1837 278 1738 68 1799 93 l 1881 278 l 1870 0 m 809 492 b 410 923 809 749 658 915 l 329 926 l 329 54 l 410 56 b 809 492 656 64 809 227 "},"Ǆ":{"ha":1931,"x_min":0,"x_max":0,"o":"m 1706 1251 l 1563 1058 l 1457 1058 l 1314 1251 l 1373 1251 l 1510 1152 l 1649 1251 m 1007 505 b 444 0 1007 189 747 0 l 42 0 l 42 46 b 150 132 138 58 150 71 l 150 848 b 42 933 150 908 138 922 l 42 979 l 439 979 b 1007 505 770 979 1007 808 m 1119 0 l 1119 43 l 1666 926 l 1440 918 b 1172 730 1245 912 1204 879 l 1128 730 l 1138 979 l 1870 979 l 1870 936 l 1322 54 l 1537 61 b 1837 278 1738 68 1799 93 l 1881 278 l 1870 0 m 809 492 b 410 923 809 749 658 915 l 329 926 l 329 54 l 410 56 b 809 492 656 64 809 227 "},"Ǌ":{"ha":1523,"x_min":0,"x_max":0,"o":"m 850 172 l 838 817 b 727 933 836 904 824 922 l 727 979 l 1022 979 l 1022 933 b 917 818 929 920 918 902 l 911 0 l 744 0 l 193 839 l 205 163 b 316 46 207 75 220 57 l 316 0 l 21 0 l 21 46 b 127 161 114 59 126 77 l 131 829 b 28 933 131 901 116 920 l 28 979 l 319 979 m 1373 180 b 1029 -279 1373 -60 1261 -161 l 1005 -240 b 1194 182 1145 -142 1194 -39 l 1194 848 b 1086 933 1194 908 1181 922 l 1086 979 l 1480 979 l 1480 933 b 1373 848 1385 922 1373 908 l 1373 180 "},"Ǉ":{"ha":1284,"x_min":0,"x_max":0,"o":"m 42 0 l 42 46 b 150 132 137 58 150 71 l 150 848 b 42 933 150 908 138 922 l 42 979 l 446 979 l 446 933 b 329 840 343 922 329 905 l 329 54 l 464 58 b 730 298 627 65 686 98 l 773 298 l 763 0 m 1135 180 b 790 -279 1135 -60 1023 -161 l 766 -240 b 955 182 907 -142 955 -39 l 955 848 b 847 933 955 908 943 922 l 847 979 l 1242 979 l 1242 933 b 1135 848 1147 922 1135 908 l 1135 180 "},"ǲ":{"ha":1716,"x_min":0,"x_max":0,"o":"m 1007 505 b 444 0 1007 189 747 0 l 42 0 l 42 46 b 150 132 138 58 150 71 l 150 848 b 42 933 150 908 138 922 l 42 979 l 439 979 b 1007 505 770 979 1007 808 m 809 492 b 410 923 809 749 658 915 l 329 926 l 329 54 l 410 56 b 809 492 656 64 809 227 m 1670 676 l 1670 634 l 1295 52 l 1461 58 b 1631 220 1565 62 1604 87 l 1674 220 l 1670 0 l 1108 0 l 1108 42 l 1478 623 l 1337 618 b 1158 470 1221 613 1189 589 l 1114 470 l 1120 676 "},"ǅ":{"ha":1716,"x_min":0,"x_max":0,"o":"m 1608 1028 l 1450 778 l 1348 778 l 1190 1028 l 1250 1028 l 1399 895 l 1550 1028 m 1007 505 b 444 0 1007 189 747 0 l 42 0 l 42 46 b 150 132 138 58 150 71 l 150 848 b 42 933 150 908 138 922 l 42 979 l 439 979 b 1007 505 770 979 1007 808 m 809 492 b 410 923 809 749 658 915 l 329 926 l 329 54 l 410 56 b 809 492 656 64 809 227 m 1670 676 l 1670 634 l 1295 52 l 1461 58 b 1631 220 1565 62 1604 87 l 1674 220 l 1670 0 l 1108 0 l 1108 42 l 1478 623 l 1337 618 b 1158 470 1221 613 1189 589 l 1114 470 l 1120 676 "},"ǋ":{"ha":1444,"x_min":0,"x_max":0,"o":"m 1235 806 b 1139 899 1181 806 1139 846 b 1235 991 1139 951 1181 991 b 1331 899 1289 991 1331 951 b 1235 806 1331 846 1289 806 m 850 172 l 838 817 b 727 933 836 904 824 922 l 727 979 l 1022 979 l 1022 933 b 917 818 929 920 918 902 l 911 0 l 744 0 l 193 839 l 205 163 b 316 46 207 75 220 57 l 316 0 l 21 0 l 21 46 b 127 161 114 59 126 77 l 131 829 b 28 933 131 901 116 920 l 28 979 l 319 979 m 1332 121 b 1105 -296 1332 -82 1281 -174 l 1062 -325 l 1034 -286 b 1167 100 1143 -193 1167 -95 l 1167 541 b 1123 600 1167 579 1161 589 l 1076 612 l 1076 654 l 1332 684 "},"ǈ":{"ha":1206,"x_min":0,"x_max":0,"o":"m 996 806 b 900 899 943 806 900 846 b 996 991 900 951 943 991 b 1093 899 1050 991 1093 951 b 996 806 1093 846 1050 806 m 42 0 l 42 46 b 150 132 137 58 150 71 l 150 848 b 42 933 150 908 138 922 l 42 979 l 446 979 l 446 933 b 329 840 343 922 329 905 l 329 54 l 464 58 b 730 298 627 65 686 98 l 773 298 l 763 0 m 1093 121 b 867 -296 1093 -82 1042 -174 l 823 -325 l 795 -286 b 928 100 904 -193 928 -95 l 928 541 b 884 600 928 579 922 589 l 838 612 l 838 654 l 1093 684 "},"Α":{"ha":972,"x_min":0,"x_max":0,"o":"m 841 182 b 979 46 880 77 901 57 l 979 0 l 572 0 l 572 46 b 652 183 672 59 687 83 l 600 336 l 264 336 l 216 193 b 294 46 179 83 191 60 l 294 0 l -6 0 l -6 46 b 138 196 76 58 95 77 l 425 979 l 551 979 l 841 182 m 578 395 l 431 823 l 285 395 "},"Β":{"ha":945,"x_min":0,"x_max":0,"o":"m 886 284 b 460 0 886 95 692 0 l 42 0 l 42 46 b 150 132 138 58 150 71 l 150 848 b 42 933 150 908 138 922 l 42 979 l 460 979 b 837 744 699 979 837 893 b 580 532 837 617 722 546 b 886 284 762 519 886 435 m 653 726 b 414 923 653 842 585 918 l 329 926 l 329 541 l 442 541 b 653 726 579 542 653 610 m 695 272 b 442 486 695 407 605 486 l 329 487 l 329 54 l 414 56 b 695 272 588 62 695 131 "},"Γ":{"ha":793,"x_min":0,"x_max":0,"o":"m 42 46 b 150 132 138 58 150 71 l 150 848 b 42 933 150 908 138 922 l 42 979 l 752 979 l 760 733 l 717 733 b 463 921 682 882 630 915 l 329 926 l 329 141 b 446 46 329 75 343 58 l 446 0 l 42 0 "},"Δ":{"ha":902,"x_min":0,"x_max":0,"o":"m 31 90 l 388 979 l 516 979 l 871 89 l 871 0 l 31 0 m 669 121 l 397 833 l 117 121 "},"Ε":{"ha":873,"x_min":0,"x_max":0,"o":"m 791 730 l 748 730 b 492 920 713 880 661 913 l 329 926 l 329 528 l 507 530 b 608 667 568 531 585 555 l 648 667 l 648 336 l 608 336 b 507 473 587 446 570 472 l 329 475 l 329 54 l 503 60 b 781 278 696 67 745 94 l 825 278 l 814 0 l 42 0 l 42 46 b 150 132 138 58 150 71 l 150 848 b 42 933 150 908 138 922 l 42 979 l 783 979 "},"Ζ":{"ha":866,"x_min":0,"x_max":0,"o":"m 53 0 l 53 43 l 600 926 l 374 918 b 106 730 179 912 138 879 l 63 730 l 73 979 l 804 979 l 804 936 l 256 54 l 471 61 b 771 278 672 68 732 93 l 814 278 l 804 0 "},"Η":{"ha":1120,"x_min":0,"x_max":0,"o":"m 329 128 b 431 46 329 70 342 58 l 431 0 l 42 0 l 42 46 b 150 132 137 58 150 71 l 150 848 b 42 933 150 908 138 922 l 42 979 l 431 979 l 431 932 b 329 850 342 922 329 909 l 329 530 l 791 530 l 791 851 b 689 933 791 909 779 922 l 689 979 l 1078 979 l 1078 933 b 970 848 985 922 970 909 l 970 132 b 1078 46 970 71 985 58 l 1078 0 l 689 0 l 689 46 b 791 128 779 58 791 70 l 791 472 l 329 472 l 329 128 "},"Θ":{"ha":1140,"x_min":0,"x_max":0,"o":"m 569 -18 b 66 489 306 -18 66 176 b 571 998 66 772 265 998 b 1074 490 834 998 1074 804 b 569 -18 1074 207 875 -18 m 578 44 b 883 478 793 44 883 232 b 562 935 883 735 762 935 b 257 501 346 935 257 747 b 578 44 257 245 378 44 m 368 650 l 406 650 b 515 515 427 545 440 515 l 621 515 b 730 650 696 515 710 545 l 769 650 l 769 319 l 730 319 b 621 455 710 425 696 455 l 515 455 b 406 319 440 455 427 425 l 368 319 "},"Ι":{"ha":479,"x_min":0,"x_max":0,"o":"m 329 132 b 437 46 329 71 341 58 l 437 0 l 42 0 l 42 46 b 150 132 138 58 150 71 l 150 848 b 42 933 150 908 138 922 l 42 979 l 437 979 l 437 933 b 329 848 341 922 329 908 l 329 132 "},"Κ":{"ha":955,"x_min":0,"x_max":0,"o":"m 329 128 b 431 46 329 70 342 58 l 431 0 l 42 0 l 42 46 b 150 132 137 58 150 71 l 150 848 b 42 933 150 908 137 922 l 42 979 l 431 979 l 431 932 b 329 850 342 922 329 909 l 329 534 l 431 534 l 650 799 b 618 933 729 895 721 924 l 618 979 l 943 979 l 943 933 b 712 771 866 918 815 882 b 558 602 656 713 606 655 l 785 235 b 959 43 874 93 909 58 l 959 0 l 727 0 l 432 478 l 329 478 l 329 128 "},"Λ":{"ha":968,"x_min":0,"x_max":0,"o":"m -1 46 b 136 179 74 56 100 76 l 422 979 l 551 979 l 833 180 b 970 46 870 75 897 56 l 970 0 l 563 0 l 563 46 b 648 169 648 58 678 76 l 429 821 l 218 185 b 300 46 187 89 193 59 l 300 0 l -1 0 "},"Μ":{"ha":1265,"x_min":0,"x_max":0,"o":"m 640 190 l 907 980 l 1215 979 l 1215 933 b 1109 848 1122 922 1107 908 l 1128 132 b 1236 46 1130 71 1141 57 l 1236 0 l 848 0 l 848 46 b 950 130 938 57 951 70 l 932 848 l 705 229 l 624 0 l 536 0 l 212 854 l 210 161 b 314 46 209 77 220 58 l 314 0 l 24 0 l 24 46 b 131 159 116 58 127 76 l 151 830 b 49 933 153 902 136 921 l 49 979 l 347 979 "},"Ν":{"ha":1044,"x_min":0,"x_max":0,"o":"m 850 172 l 838 817 b 727 933 836 904 824 922 l 727 979 l 1022 979 l 1022 933 b 917 818 929 920 918 902 l 911 0 l 744 0 l 193 839 l 205 163 b 316 46 207 75 220 57 l 316 0 l 21 0 l 21 46 b 127 161 114 59 126 77 l 131 829 b 28 933 131 901 116 920 l 28 979 l 319 979 "},"Ξ":{"ha":922,"x_min":0,"x_max":0,"o":"m 64 979 l 858 979 l 868 708 l 825 708 b 577 857 793 832 741 857 l 345 857 b 97 708 181 857 129 832 l 54 708 m 208 651 l 248 651 b 395 524 267 552 294 524 l 527 524 b 674 651 628 524 656 552 l 714 651 l 714 337 l 674 337 b 527 466 656 437 628 466 l 395 466 b 248 337 294 466 267 437 l 208 337 m 47 300 l 90 300 b 363 124 123 144 172 124 l 558 124 b 832 300 750 124 798 144 l 876 300 l 863 0 l 58 0 "},"Ο":{"ha":1137,"x_min":0,"x_max":0,"o":"m 66 489 b 569 998 66 772 264 998 b 1071 490 831 998 1071 804 b 568 -18 1071 207 872 -18 b 66 489 305 -18 66 176 m 266 501 b 576 47 266 250 384 47 b 871 479 785 47 871 237 b 561 932 871 730 753 932 b 266 501 352 932 266 743 "},"Π":{"ha":1093,"x_min":0,"x_max":0,"o":"m 42 46 b 150 132 138 58 150 71 l 150 848 b 42 933 150 908 138 922 l 42 979 l 1051 979 l 1051 933 b 943 848 956 922 943 908 l 943 132 b 1051 46 943 71 956 58 l 1051 0 l 662 0 l 662 46 b 764 128 751 58 764 70 l 764 921 l 329 921 l 329 128 b 431 46 329 70 342 58 l 431 0 l 42 0 "},"Ρ":{"ha":907,"x_min":0,"x_max":0,"o":"m 853 691 b 435 384 853 489 677 384 l 329 384 l 329 141 b 446 46 329 75 343 58 l 446 0 l 42 0 l 42 46 b 150 132 138 58 150 71 l 150 848 b 42 933 150 908 138 922 l 42 979 l 435 979 b 853 691 696 979 853 882 m 662 680 b 388 923 662 825 574 916 l 329 926 l 329 437 l 388 439 b 662 680 572 448 662 532 "},"Σ":{"ha":886,"x_min":0,"x_max":0,"o":"m 53 88 l 384 467 l 50 936 l 50 979 l 783 979 l 791 731 l 747 731 b 488 920 711 873 668 913 l 264 926 l 534 545 l 534 526 l 159 126 l 497 126 b 772 309 690 126 737 149 l 819 309 l 809 0 l 53 0 "},"Τ":{"ha":924,"x_min":0,"x_max":0,"o":"m 892 730 l 848 730 b 590 924 819 886 768 916 l 551 926 l 551 141 b 669 46 551 75 566 58 l 669 0 l 256 0 l 256 46 b 372 141 358 58 372 75 l 372 926 l 334 924 b 76 730 156 916 105 886 l 33 730 l 41 979 l 883 979 "},"Υ":{"ha":932,"x_min":0,"x_max":0,"o":"m 154 802 b -5 933 91 903 68 922 l -5 979 l 400 979 l 400 933 b 349 801 302 921 294 895 l 528 497 l 694 792 b 644 933 751 895 746 920 l 644 979 l 937 979 l 937 933 b 768 788 863 922 839 901 l 557 444 l 557 141 b 673 46 557 75 571 58 l 673 0 l 260 0 l 260 46 b 377 141 363 58 377 75 l 377 435 l 154 802 "},"Φ":{"ha":1248,"x_min":0,"x_max":0,"o":"m 422 46 b 539 141 525 58 539 75 l 539 142 b 58 488 245 151 58 270 b 539 837 58 711 263 827 l 539 838 b 422 933 539 905 525 922 l 422 979 l 825 979 l 825 933 b 707 838 722 922 707 905 l 707 837 b 1190 491 997 828 1190 709 b 707 142 1190 270 987 151 l 707 141 b 825 46 707 75 722 58 l 825 0 l 422 0 m 1005 488 b 707 779 1005 661 900 768 l 707 201 b 1005 488 890 212 1005 318 m 241 493 b 539 200 241 318 349 212 l 539 779 b 241 493 355 767 241 661 "},"Χ":{"ha":951,"x_min":0,"x_max":0,"o":"m 385 475 l 159 819 b 10 933 107 898 81 918 l 10 979 l 423 979 l 423 933 b 370 812 320 919 315 896 l 533 565 l 680 797 b 634 933 743 895 740 919 l 634 979 l 942 979 l 942 933 b 755 788 861 923 833 902 l 566 515 l 800 160 b 950 46 851 81 880 62 l 950 0 l 535 0 l 535 46 b 588 167 637 61 642 86 l 418 425 l 263 184 b 309 46 200 84 203 60 l 309 0 l 1 0 l 1 46 b 191 197 82 56 109 77 "},"Ψ":{"ha":1206,"x_min":0,"x_max":0,"o":"m 402 46 b 518 141 504 58 518 75 l 518 345 b 150 661 302 353 182 439 l 127 818 b 29 925 115 901 93 922 l 29 971 b 122 979 48 975 85 979 b 292 812 220 979 272 941 l 316 648 b 518 404 340 490 393 416 l 518 850 b 416 932 518 909 505 922 l 416 979 l 789 979 l 789 932 b 688 850 701 922 688 909 l 688 404 b 890 648 813 416 866 489 l 915 812 b 1084 979 935 941 985 979 b 1177 971 1120 979 1158 975 l 1177 925 b 1079 818 1114 922 1090 901 l 1056 661 b 688 345 1024 439 904 353 l 688 141 b 804 46 688 75 703 58 l 804 0 l 402 0 "},"Ω":{"ha":1068,"x_min":0,"x_max":0,"o":"m 22 250 l 59 250 b 409 106 109 134 197 106 l 409 183 b 43 570 195 215 43 355 b 531 998 43 814 237 998 b 1021 580 819 998 1021 820 b 656 183 1021 359 872 215 l 656 106 b 1005 250 874 106 959 136 l 1042 250 l 1009 0 l 600 0 l 600 217 b 836 572 749 258 836 388 b 527 932 836 791 717 932 b 229 582 341 932 229 795 b 465 218 229 396 308 264 l 465 0 l 56 0 "},"Ά":{"ha":975,"x_min":0,"x_max":0,"o":"m 841 182 b 979 46 880 77 901 57 l 979 0 l 572 0 l 572 46 b 652 183 672 59 687 83 l 600 336 l 264 336 l 216 193 b 294 46 179 83 191 60 l 294 0 l -6 0 l -6 46 b 138 196 76 58 95 77 l 425 979 l 551 979 l 841 182 m 144 979 l 309 979 l 309 972 l 167 729 l 107 729 m 578 395 l 431 823 l 285 395 "},"Έ":{"ha":1086,"x_min":0,"x_max":0,"o":"m 1005 730 l 962 730 b 706 920 926 880 874 913 l 543 926 l 543 528 l 721 530 b 821 667 782 531 798 555 l 861 667 l 861 336 l 821 336 b 721 473 801 446 783 472 l 543 475 l 543 54 l 717 60 b 995 278 910 67 958 94 l 1038 278 l 1027 0 l 255 0 l 255 46 b 363 132 351 58 363 71 l 363 848 b 255 933 363 908 351 922 l 255 979 l 996 979 m 37 979 l 201 979 l 201 972 l 59 729 l 0 729 "},"Ή":{"ha":1333,"x_min":0,"x_max":0,"o":"m 543 128 b 644 46 543 70 555 58 l 644 0 l 255 0 l 255 46 b 363 132 351 58 363 71 l 363 848 b 255 933 363 908 351 922 l 255 979 l 644 979 l 644 932 b 543 850 556 922 543 909 l 543 530 l 1004 530 l 1004 851 b 903 933 1004 909 993 922 l 903 979 l 1291 979 l 1291 933 b 1184 848 1198 922 1184 909 l 1184 132 b 1291 46 1184 71 1198 58 l 1291 0 l 903 0 l 903 46 b 1004 128 993 58 1004 70 l 1004 472 l 543 472 l 543 128 m 37 979 l 201 979 l 201 972 l 59 729 l 0 729 "},"Ί":{"ha":689,"x_min":0,"x_max":0,"o":"m 539 132 b 647 46 539 71 552 58 l 647 0 l 252 0 l 252 46 b 360 132 348 58 360 71 l 360 848 b 252 933 360 908 348 922 l 252 979 l 647 979 l 647 933 b 539 848 552 922 539 908 l 539 132 m 34 979 l 198 979 l 198 972 l 56 729 l -3 729 "},"Ό":{"ha":1200,"x_min":0,"x_max":0,"o":"m 130 489 b 632 998 130 772 328 998 b 1134 490 895 998 1134 804 b 631 -18 1134 207 935 -18 b 130 489 368 -18 130 176 m 34 979 l 198 979 l 198 972 l 56 729 l -3 729 m 329 501 b 640 47 329 250 447 47 b 934 479 848 47 934 237 b 624 932 934 730 816 932 b 329 501 415 932 329 743 "},"Ύ":{"ha":1168,"x_min":0,"x_max":0,"o":"m 391 802 b 232 933 328 903 305 922 l 232 979 l 637 979 l 637 933 b 585 801 539 921 530 895 l 764 497 l 930 792 b 881 933 987 895 983 920 l 881 979 l 1173 979 l 1173 933 b 1005 788 1099 922 1076 901 l 793 444 l 793 141 b 910 46 793 75 808 58 l 910 0 l 497 0 l 497 46 b 614 141 600 58 614 75 l 614 435 l 391 802 m 34 979 l 198 979 l 198 972 l 56 729 l -3 729 "},"Ώ":{"ha":1173,"x_min":0,"x_max":0,"o":"m 125 250 l 163 250 b 513 106 214 134 301 106 l 513 183 b 147 570 300 215 147 355 b 635 998 146 814 340 998 b 1126 580 924 998 1126 820 b 760 183 1126 359 976 215 l 760 106 b 1109 250 979 106 1063 136 l 1146 250 l 1113 0 l 705 0 l 705 217 b 941 572 853 258 941 388 b 631 932 941 791 821 932 b 332 582 446 932 332 795 b 569 218 332 396 412 264 l 569 0 l 160 0 m 34 979 l 198 979 l 198 972 l 56 729 l -3 729 "},"Ϊ":{"ha":479,"x_min":0,"x_max":0,"o":"m 125 1076 b 48 1150 82 1076 48 1108 b 125 1225 48 1192 82 1225 b 201 1150 167 1225 201 1192 b 125 1076 201 1108 167 1076 m 355 1076 b 279 1150 313 1076 279 1108 b 355 1225 279 1192 313 1225 b 431 1150 397 1225 431 1192 b 355 1076 431 1108 397 1076 m 329 132 b 437 46 329 71 341 58 l 437 0 l 42 0 l 42 46 b 150 132 138 58 150 71 l 150 848 b 42 933 150 908 138 922 l 42 979 l 437 979 l 437 933 b 329 848 341 922 329 908 l 329 132 "},"Ϋ":{"ha":932,"x_min":0,"x_max":0,"o":"m 399 1076 b 323 1150 356 1076 323 1108 b 399 1225 323 1192 356 1225 b 475 1150 441 1225 475 1192 b 399 1076 475 1108 441 1076 m 629 1076 b 553 1150 587 1076 553 1108 b 629 1225 553 1192 587 1225 b 705 1150 671 1225 705 1192 b 629 1076 705 1108 671 1076 m 154 802 b -5 933 91 903 68 922 l -5 979 l 400 979 l 400 933 b 349 801 302 921 294 895 l 528 497 l 694 792 b 644 933 751 895 746 920 l 644 979 l 937 979 l 937 933 b 768 788 863 922 839 901 l 557 444 l 557 141 b 673 46 557 75 571 58 l 673 0 l 260 0 l 260 46 b 377 141 363 58 377 75 l 377 435 l 154 802 "},"А":{"ha":972,"x_min":0,"x_max":0,"o":"m 841 182 b 979 46 880 77 901 57 l 979 0 l 572 0 l 572 46 b 652 183 672 59 687 83 l 600 336 l 264 336 l 216 193 b 294 46 179 83 191 60 l 294 0 l -6 0 l -6 46 b 138 196 76 58 95 77 l 425 979 l 551 979 l 841 182 m 578 395 l 431 823 l 285 395 "},"Ӑ":{"ha":975,"x_min":0,"x_max":0,"o":"m 487 1078 b 277 1234 359 1078 277 1149 b 350 1313 277 1283 307 1313 b 420 1243 391 1313 420 1282 b 360 1176 420 1206 392 1176 b 487 1132 388 1148 433 1132 b 614 1176 541 1132 585 1148 b 553 1243 580 1178 553 1207 b 624 1313 553 1282 582 1313 b 697 1234 667 1313 697 1283 b 487 1078 697 1149 616 1078 m 841 182 b 979 46 880 77 901 57 l 979 0 l 572 0 l 572 46 b 652 183 672 59 687 83 l 600 336 l 264 336 l 216 193 b 294 46 179 83 191 60 l 294 0 l -6 0 l -6 46 b 138 196 76 58 95 77 l 425 979 l 551 979 l 841 182 m 578 395 l 431 823 l 285 395 "},"Б":{"ha":902,"x_min":0,"x_max":0,"o":"m 852 284 b 456 0 852 113 705 0 l 42 0 l 42 46 b 149 132 137 58 149 71 l 149 848 b 42 933 149 908 137 922 l 42 979 l 765 979 l 773 736 l 730 736 b 477 920 695 886 646 915 l 329 925 l 329 560 l 456 560 b 852 284 716 560 852 451 m 661 281 b 406 500 661 414 575 494 l 329 503 l 329 56 l 406 58 b 661 281 578 63 661 142 "},"В":{"ha":945,"x_min":0,"x_max":0,"o":"m 886 284 b 460 0 886 95 692 0 l 42 0 l 42 46 b 150 132 138 58 150 71 l 150 848 b 42 933 150 908 138 922 l 42 979 l 460 979 b 837 744 699 979 837 893 b 580 532 837 617 722 546 b 886 284 762 519 886 435 m 653 726 b 414 923 653 842 585 918 l 329 926 l 329 541 l 442 541 b 653 726 579 542 653 610 m 695 272 b 442 486 695 407 605 486 l 329 487 l 329 54 l 414 56 b 695 272 588 62 695 131 "},"Г":{"ha":796,"x_min":0,"x_max":0,"o":"m 760 733 l 717 733 b 461 921 682 883 628 915 l 329 926 l 329 141 b 446 46 329 75 343 58 l 446 0 l 42 0 l 42 46 b 150 132 138 58 150 71 l 150 848 b 42 933 150 908 138 922 l 42 979 l 752 979 "},"Ґ":{"ha":742,"x_min":0,"x_max":0,"o":"m 463 979 b 673 1194 592 979 619 1001 l 724 1194 l 719 921 l 329 921 l 329 141 b 446 46 329 75 343 58 l 446 0 l 42 0 l 42 46 b 150 132 138 58 150 71 l 150 848 b 42 933 150 908 138 922 l 42 979 "},"Ѓ":{"ha":796,"x_min":0,"x_max":0,"o":"m 332 1054 l 433 1246 l 607 1246 l 607 1241 l 390 1054 m 760 733 l 717 733 b 461 921 682 883 628 915 l 329 926 l 329 141 b 446 46 329 75 343 58 l 446 0 l 42 0 l 42 46 b 150 132 138 58 150 71 l 150 848 b 42 933 150 908 138 922 l 42 979 l 752 979 "},"Д":{"ha":1026,"x_min":0,"x_max":0,"o":"m 992 -215 l 941 -215 b 669 0 901 -39 846 0 l 340 0 b 66 -215 171 0 109 -29 l 15 -215 l 20 58 l 123 58 b 252 627 210 171 243 362 l 259 810 b 134 933 262 903 239 920 l 134 979 l 972 979 l 972 933 b 856 838 870 922 856 905 l 856 58 l 987 58 m 676 921 l 335 921 l 324 627 b 210 58 315 351 283 172 l 676 58 "},"Е":{"ha":873,"x_min":0,"x_max":0,"o":"m 791 730 l 748 730 b 492 920 713 880 661 913 l 329 926 l 329 528 l 507 530 b 608 667 568 531 585 555 l 648 667 l 648 336 l 608 336 b 507 473 587 446 570 472 l 329 475 l 329 54 l 503 60 b 781 278 696 67 745 94 l 825 278 l 814 0 l 42 0 l 42 46 b 150 132 138 58 150 71 l 150 848 b 42 933 150 908 138 922 l 42 979 l 783 979 "},"Ё":{"ha":873,"x_min":0,"x_max":0,"o":"m 341 1076 b 265 1150 299 1076 265 1108 b 341 1225 265 1192 299 1225 b 418 1150 384 1225 418 1192 b 341 1076 418 1108 384 1076 m 572 1076 b 496 1150 529 1076 496 1108 b 572 1225 496 1192 529 1225 b 648 1150 614 1225 648 1192 b 572 1076 648 1108 614 1076 m 791 730 l 748 730 b 492 920 713 880 661 913 l 329 926 l 329 528 l 507 530 b 608 667 568 531 585 555 l 648 667 l 648 336 l 608 336 b 507 473 587 446 570 472 l 329 475 l 329 54 l 503 60 b 781 278 696 67 745 94 l 825 278 l 814 0 l 42 0 l 42 46 b 150 132 138 58 150 71 l 150 848 b 42 933 150 908 138 922 l 42 979 l 783 979 "},"Ж":{"ha":1381,"x_min":0,"x_max":0,"o":"m -4 0 l -4 43 b 171 235 49 58 81 90 l 394 597 l 225 783 b 8 933 129 889 91 918 l 8 979 l 330 979 l 330 933 b 288 812 227 924 220 894 l 518 534 l 602 534 l 602 851 b 500 933 602 909 590 922 l 500 979 l 873 979 l 873 933 b 772 851 783 922 772 909 l 772 534 l 855 534 l 1086 812 b 1043 933 1153 894 1146 924 l 1043 979 l 1365 979 l 1365 933 b 1145 783 1282 918 1242 889 l 983 604 l 1210 235 b 1385 43 1300 90 1332 58 l 1385 0 l 1149 0 l 857 477 l 772 478 l 772 128 b 873 46 772 70 783 58 l 873 0 l 500 0 l 500 46 b 602 128 590 58 602 70 l 602 478 l 517 477 l 224 0 "},"З":{"ha":862,"x_min":0,"x_max":0,"o":"m 803 283 b 394 -18 803 90 618 -18 b 85 64 267 -18 148 20 l 77 275 l 120 275 b 378 47 158 111 250 47 b 612 272 517 47 612 127 b 362 484 612 410 523 484 l 269 484 l 269 539 l 362 539 b 578 738 501 539 578 615 b 391 932 578 854 517 932 b 140 711 257 932 176 862 l 97 711 l 104 922 b 407 998 161 962 272 998 b 764 758 644 998 764 906 b 513 530 764 630 652 553 b 803 283 678 515 803 439 "},"И":{"ha":1137,"x_min":0,"x_max":0,"o":"m 329 128 b 431 46 329 70 342 58 l 431 0 l 42 0 l 42 46 b 150 132 138 58 150 71 l 150 848 b 42 933 150 908 138 922 l 42 979 l 431 979 l 431 932 b 329 850 342 922 329 909 l 329 247 l 808 821 l 808 851 b 706 933 808 909 795 922 l 706 979 l 1095 979 l 1095 933 b 987 848 1001 922 987 909 l 987 132 b 1095 46 987 71 1001 58 l 1095 0 l 706 0 l 706 46 b 808 128 795 58 808 70 l 808 733 l 329 159 l 329 128 "},"Й":{"ha":1137,"x_min":0,"x_max":0,"o":"m 568 1078 b 358 1234 440 1078 358 1149 b 431 1313 358 1283 389 1313 b 502 1243 473 1313 502 1282 b 441 1176 502 1206 473 1176 b 568 1132 469 1148 514 1132 b 695 1176 622 1132 667 1148 b 635 1243 661 1178 635 1207 b 705 1313 635 1282 663 1313 b 779 1234 748 1313 779 1283 b 568 1078 779 1149 697 1078 m 329 128 b 431 46 329 70 342 58 l 431 0 l 42 0 l 42 46 b 150 132 138 58 150 71 l 150 848 b 42 933 150 908 138 922 l 42 979 l 431 979 l 431 932 b 329 850 342 922 329 909 l 329 247 l 808 821 l 808 851 b 706 933 808 909 795 922 l 706 979 l 1095 979 l 1095 933 b 987 848 1001 922 987 909 l 987 132 b 1095 46 987 71 1001 58 l 1095 0 l 706 0 l 706 46 b 808 128 795 58 808 70 l 808 733 l 329 159 l 329 128 "},"К":{"ha":955,"x_min":0,"x_max":0,"o":"m 329 128 b 431 46 329 70 342 58 l 431 0 l 42 0 l 42 46 b 150 132 137 58 150 71 l 150 848 b 42 933 150 908 137 922 l 42 979 l 431 979 l 431 932 b 329 850 342 922 329 909 l 329 534 l 431 534 l 650 799 b 618 933 729 895 721 924 l 618 979 l 943 979 l 943 933 b 712 771 866 918 815 882 b 558 602 656 713 606 655 l 785 235 b 959 43 874 93 909 58 l 959 0 l 727 0 l 432 478 l 329 478 l 329 128 "},"Ќ":{"ha":955,"x_min":0,"x_max":0,"o":"m 434 1054 l 534 1246 l 708 1246 l 708 1241 l 492 1054 m 329 128 b 431 46 329 70 342 58 l 431 0 l 42 0 l 42 46 b 150 132 137 58 150 71 l 150 848 b 42 933 150 908 137 922 l 42 979 l 431 979 l 431 932 b 329 850 342 922 329 909 l 329 534 l 431 534 l 650 799 b 618 933 729 895 721 924 l 618 979 l 943 979 l 943 933 b 712 771 866 918 815 882 b 558 602 656 713 606 655 l 785 235 b 959 43 874 93 909 58 l 959 0 l 727 0 l 432 478 l 329 478 l 329 128 "},"Ӄ":{"ha":949,"x_min":0,"x_max":0,"o":"m 329 128 b 431 46 329 70 342 58 l 431 0 l 42 0 l 42 46 b 150 132 137 58 150 71 l 150 848 b 42 933 150 908 137 922 l 42 979 l 431 979 l 431 932 b 329 850 342 922 329 909 l 329 534 l 431 534 l 650 799 b 618 933 729 895 721 924 l 618 979 l 943 979 l 943 933 b 712 771 866 918 815 882 b 559 603 657 713 606 656 l 798 307 b 901 79 873 215 901 165 b 573 -243 901 -59 782 -166 l 553 -201 b 722 43 663 -132 722 -50 b 640 233 722 114 694 165 l 439 478 l 329 478 l 329 128 "},"Л":{"ha":1025,"x_min":0,"x_max":0,"o":"m 7 81 b 103 178 7 136 49 178 b 194 106 146 178 183 147 b 277 616 250 190 269 358 l 284 815 b 158 933 287 898 266 920 l 158 979 l 983 979 l 983 933 b 875 848 889 922 875 909 l 875 132 b 983 46 875 71 889 58 l 983 0 l 588 0 l 588 46 b 696 132 682 58 696 71 l 696 921 l 359 921 l 349 614 b 116 -18 338 224 293 -18 b 7 81 48 -18 7 25 "},"М":{"ha":1265,"x_min":0,"x_max":0,"o":"m 640 190 l 907 980 l 1215 979 l 1215 933 b 1109 848 1122 922 1107 908 l 1128 132 b 1236 46 1130 71 1141 57 l 1236 0 l 848 0 l 848 46 b 950 130 938 57 951 70 l 932 848 l 705 229 l 624 0 l 536 0 l 212 854 l 210 161 b 314 46 209 77 220 58 l 314 0 l 24 0 l 24 46 b 131 159 116 58 127 76 l 151 830 b 49 933 153 902 136 921 l 49 979 l 347 979 "},"Н":{"ha":1120,"x_min":0,"x_max":0,"o":"m 329 128 b 431 46 329 70 342 58 l 431 0 l 42 0 l 42 46 b 150 132 137 58 150 71 l 150 848 b 42 933 150 908 138 922 l 42 979 l 431 979 l 431 932 b 329 850 342 922 329 909 l 329 530 l 791 530 l 791 851 b 689 933 791 909 779 922 l 689 979 l 1078 979 l 1078 933 b 970 848 985 922 970 909 l 970 132 b 1078 46 970 71 985 58 l 1078 0 l 689 0 l 689 46 b 791 128 779 58 791 70 l 791 472 l 329 472 l 329 128 "},"О":{"ha":1137,"x_min":0,"x_max":0,"o":"m 66 489 b 569 998 66 772 264 998 b 1071 490 831 998 1071 804 b 568 -18 1071 207 872 -18 b 66 489 305 -18 66 176 m 266 501 b 576 47 266 250 384 47 b 871 479 785 47 871 237 b 561 932 871 730 753 932 b 266 501 352 932 266 743 "},"П":{"ha":1113,"x_min":0,"x_max":0,"o":"m 150 848 b 42 933 150 908 138 922 l 42 979 l 1072 979 l 1072 933 b 964 848 977 922 964 908 l 964 132 b 1072 46 964 71 977 58 l 1072 0 l 682 0 l 682 46 b 784 128 770 58 784 70 l 784 921 l 329 921 l 329 128 b 431 46 329 70 342 58 l 431 0 l 42 0 l 42 46 b 150 132 138 58 150 71 "},"Р":{"ha":905,"x_min":0,"x_max":0,"o":"m 853 691 b 435 384 853 489 677 384 l 329 384 l 329 141 b 446 46 329 75 343 58 l 446 0 l 42 0 l 42 46 b 150 132 138 58 150 71 l 150 848 b 42 933 150 908 138 922 l 42 979 l 435 979 b 853 691 696 979 853 882 m 662 680 b 388 923 662 825 574 916 l 329 926 l 329 437 l 388 439 b 662 680 572 448 662 532 "},"С":{"ha":975,"x_min":0,"x_max":0,"o":"m 66 492 b 582 998 66 811 292 998 b 903 925 733 998 846 966 l 911 697 l 867 697 b 596 932 830 857 740 932 b 266 507 387 932 266 761 b 597 47 266 248 395 47 b 871 290 736 47 832 115 l 915 290 l 907 62 b 583 -18 850 20 720 -18 b 66 492 298 -18 66 175 "},"Т":{"ha":924,"x_min":0,"x_max":0,"o":"m 892 730 l 848 730 b 590 924 819 886 768 916 l 551 926 l 551 141 b 669 46 551 75 566 58 l 669 0 l 256 0 l 256 46 b 372 141 358 58 372 75 l 372 926 l 334 924 b 76 730 156 916 105 886 l 33 730 l 41 979 l 883 979 "},"У":{"ha":979,"x_min":0,"x_max":0,"o":"m 166 80 b 261 174 166 132 209 174 b 355 75 313 174 355 129 b 355 65 355 71 355 68 b 469 233 394 96 429 151 l 142 831 b -1 933 100 907 83 921 l -1 979 l 416 979 l 416 933 b 338 827 300 920 296 909 l 562 404 l 763 823 b 682 933 804 909 800 919 l 682 979 l 987 979 l 987 933 b 840 823 901 921 882 906 l 534 229 b 274 -18 446 60 376 -18 b 166 80 211 -18 166 24 "},"Ў":{"ha":979,"x_min":0,"x_max":0,"o":"m 538 1078 b 328 1234 410 1078 328 1149 b 401 1313 328 1283 359 1313 b 472 1243 443 1313 472 1282 b 411 1176 472 1206 444 1176 b 538 1132 439 1148 484 1132 b 665 1176 592 1132 637 1148 b 605 1243 631 1178 605 1207 b 675 1313 605 1282 633 1313 b 749 1234 718 1313 749 1283 b 538 1078 749 1149 667 1078 m 166 80 b 261 174 166 132 209 174 b 355 75 313 174 355 129 b 355 65 355 71 355 68 b 469 233 394 96 429 151 l 142 831 b -1 933 100 907 83 921 l -1 979 l 416 979 l 416 933 b 338 827 300 920 296 909 l 562 404 l 763 823 b 682 933 804 909 800 919 l 682 979 l 987 979 l 987 933 b 840 823 901 921 882 906 l 534 229 b 274 -18 446 60 376 -18 b 166 80 211 -18 166 24 "},"Ф":{"ha":1284,"x_min":0,"x_max":0,"o":"m 50 487 b 557 831 50 690 220 823 l 557 857 b 441 951 557 923 543 940 l 441 998 l 843 998 l 843 951 b 727 857 741 940 727 923 l 727 831 b 1234 489 1059 823 1234 690 b 727 147 1234 281 1041 156 l 727 123 b 843 28 727 56 741 39 l 843 -18 l 441 -18 l 441 28 b 557 123 543 39 557 56 l 557 147 b 50 487 248 156 50 281 m 241 492 b 557 207 241 345 339 218 l 557 772 b 241 492 328 761 241 637 m 1043 490 b 727 772 1043 636 954 761 l 727 207 b 1043 490 946 218 1043 343 "},"Х":{"ha":951,"x_min":0,"x_max":0,"o":"m 385 475 l 159 819 b 10 933 107 898 81 918 l 10 979 l 423 979 l 423 933 b 370 812 320 919 315 896 l 533 565 l 680 797 b 634 933 743 895 740 919 l 634 979 l 942 979 l 942 933 b 755 788 861 923 833 902 l 566 515 l 800 160 b 950 46 851 81 880 62 l 950 0 l 535 0 l 535 46 b 588 167 637 61 642 86 l 418 425 l 263 184 b 309 46 200 84 203 60 l 309 0 l 1 0 l 1 46 b 191 197 82 56 109 77 "},"Џ":{"ha":1113,"x_min":0,"x_max":0,"o":"m 329 58 l 784 58 l 784 851 b 682 933 784 909 770 922 l 682 979 l 1072 979 l 1072 933 b 964 848 977 922 964 908 l 964 132 b 1072 46 964 71 977 58 l 1072 0 l 697 0 b 582 -212 627 0 612 -18 l 532 -212 b 416 0 502 -18 486 0 l 42 0 l 42 46 b 150 132 138 58 150 71 l 150 848 b 42 933 150 908 138 922 l 42 979 l 431 979 l 431 933 b 329 851 342 922 329 909 "},"Ц":{"ha":1135,"x_min":0,"x_max":0,"o":"m 329 58 l 784 58 l 784 851 b 682 933 784 909 770 922 l 682 979 l 1072 979 l 1072 933 b 964 848 977 922 964 908 l 964 58 l 1095 58 l 1101 -215 l 1050 -215 b 840 0 996 -22 968 0 l 42 0 l 42 46 b 150 132 138 58 150 71 l 150 848 b 42 933 150 908 138 922 l 42 979 l 431 979 l 431 933 b 329 851 342 922 329 909 "},"Ч":{"ha":1072,"x_min":0,"x_max":0,"o":"m 923 132 b 1030 46 923 71 935 58 l 1030 0 l 625 0 l 625 46 b 743 140 729 58 743 75 l 743 428 b 493 382 682 401 591 382 b 132 703 271 382 132 485 l 132 851 b 31 933 132 909 121 922 l 31 979 l 414 979 l 414 933 b 312 851 323 922 312 909 l 312 702 b 543 453 312 535 383 453 b 743 486 619 453 688 464 l 743 851 b 642 933 743 909 732 922 l 642 979 l 1030 979 l 1030 933 b 923 848 935 922 923 908 l 923 132 "},"Ҽ":{"ha":1206,"x_min":0,"x_max":0,"o":"m 120 814 b 219 717 174 814 219 772 b 124 619 219 662 180 619 b 117 619 122 619 119 619 b 258 562 143 585 189 567 b 732 998 286 829 467 998 b 1150 573 1009 998 1150 819 b 1144 504 1150 549 1147 525 l 452 504 b 452 492 452 500 452 496 b 770 47 452 210 565 47 b 1057 281 923 47 1022 127 l 1101 281 l 1093 54 b 753 -19 1033 14 910 -19 b 255 490 464 -19 255 160 b 255 506 255 495 255 500 b 17 702 94 519 17 598 b 120 814 17 768 59 814 m 728 932 b 454 559 557 932 468 785 l 970 560 b 971 587 971 569 971 578 b 728 932 971 776 907 932 "},"Ш":{"ha":1579,"x_min":0,"x_max":0,"o":"m 1430 132 b 1537 46 1430 71 1442 58 l 1537 0 l 42 0 l 42 46 b 150 132 138 58 150 71 l 150 848 b 42 933 150 908 138 922 l 42 979 l 431 979 l 431 932 b 329 852 342 922 329 909 l 329 58 l 700 58 l 700 852 b 598 932 700 909 686 922 l 598 979 l 981 979 l 981 932 b 880 852 892 922 880 909 l 880 58 l 1251 58 l 1251 852 b 1148 932 1251 909 1237 922 l 1148 979 l 1537 979 l 1537 933 b 1430 848 1442 922 1430 908 l 1430 132 "},"Щ":{"ha":1601,"x_min":0,"x_max":0,"o":"m 1567 -215 l 1516 -215 b 1306 0 1461 -22 1434 0 l 42 0 l 42 46 b 150 132 138 58 150 71 l 150 848 b 42 933 150 908 138 922 l 42 979 l 431 979 l 431 932 b 329 852 342 922 329 909 l 329 58 l 700 58 l 700 852 b 598 932 700 909 686 922 l 598 979 l 981 979 l 981 932 b 880 852 892 922 880 909 l 880 58 l 1251 58 l 1251 852 b 1148 932 1251 909 1237 922 l 1148 979 l 1537 979 l 1537 933 b 1430 848 1442 922 1430 908 l 1430 58 l 1561 58 "},"Ъ":{"ha":1060,"x_min":0,"x_max":0,"o":"m 198 46 b 306 132 294 58 306 71 l 306 926 l 303 925 b 68 728 142 918 96 884 l 24 728 l 33 979 l 602 979 l 602 933 b 485 838 499 922 485 905 l 485 593 l 618 593 b 1008 303 863 593 1008 490 b 626 0 1008 136 877 0 l 198 0 m 817 296 b 568 536 817 448 727 534 l 485 536 l 485 55 l 575 57 b 817 296 741 61 817 152 "},"Ь":{"ha":904,"x_min":0,"x_max":0,"o":"m 42 46 b 150 132 138 58 150 71 l 150 848 b 42 933 150 908 138 922 l 42 979 l 446 979 l 446 933 b 329 838 343 922 329 905 l 329 593 l 463 593 b 852 303 707 593 852 490 b 470 0 852 136 720 0 l 42 0 m 661 296 b 412 536 661 448 571 534 l 329 536 l 329 55 l 419 57 b 661 296 585 61 661 152 "},"Ы":{"ha":1335,"x_min":0,"x_max":0,"o":"m 42 46 b 150 132 138 58 150 71 l 150 848 b 42 933 150 908 138 922 l 42 979 l 446 979 l 446 933 b 329 838 343 922 329 905 l 329 593 l 463 593 b 852 303 707 593 852 490 b 470 0 852 136 720 0 l 42 0 m 1186 132 b 1294 46 1186 71 1198 58 l 1294 0 l 899 0 l 899 46 b 1006 132 994 58 1006 71 l 1006 848 b 899 933 1006 908 994 922 l 899 979 l 1294 979 l 1294 933 b 1186 848 1198 922 1186 908 l 1186 132 m 661 296 b 412 536 661 448 571 534 l 329 536 l 329 55 l 419 57 b 661 296 585 61 661 152 "},"Љ":{"ha":1434,"x_min":0,"x_max":0,"o":"m 7 81 b 103 178 7 136 49 178 b 194 106 146 178 183 147 b 277 616 250 190 269 358 l 284 815 b 158 933 287 898 266 920 l 158 979 l 991 979 l 991 933 b 875 838 889 922 875 905 l 875 593 l 1008 593 b 1398 303 1253 593 1398 490 b 1016 0 1398 136 1266 0 l 588 0 l 588 46 b 696 132 682 58 696 71 l 696 921 l 359 921 l 349 614 b 116 -18 338 224 293 -18 b 7 81 48 -18 7 25 m 1206 296 b 957 536 1206 448 1117 534 l 875 536 l 875 55 l 965 57 b 1206 296 1131 61 1206 152 "},"Њ":{"ha":1531,"x_min":0,"x_max":0,"o":"m 329 128 b 431 46 329 70 342 58 l 431 0 l 42 0 l 42 46 b 150 132 137 58 150 71 l 150 848 b 42 933 150 908 137 922 l 42 979 l 431 979 l 431 933 b 329 851 342 922 329 909 l 329 550 l 791 550 l 791 851 b 689 933 791 909 778 922 l 689 979 l 1087 979 l 1087 933 b 970 838 985 922 970 905 l 970 550 l 1104 550 b 1494 281 1349 550 1494 454 b 1112 0 1494 125 1362 0 l 689 0 l 689 46 b 791 128 778 58 791 70 l 791 492 l 329 492 l 329 128 m 1303 275 b 1053 492 1303 412 1213 491 l 970 493 l 970 55 l 1060 57 b 1303 275 1225 61 1303 143 "},"Э":{"ha":995,"x_min":0,"x_max":0,"o":"m 77 272 l 120 272 b 395 47 159 101 263 47 b 730 471 591 47 722 225 l 275 466 l 275 535 l 730 530 b 397 932 719 776 594 932 b 126 713 257 932 163 867 l 83 713 l 91 922 b 410 998 149 964 265 998 b 928 501 712 998 928 812 b 408 -18 928 175 699 -18 b 85 64 279 -18 146 20 "},"Ю":{"ha":1558,"x_min":0,"x_max":0,"o":"m 329 128 b 431 46 329 70 342 58 l 431 0 l 42 0 l 42 46 b 150 132 138 58 150 71 l 150 848 b 42 933 150 908 138 922 l 42 979 l 431 979 l 431 932 b 329 850 342 922 329 909 l 329 530 l 498 530 b 996 998 515 796 707 998 b 1493 490 1255 998 1493 807 b 993 -18 1492 204 1295 -18 b 496 471 738 -18 505 165 l 329 471 l 329 128 m 1002 47 b 1295 479 1209 47 1294 234 b 986 932 1295 734 1177 932 b 694 501 779 932 694 746 b 1002 47 694 246 811 47 "},"Я":{"ha":941,"x_min":0,"x_max":0,"o":"m 100 697 b 471 979 100 870 231 979 l 900 979 l 900 932 b 792 847 806 922 792 908 l 792 132 b 900 46 792 72 806 58 l 900 0 l 511 0 l 511 46 b 612 128 601 58 612 71 l 612 432 l 480 432 l 221 0 l 18 0 l 18 43 b 174 227 65 59 87 86 l 315 457 b 100 697 195 484 100 562 m 284 708 b 525 486 284 569 382 488 l 612 486 l 612 926 l 524 923 b 284 708 364 918 284 844 "},"Є":{"ha":995,"x_min":0,"x_max":0,"o":"m 909 64 b 587 -18 849 20 715 -18 b 66 501 296 -18 66 175 b 585 998 66 812 283 998 b 904 922 729 998 846 964 l 912 713 l 869 713 b 597 932 831 867 738 932 b 265 530 401 932 276 776 l 720 535 l 720 466 l 264 471 b 600 47 273 225 404 47 b 875 272 732 47 836 101 l 918 272 l 909 64 "},"І":{"ha":479,"x_min":0,"x_max":0,"o":"m 329 132 b 437 46 329 71 341 58 l 437 0 l 42 0 l 42 46 b 150 132 138 58 150 71 l 150 848 b 42 933 150 908 138 922 l 42 979 l 437 979 l 437 933 b 329 848 341 922 329 908 l 329 132 "},"Ї":{"ha":479,"x_min":0,"x_max":0,"o":"m 125 1076 b 48 1150 82 1076 48 1108 b 125 1225 48 1192 82 1225 b 201 1150 167 1225 201 1192 b 125 1076 201 1108 167 1076 m 355 1076 b 279 1150 313 1076 279 1108 b 355 1225 279 1192 313 1225 b 431 1150 397 1225 431 1192 b 355 1076 431 1108 397 1076 m 329 132 b 437 46 329 71 341 58 l 437 0 l 42 0 l 42 46 b 150 132 138 58 150 71 l 150 848 b 42 933 150 908 138 922 l 42 979 l 437 979 l 437 933 b 329 848 341 922 329 908 l 329 132 "},"Ћ":{"ha":1295,"x_min":0,"x_max":0,"o":"m 653 0 l 264 0 l 264 46 b 372 132 359 58 372 71 l 372 926 l 319 924 b 76 729 157 916 106 882 l 33 729 l 41 979 l 888 979 l 897 729 l 853 729 b 609 923 822 881 772 916 l 551 926 l 551 551 b 802 597 614 578 705 597 b 1162 276 1025 597 1162 494 l 1162 128 b 1264 46 1162 70 1174 58 l 1264 0 l 881 0 l 881 46 b 983 128 971 58 983 70 l 983 277 b 751 526 983 444 911 526 b 551 494 676 526 606 515 l 551 128 b 653 46 551 70 564 58 "},"Ђ":{"ha":1178,"x_min":0,"x_max":0,"o":"m 668 0 l 264 0 l 264 46 b 372 132 359 58 372 71 l 372 926 l 319 924 b 76 727 157 916 107 881 l 33 727 l 41 979 l 888 979 l 897 727 l 853 727 b 608 923 821 881 772 916 l 551 926 l 551 509 b 784 563 601 540 683 563 b 1126 222 981 563 1126 452 l 1126 221 b 766 -260 1126 -9 976 -171 l 742 -222 b 947 204 874 -132 947 18 l 947 205 b 713 487 947 393 857 487 b 551 450 649 487 591 473 l 551 141 b 668 46 551 75 566 58 "},"Ѕ":{"ha":814,"x_min":0,"x_max":0,"o":"m 388 -18 b 75 62 252 -18 136 18 l 66 286 l 109 286 b 389 47 145 125 256 47 b 589 215 511 47 589 115 b 399 412 589 310 530 367 l 329 436 b 75 721 163 493 75 584 b 431 998 75 890 214 998 b 700 927 549 998 647 966 l 707 710 l 664 710 b 428 932 633 859 548 932 b 235 777 303 932 235 869 b 428 589 235 682 302 632 l 497 565 b 750 273 667 506 750 414 b 388 -18 750 94 589 -18 "},"Ј":{"ha":479,"x_min":0,"x_max":0,"o":"m 329 180 b -16 -279 329 -60 217 -161 l -39 -240 b 150 182 101 -142 150 -39 l 150 848 b 42 933 150 908 138 922 l 42 979 l 437 979 l 437 933 b 329 848 341 922 329 908 l 329 180 "},"Ѵ":{"ha":1055,"x_min":0,"x_max":0,"o":"m 132 798 b -6 933 94 902 73 922 l -6 979 l 401 979 l 401 933 b 321 796 301 920 287 897 l 543 158 l 756 795 b 950 998 802 935 854 998 b 1061 898 1022 998 1061 954 b 965 800 1061 842 1020 800 b 873 880 919 800 880 834 b 821 768 854 853 838 816 l 549 0 l 420 0 l 132 798 "},"&":{"ha":1089,"x_min":0,"x_max":0,"o":"m 349 -17 b 56 250 180 -17 56 91 b 295 524 56 370 134 463 b 174 768 209 618 174 686 b 452 998 174 896 286 998 b 715 795 616 998 715 913 b 493 559 715 696 640 621 b 516 538 500 553 508 545 l 743 320 l 807 417 b 760 562 874 517 860 547 l 760 608 l 1066 608 l 1066 562 b 869 410 994 553 959 530 l 777 287 l 859 210 b 1079 43 981 94 1027 60 l 1079 0 l 836 0 l 674 155 b 349 -17 575 43 478 -17 m 326 813 b 460 591 326 745 361 690 b 579 785 541 640 578 702 b 452 934 579 871 532 934 b 326 813 376 934 326 887 m 212 319 b 445 81 212 177 319 81 b 644 184 515 81 579 113 l 394 424 b 326 491 369 448 347 470 b 212 319 249 449 212 393 "},"a":{"ha":758,"x_min":0,"x_max":0,"o":"m 256 -14 b 57 155 140 -14 57 56 b 326 369 57 262 133 328 l 475 401 l 475 459 b 312 625 475 581 411 625 b 203 602 271 625 233 616 b 250 528 231 589 250 562 b 165 449 250 483 213 449 b 80 529 117 449 80 482 b 367 690 80 622 203 690 b 637 471 533 690 637 623 l 637 142 b 709 60 637 83 669 60 b 743 65 722 60 734 62 l 743 22 b 624 -10 718 5 675 -10 b 480 90 551 -10 495 25 b 256 -14 444 31 360 -14 m 222 183 b 342 68 222 110 273 68 b 475 133 401 68 448 92 l 475 347 l 396 330 b 222 183 267 300 222 257 "},"á":{"ha":758,"x_min":0,"x_max":0,"o":"m 267 772 l 380 1023 l 556 1023 l 556 1015 l 326 772 m 256 -14 b 57 155 140 -14 57 56 b 326 369 57 262 133 328 l 475 401 l 475 459 b 312 625 475 581 411 625 b 203 602 271 625 233 616 b 250 528 231 589 250 562 b 165 449 250 483 213 449 b 80 529 117 449 80 482 b 367 690 80 622 203 690 b 637 471 533 690 637 623 l 637 142 b 709 60 637 83 669 60 b 743 65 722 60 734 62 l 743 22 b 624 -10 718 5 675 -10 b 480 90 551 -10 495 25 b 256 -14 444 31 360 -14 m 222 183 b 342 68 222 110 273 68 b 475 133 401 68 448 92 l 475 347 l 396 330 b 222 183 267 300 222 257 "},"à":{"ha":758,"x_min":0,"x_max":0,"o":"m 151 1015 l 151 1023 l 333 1023 l 442 772 l 384 772 m 256 -14 b 57 155 140 -14 57 56 b 326 369 57 262 133 328 l 475 401 l 475 459 b 312 625 475 581 411 625 b 203 602 271 625 233 616 b 250 528 231 589 250 562 b 165 449 250 483 213 449 b 80 529 117 449 80 482 b 367 690 80 622 203 690 b 637 471 533 690 637 623 l 637 142 b 709 60 637 83 669 60 b 743 65 722 60 734 62 l 743 22 b 624 -10 718 5 675 -10 b 480 90 551 -10 495 25 b 256 -14 444 31 360 -14 m 222 183 b 342 68 222 110 273 68 b 475 133 401 68 448 92 l 475 347 l 396 330 b 222 183 267 300 222 257 "},"ȁ":{"ha":758,"x_min":0,"x_max":0,"o":"m 301 772 l 240 772 l 36 1015 l 36 1023 l 191 1023 m 503 772 l 444 772 l 302 1015 l 302 1023 l 446 1023 m 256 -14 b 57 155 140 -14 57 56 b 326 369 57 262 133 328 l 475 401 l 475 459 b 312 625 475 581 411 625 b 203 602 271 625 233 616 b 250 528 231 589 250 562 b 165 449 250 483 213 449 b 80 529 117 449 80 482 b 367 690 80 622 203 690 b 637 471 533 690 637 623 l 637 142 b 709 60 637 83 669 60 b 743 65 722 60 734 62 l 743 22 b 624 -10 718 5 675 -10 b 480 90 551 -10 495 25 b 256 -14 444 31 360 -14 m 222 183 b 342 68 222 110 273 68 b 475 133 401 68 448 92 l 475 347 l 396 330 b 222 183 267 300 222 257 "},"â":{"ha":758,"x_min":0,"x_max":0,"o":"m 145 772 l 303 1023 l 406 1023 l 564 772 l 503 772 l 355 905 l 203 772 m 256 -14 b 57 155 140 -14 57 56 b 326 369 57 262 133 328 l 475 401 l 475 459 b 312 625 475 581 411 625 b 203 602 271 625 233 616 b 250 528 231 589 250 562 b 165 449 250 483 213 449 b 80 529 117 449 80 482 b 367 690 80 622 203 690 b 637 471 533 690 637 623 l 637 142 b 709 60 637 83 669 60 b 743 65 722 60 734 62 l 743 22 b 624 -10 718 5 675 -10 b 480 90 551 -10 495 25 b 256 -14 444 31 360 -14 m 222 183 b 342 68 222 110 273 68 b 475 133 401 68 448 92 l 475 347 l 396 330 b 222 183 267 300 222 257 "},"ấ":{"ha":758,"x_min":0,"x_max":0,"o":"m 167 955 l 167 1004 l 543 1120 l 543 1017 m 167 804 l 338 928 l 370 928 l 542 804 l 542 755 l 355 827 l 167 755 m 256 -14 b 57 155 140 -14 57 56 b 326 369 57 262 133 328 l 475 401 l 475 459 b 312 625 475 581 411 625 b 203 602 271 625 233 616 b 250 528 231 589 250 562 b 165 449 250 483 213 449 b 80 529 117 449 80 482 b 367 690 80 622 203 690 b 637 471 533 690 637 623 l 637 142 b 709 60 637 83 669 60 b 743 65 722 60 734 62 l 743 22 b 624 -10 718 5 675 -10 b 480 90 551 -10 495 25 b 256 -14 444 31 360 -14 m 222 183 b 342 68 222 110 273 68 b 475 133 401 68 448 92 l 475 347 l 396 330 b 222 183 267 300 222 257 "},"ầ":{"ha":758,"x_min":0,"x_max":0,"o":"m 167 1120 l 543 1004 l 543 955 l 167 1017 m 167 804 l 338 928 l 370 928 l 542 804 l 542 755 l 355 827 l 167 755 m 256 -14 b 57 155 140 -14 57 56 b 326 369 57 262 133 328 l 475 401 l 475 459 b 312 625 475 581 411 625 b 203 602 271 625 233 616 b 250 528 231 589 250 562 b 165 449 250 483 213 449 b 80 529 117 449 80 482 b 367 690 80 622 203 690 b 637 471 533 690 637 623 l 637 142 b 709 60 637 83 669 60 b 743 65 722 60 734 62 l 743 22 b 624 -10 718 5 675 -10 b 480 90 551 -10 495 25 b 256 -14 444 31 360 -14 m 222 183 b 342 68 222 110 273 68 b 475 133 401 68 448 92 l 475 347 l 396 330 b 222 183 267 300 222 257 "},"ẫ":{"ha":758,"x_min":0,"x_max":0,"o":"m 434 972 b 346 990 403 972 374 979 l 326 998 b 264 1013 299 1008 281 1013 b 217 964 235 1013 218 999 l 167 964 b 275 1097 166 1053 213 1097 b 363 1078 306 1097 334 1089 l 383 1070 b 445 1055 410 1060 428 1055 b 492 1105 473 1055 492 1069 l 543 1105 b 434 972 543 1015 496 972 m 167 804 l 338 928 l 370 928 l 542 804 l 542 755 l 355 827 l 167 755 m 256 -14 b 57 155 140 -14 57 56 b 326 369 57 262 133 328 l 475 401 l 475 459 b 312 625 475 581 411 625 b 203 602 271 625 233 616 b 250 528 231 589 250 562 b 165 449 250 483 213 449 b 80 529 117 449 80 482 b 367 690 80 622 203 690 b 637 471 533 690 637 623 l 637 142 b 709 60 637 83 669 60 b 743 65 722 60 734 62 l 743 22 b 624 -10 718 5 675 -10 b 480 90 551 -10 495 25 b 256 -14 444 31 360 -14 m 222 183 b 342 68 222 110 273 68 b 475 133 401 68 448 92 l 475 347 l 396 330 b 222 183 267 300 222 257 "},"ẩ":{"ha":758,"x_min":0,"x_max":0,"o":"m 500 1111 b 625 1021 566 1111 625 1079 b 497 913 625 963 577 933 l 456 943 b 529 1002 506 957 529 975 b 462 1046 529 1029 504 1046 b 382 1027 430 1046 399 1037 l 382 1067 b 500 1111 406 1090 449 1111 m 167 804 l 338 928 l 370 928 l 542 804 l 542 755 l 355 827 l 167 755 m 256 -14 b 57 155 140 -14 57 56 b 326 369 57 262 133 328 l 475 401 l 475 459 b 312 625 475 581 411 625 b 203 602 271 625 233 616 b 250 528 231 589 250 562 b 165 449 250 483 213 449 b 80 529 117 449 80 482 b 367 690 80 622 203 690 b 637 471 533 690 637 623 l 637 142 b 709 60 637 83 669 60 b 743 65 722 60 734 62 l 743 22 b 624 -10 718 5 675 -10 b 480 90 551 -10 495 25 b 256 -14 444 31 360 -14 m 222 183 b 342 68 222 110 273 68 b 475 133 401 68 448 92 l 475 347 l 396 330 b 222 183 267 300 222 257 "},"ậ":{"ha":758,"x_min":0,"x_max":0,"o":"m 145 772 l 303 1023 l 406 1023 l 564 772 l 503 772 l 355 905 l 203 772 m 256 -14 b 57 155 140 -14 57 56 b 326 369 57 262 133 328 l 475 401 l 475 459 b 312 625 475 581 411 625 b 203 602 271 625 233 616 b 250 528 231 589 250 562 b 165 449 250 483 213 449 b 80 529 117 449 80 482 b 367 690 80 622 203 690 b 637 471 533 690 637 623 l 637 142 b 709 60 637 83 669 60 b 743 65 722 60 734 62 l 743 22 b 624 -10 718 5 675 -10 b 480 90 551 -10 495 25 b 256 -14 444 31 360 -14 m 222 183 b 342 68 222 110 273 68 b 475 133 401 68 448 92 l 475 347 l 396 330 b 222 183 267 300 222 257 m 387 -280 b 302 -201 340 -280 302 -246 b 387 -121 302 -155 340 -121 b 473 -201 435 -121 473 -155 b 387 -280 473 -246 435 -280 "},"ǎ":{"ha":758,"x_min":0,"x_max":0,"o":"m 564 1028 l 406 778 l 303 778 l 145 1028 l 205 1028 l 354 895 l 505 1028 m 256 -14 b 57 155 140 -14 57 56 b 326 369 57 262 133 328 l 475 401 l 475 459 b 312 625 475 581 411 625 b 203 602 271 625 233 616 b 250 528 231 589 250 562 b 165 449 250 483 213 449 b 80 529 117 449 80 482 b 367 690 80 622 203 690 b 637 471 533 690 637 623 l 637 142 b 709 60 637 83 669 60 b 743 65 722 60 734 62 l 743 22 b 624 -10 718 5 675 -10 b 480 90 551 -10 495 25 b 256 -14 444 31 360 -14 m 222 183 b 342 68 222 110 273 68 b 475 133 401 68 448 92 l 475 347 l 396 330 b 222 183 267 300 222 257 "},"ă":{"ha":758,"x_min":0,"x_max":0,"o":"m 355 786 b 149 983 222 786 149 882 b 152 1021 149 996 150 1009 l 205 1021 l 205 1015 b 355 897 205 948 262 897 b 504 1015 447 897 504 948 l 504 1021 l 557 1021 b 560 983 559 1009 560 996 b 355 786 560 882 487 786 m 256 -14 b 57 155 140 -14 57 56 b 326 369 57 262 133 328 l 475 401 l 475 459 b 312 625 475 581 411 625 b 203 602 271 625 233 616 b 250 528 231 589 250 562 b 165 449 250 483 213 449 b 80 529 117 449 80 482 b 367 690 80 622 203 690 b 637 471 533 690 637 623 l 637 142 b 709 60 637 83 669 60 b 743 65 722 60 734 62 l 743 22 b 624 -10 718 5 675 -10 b 480 90 551 -10 495 25 b 256 -14 444 31 360 -14 m 222 183 b 342 68 222 110 273 68 b 475 133 401 68 448 92 l 475 347 l 396 330 b 222 183 267 300 222 257 "},"ắ":{"ha":758,"x_min":0,"x_max":0,"o":"m 167 955 l 167 1004 l 543 1120 l 543 1017 m 355 757 b 167 924 241 757 161 823 l 217 924 b 355 851 219 880 277 851 b 492 924 432 851 490 880 l 543 924 b 355 757 547 823 468 757 m 256 -14 b 57 155 140 -14 57 56 b 326 369 57 262 133 328 l 475 401 l 475 459 b 312 625 475 581 411 625 b 203 602 271 625 233 616 b 250 528 231 589 250 562 b 165 449 250 483 213 449 b 80 529 117 449 80 482 b 367 690 80 622 203 690 b 637 471 533 690 637 623 l 637 142 b 709 60 637 83 669 60 b 743 65 722 60 734 62 l 743 22 b 624 -10 718 5 675 -10 b 480 90 551 -10 495 25 b 256 -14 444 31 360 -14 m 222 183 b 342 68 222 110 273 68 b 475 133 401 68 448 92 l 475 347 l 396 330 b 222 183 267 300 222 257 "},"ằ":{"ha":758,"x_min":0,"x_max":0,"o":"m 167 1120 l 543 1004 l 543 955 l 167 1017 m 355 757 b 167 924 241 757 161 823 l 217 924 b 355 851 219 880 277 851 b 492 924 432 851 490 880 l 543 924 b 355 757 547 823 468 757 m 256 -14 b 57 155 140 -14 57 56 b 326 369 57 262 133 328 l 475 401 l 475 459 b 312 625 475 581 411 625 b 203 602 271 625 233 616 b 250 528 231 589 250 562 b 165 449 250 483 213 449 b 80 529 117 449 80 482 b 367 690 80 622 203 690 b 637 471 533 690 637 623 l 637 142 b 709 60 637 83 669 60 b 743 65 722 60 734 62 l 743 22 b 624 -10 718 5 675 -10 b 480 90 551 -10 495 25 b 256 -14 444 31 360 -14 m 222 183 b 342 68 222 110 273 68 b 475 133 401 68 448 92 l 475 347 l 396 330 b 222 183 267 300 222 257 "},"ẵ":{"ha":758,"x_min":0,"x_max":0,"o":"m 434 972 b 346 990 403 972 374 979 l 326 998 b 264 1013 299 1008 281 1013 b 217 964 235 1013 218 999 l 167 964 b 275 1097 166 1053 213 1097 b 363 1078 306 1097 334 1089 l 383 1070 b 445 1055 410 1060 428 1055 b 492 1105 473 1055 492 1069 l 543 1105 b 434 972 543 1015 496 972 m 355 757 b 167 924 241 757 161 823 l 217 924 b 355 851 219 880 277 851 b 492 924 432 851 490 880 l 543 924 b 355 757 547 823 468 757 m 256 -14 b 57 155 140 -14 57 56 b 326 369 57 262 133 328 l 475 401 l 475 459 b 312 625 475 581 411 625 b 203 602 271 625 233 616 b 250 528 231 589 250 562 b 165 449 250 483 213 449 b 80 529 117 449 80 482 b 367 690 80 622 203 690 b 637 471 533 690 637 623 l 637 142 b 709 60 637 83 669 60 b 743 65 722 60 734 62 l 743 22 b 624 -10 718 5 675 -10 b 480 90 551 -10 495 25 b 256 -14 444 31 360 -14 m 222 183 b 342 68 222 110 273 68 b 475 133 401 68 448 92 l 475 347 l 396 330 b 222 183 267 300 222 257 "},"ẳ":{"ha":758,"x_min":0,"x_max":0,"o":"m 350 1111 b 475 1021 416 1111 475 1079 b 347 913 475 963 427 933 l 307 943 b 378 1002 355 957 378 975 b 311 1046 378 1029 353 1046 b 232 1027 280 1046 249 1037 l 232 1067 b 350 1111 256 1090 298 1111 m 355 757 b 167 924 241 757 161 823 l 217 924 b 355 851 219 880 277 851 b 492 924 432 851 490 880 l 543 924 b 355 757 547 823 468 757 m 256 -14 b 57 155 140 -14 57 56 b 326 369 57 262 133 328 l 475 401 l 475 459 b 312 625 475 581 411 625 b 203 602 271 625 233 616 b 250 528 231 589 250 562 b 165 449 250 483 213 449 b 80 529 117 449 80 482 b 367 690 80 622 203 690 b 637 471 533 690 637 623 l 637 142 b 709 60 637 83 669 60 b 743 65 722 60 734 62 l 743 22 b 624 -10 718 5 675 -10 b 480 90 551 -10 495 25 b 256 -14 444 31 360 -14 m 222 183 b 342 68 222 110 273 68 b 475 133 401 68 448 92 l 475 347 l 396 330 b 222 183 267 300 222 257 "},"ặ":{"ha":758,"x_min":0,"x_max":0,"o":"m 355 786 b 149 983 222 786 149 882 b 152 1021 149 996 150 1009 l 205 1021 l 205 1015 b 355 897 205 948 262 897 b 504 1015 447 897 504 948 l 504 1021 l 557 1021 b 560 983 559 1009 560 996 b 355 786 560 882 487 786 m 256 -14 b 57 155 140 -14 57 56 b 326 369 57 262 133 328 l 475 401 l 475 459 b 312 625 475 581 411 625 b 203 602 271 625 233 616 b 250 528 231 589 250 562 b 165 449 250 483 213 449 b 80 529 117 449 80 482 b 367 690 80 622 203 690 b 637 471 533 690 637 623 l 637 142 b 709 60 637 83 669 60 b 743 65 722 60 734 62 l 743 22 b 624 -10 718 5 675 -10 b 480 90 551 -10 495 25 b 256 -14 444 31 360 -14 m 222 183 b 342 68 222 110 273 68 b 475 133 401 68 448 92 l 475 347 l 396 330 b 222 183 267 300 222 257 m 387 -280 b 302 -201 340 -280 302 -246 b 387 -121 302 -155 340 -121 b 473 -201 435 -121 473 -155 b 387 -280 473 -246 435 -280 "},"ȃ":{"ha":758,"x_min":0,"x_max":0,"o":"m 355 1015 b 560 818 487 1015 560 918 b 557 780 560 805 559 792 l 504 780 l 504 785 b 355 904 504 852 446 904 b 205 785 262 904 205 853 l 205 780 l 152 780 b 149 818 150 792 149 805 b 355 1015 149 918 222 1015 m 256 -14 b 57 155 140 -14 57 56 b 326 369 57 262 133 328 l 475 401 l 475 459 b 312 625 475 581 411 625 b 203 602 271 625 233 616 b 250 528 231 589 250 562 b 165 449 250 483 213 449 b 80 529 117 449 80 482 b 367 690 80 622 203 690 b 637 471 533 690 637 623 l 637 142 b 709 60 637 83 669 60 b 743 65 722 60 734 62 l 743 22 b 624 -10 718 5 675 -10 b 480 90 551 -10 495 25 b 256 -14 444 31 360 -14 m 222 183 b 342 68 222 110 273 68 b 475 133 401 68 448 92 l 475 347 l 396 330 b 222 183 267 300 222 257 "},"ä":{"ha":758,"x_min":0,"x_max":0,"o":"m 200 815 b 113 898 152 815 113 851 b 200 981 113 945 152 981 b 286 898 248 981 286 945 b 200 815 286 851 248 815 m 509 815 b 422 898 461 815 422 851 b 509 981 422 945 461 981 b 595 898 557 981 595 945 b 509 815 595 851 557 815 m 256 -14 b 57 155 140 -14 57 56 b 326 369 57 262 133 328 l 475 401 l 475 459 b 312 625 475 581 411 625 b 203 602 271 625 233 616 b 250 528 231 589 250 562 b 165 449 250 483 213 449 b 80 529 117 449 80 482 b 367 690 80 622 203 690 b 637 471 533 690 637 623 l 637 142 b 709 60 637 83 669 60 b 743 65 722 60 734 62 l 743 22 b 624 -10 718 5 675 -10 b 480 90 551 -10 495 25 b 256 -14 444 31 360 -14 m 222 183 b 342 68 222 110 273 68 b 475 133 401 68 448 92 l 475 347 l 396 330 b 222 183 267 300 222 257 "},"ǟ":{"ha":758,"x_min":0,"x_max":0,"o":"m 166 1069 l 543 1069 l 543 990 l 166 990 m 238 770 b 172 834 201 770 172 798 b 238 899 172 871 201 899 l 244 899 b 310 834 281 899 310 871 b 244 770 310 798 281 770 m 465 770 b 399 834 428 770 399 798 b 465 899 399 871 428 899 l 471 899 b 536 834 507 899 536 871 b 471 770 536 798 507 770 m 256 -14 b 57 155 140 -14 57 56 b 326 369 57 262 133 328 l 475 401 l 475 459 b 312 625 475 581 411 625 b 203 602 271 625 233 616 b 250 528 231 589 250 562 b 165 449 250 483 213 449 b 80 529 117 449 80 482 b 367 690 80 622 203 690 b 637 471 533 690 637 623 l 637 142 b 709 60 637 83 669 60 b 743 65 722 60 734 62 l 743 22 b 624 -10 718 5 675 -10 b 480 90 551 -10 495 25 b 256 -14 444 31 360 -14 m 222 183 b 342 68 222 110 273 68 b 475 133 401 68 448 92 l 475 347 l 396 330 b 222 183 267 300 222 257 "},"ã":{"ha":758,"x_min":0,"x_max":0,"o":"m 438 805 b 332 848 398 805 368 823 l 311 865 b 252 891 289 882 272 891 b 205 802 223 891 208 869 l 152 802 b 271 992 150 940 203 992 b 376 949 311 992 342 975 l 397 933 b 456 907 420 916 437 907 b 504 996 486 907 501 929 l 557 996 b 438 805 559 858 505 805 m 256 -14 b 57 155 140 -14 57 56 b 326 369 57 262 133 328 l 475 401 l 475 459 b 312 625 475 581 411 625 b 203 602 271 625 233 616 b 250 528 231 589 250 562 b 165 449 250 483 213 449 b 80 529 117 449 80 482 b 367 690 80 622 203 690 b 637 471 533 690 637 623 l 637 142 b 709 60 637 83 669 60 b 743 65 722 60 734 62 l 743 22 b 624 -10 718 5 675 -10 b 480 90 551 -10 495 25 b 256 -14 444 31 360 -14 m 222 183 b 342 68 222 110 273 68 b 475 133 401 68 448 92 l 475 347 l 396 330 b 222 183 267 300 222 257 "},"ā":{"ha":758,"x_min":0,"x_max":0,"o":"m 151 938 l 557 938 l 557 841 l 151 841 m 256 -14 b 57 155 140 -14 57 56 b 326 369 57 262 133 328 l 475 401 l 475 459 b 312 625 475 581 411 625 b 203 602 271 625 233 616 b 250 528 231 589 250 562 b 165 449 250 483 213 449 b 80 529 117 449 80 482 b 367 690 80 622 203 690 b 637 471 533 690 637 623 l 637 142 b 709 60 637 83 669 60 b 743 65 722 60 734 62 l 743 22 b 624 -10 718 5 675 -10 b 480 90 551 -10 495 25 b 256 -14 444 31 360 -14 m 222 183 b 342 68 222 110 273 68 b 475 133 401 68 448 92 l 475 347 l 396 330 b 222 183 267 300 222 257 "},"ả":{"ha":758,"x_min":0,"x_max":0,"o":"m 378 1027 b 515 924 460 1027 515 985 b 355 773 515 866 473 822 l 298 773 b 394 888 362 817 394 850 b 316 945 394 922 363 945 b 222 915 277 945 242 932 l 222 957 b 378 1027 250 994 304 1027 m 256 -14 b 57 155 140 -14 57 56 b 326 369 57 262 133 328 l 475 401 l 475 459 b 312 625 475 581 411 625 b 203 602 271 625 233 616 b 250 528 231 589 250 562 b 165 449 250 483 213 449 b 80 529 117 449 80 482 b 367 690 80 622 203 690 b 637 471 533 690 637 623 l 637 142 b 709 60 637 83 669 60 b 743 65 722 60 734 62 l 743 22 b 624 -10 718 5 675 -10 b 480 90 551 -10 495 25 b 256 -14 444 31 360 -14 m 222 183 b 342 68 222 110 273 68 b 475 133 401 68 448 92 l 475 347 l 396 330 b 222 183 267 300 222 257 "},"å":{"ha":758,"x_min":0,"x_max":0,"o":"m 168 900 b 355 1039 168 983 250 1039 b 542 901 459 1039 542 983 b 355 762 542 818 458 762 b 168 900 250 762 168 818 m 283 900 b 355 812 283 847 313 812 b 427 901 396 812 427 847 b 355 989 427 953 396 989 b 283 900 313 989 283 953 m 256 -14 b 57 155 140 -14 57 56 b 326 369 57 262 133 328 l 475 401 l 475 459 b 312 625 475 581 411 625 b 203 602 271 625 233 616 b 250 528 231 589 250 562 b 165 449 250 483 213 449 b 80 529 117 449 80 482 b 367 690 80 622 203 690 b 637 471 533 690 637 623 l 637 142 b 709 60 637 83 669 60 b 743 65 722 60 734 62 l 743 22 b 624 -10 718 5 675 -10 b 480 90 551 -10 495 25 b 256 -14 444 31 360 -14 m 222 183 b 342 68 222 110 273 68 b 475 133 401 68 448 92 l 475 347 l 396 330 b 222 183 267 300 222 257 "},"ǻ":{"ha":758,"x_min":0,"x_max":0,"o":"m 167 957 l 167 1006 l 543 1122 l 543 1019 m 330 744 b 186 837 243 744 186 781 b 330 930 186 892 243 930 l 378 930 b 523 837 467 930 523 892 b 378 744 523 781 467 744 m 372 793 b 419 837 404 793 419 811 b 372 881 419 863 404 881 l 336 881 b 289 837 306 881 289 863 b 336 793 289 811 306 793 l 372 793 m 256 -14 b 57 155 140 -14 57 56 b 326 369 57 262 133 328 l 475 401 l 475 459 b 312 625 475 581 411 625 b 203 602 271 625 233 616 b 250 528 231 589 250 562 b 165 449 250 483 213 449 b 80 529 117 449 80 482 b 367 690 80 622 203 690 b 637 471 533 690 637 623 l 637 142 b 709 60 637 83 669 60 b 743 65 722 60 734 62 l 743 22 b 624 -10 718 5 675 -10 b 480 90 551 -10 495 25 b 256 -14 444 31 360 -14 m 222 183 b 342 68 222 110 273 68 b 475 133 401 68 448 92 l 475 347 l 396 330 b 222 183 267 300 222 257 "},"ḁ":{"ha":758,"x_min":0,"x_max":0,"o":"m 256 -14 b 57 155 140 -14 57 56 b 326 369 57 262 133 328 l 475 401 l 475 459 b 312 625 475 581 411 625 b 203 602 271 625 233 616 b 250 528 231 589 250 562 b 165 449 250 483 213 449 b 80 529 117 449 80 482 b 367 690 80 622 203 690 b 637 471 533 690 637 623 l 637 142 b 709 60 637 83 669 60 b 743 65 722 60 734 62 l 743 22 b 624 -10 718 5 675 -10 b 480 90 551 -10 495 25 b 256 -14 444 31 360 -14 m 222 183 b 342 68 222 110 273 68 b 475 133 401 68 448 92 l 475 347 l 396 330 b 222 183 267 300 222 257 m 200 -201 b 387 -75 200 -125 283 -75 b 574 -200 491 -75 574 -125 b 387 -326 574 -276 491 -326 b 200 -201 283 -326 200 -276 m 315 -201 b 387 -277 315 -246 346 -277 b 459 -200 429 -277 459 -247 b 387 -123 459 -155 429 -123 b 315 -201 346 -123 315 -155 "},"ȧ":{"ha":758,"x_min":0,"x_max":0,"o":"m 355 810 b 262 898 303 810 262 848 b 355 987 262 949 303 987 b 446 898 406 987 446 949 b 355 810 446 848 406 810 m 256 -14 b 57 155 140 -14 57 56 b 326 369 57 262 133 328 l 475 401 l 475 459 b 312 625 475 581 411 625 b 203 602 271 625 233 616 b 250 528 231 589 250 562 b 165 449 250 483 213 449 b 80 529 117 449 80 482 b 367 690 80 622 203 690 b 637 471 533 690 637 623 l 637 142 b 709 60 637 83 669 60 b 743 65 722 60 734 62 l 743 22 b 624 -10 718 5 675 -10 b 480 90 551 -10 495 25 b 256 -14 444 31 360 -14 m 222 183 b 342 68 222 110 273 68 b 475 133 401 68 448 92 l 475 347 l 396 330 b 222 183 267 300 222 257 "},"ǡ":{"ha":758,"x_min":0,"x_max":0,"o":"m 166 1061 l 543 1061 l 543 982 l 166 982 m 355 770 b 283 840 315 770 283 800 b 355 909 283 879 315 909 b 426 840 395 909 426 879 b 355 770 426 800 395 770 m 256 -14 b 57 155 140 -14 57 56 b 326 369 57 262 133 328 l 475 401 l 475 459 b 312 625 475 581 411 625 b 203 602 271 625 233 616 b 250 528 231 589 250 562 b 165 449 250 483 213 449 b 80 529 117 449 80 482 b 367 690 80 622 203 690 b 637 471 533 690 637 623 l 637 142 b 709 60 637 83 669 60 b 743 65 722 60 734 62 l 743 22 b 624 -10 718 5 675 -10 b 480 90 551 -10 495 25 b 256 -14 444 31 360 -14 m 222 183 b 342 68 222 110 273 68 b 475 133 401 68 448 92 l 475 347 l 396 330 b 222 183 267 300 222 257 "},"ạ":{"ha":758,"x_min":0,"x_max":0,"o":"m 256 -14 b 57 155 140 -14 57 56 b 326 369 57 262 133 328 l 475 401 l 475 459 b 312 625 475 581 411 625 b 203 602 271 625 233 616 b 250 528 231 589 250 562 b 165 449 250 483 213 449 b 80 529 117 449 80 482 b 367 690 80 622 203 690 b 637 471 533 690 637 623 l 637 142 b 709 60 637 83 669 60 b 743 65 722 60 734 62 l 743 22 b 624 -10 718 5 675 -10 b 480 90 551 -10 495 25 b 256 -14 444 31 360 -14 m 222 183 b 342 68 222 110 273 68 b 475 133 401 68 448 92 l 475 347 l 396 330 b 222 183 267 300 222 257 m 387 -280 b 302 -201 340 -280 302 -246 b 387 -121 302 -155 340 -121 b 473 -201 435 -121 473 -155 b 387 -280 473 -246 435 -280 "},"ą":{"ha":757,"x_min":0,"x_max":0,"o":"m 256 -14 b 57 155 140 -14 57 56 b 326 369 57 262 133 328 l 475 401 l 475 459 b 312 625 475 581 411 625 b 203 602 271 625 233 616 b 250 528 231 589 250 562 b 165 449 250 483 213 449 b 80 529 117 449 80 482 b 367 690 80 622 203 690 b 637 471 533 690 637 623 l 637 142 b 709 60 637 83 669 60 b 743 65 722 60 734 62 l 743 22 b 614 -170 649 -55 614 -110 b 684 -245 614 -220 646 -245 b 746 -226 711 -245 734 -238 l 746 -272 b 608 -330 720 -307 667 -330 b 473 -212 534 -330 473 -285 b 641 -9 473 -145 518 -82 b 624 -9 635 -9 629 -9 b 480 90 551 -9 495 26 b 256 -14 444 31 360 -14 m 222 183 b 342 68 222 110 273 68 b 475 133 401 68 448 92 l 475 347 l 396 330 b 222 183 267 300 222 257 "},"b":{"ha":834,"x_min":0,"x_max":0,"o":"m 773 346 b 450 -14 773 127 629 -14 b 248 83 357 -14 283 29 l 177 0 l 108 0 l 108 867 b 64 925 108 905 102 914 l 17 938 l 17 979 l 273 1010 l 273 569 b 496 690 309 642 396 690 b 773 346 646 690 773 563 m 602 330 b 414 602 602 500 526 602 b 273 526 350 602 299 574 l 273 123 b 408 55 294 87 344 55 b 602 330 522 55 602 159 "},"ḇ":{"ha":834,"x_min":0,"x_max":0,"o":"m 773 346 b 450 -14 773 127 629 -14 b 248 83 357 -14 283 29 l 177 0 l 108 0 l 108 867 b 64 925 108 905 102 914 l 17 938 l 17 979 l 273 1010 l 273 569 b 496 690 309 642 396 690 b 773 346 646 690 773 563 m 602 330 b 414 602 602 500 526 602 b 273 526 350 602 299 574 l 273 123 b 408 55 294 87 344 55 b 602 330 522 55 602 159 m 238 -156 l 616 -156 l 616 -243 l 238 -243 "},"ḃ":{"ha":834,"x_min":0,"x_max":0,"o":"m 193 1113 b 101 1201 142 1113 101 1151 b 193 1290 101 1252 142 1290 b 285 1201 244 1290 285 1252 b 193 1113 285 1151 244 1113 m 773 346 b 450 -14 773 127 629 -14 b 248 83 357 -14 283 29 l 177 0 l 108 0 l 108 867 b 64 925 108 905 102 914 l 17 938 l 17 979 l 273 1010 l 273 569 b 496 690 309 642 396 690 b 773 346 646 690 773 563 m 602 330 b 414 602 602 500 526 602 b 273 526 350 602 299 574 l 273 123 b 408 55 294 87 344 55 b 602 330 522 55 602 159 "},"ḅ":{"ha":834,"x_min":0,"x_max":0,"o":"m 773 346 b 450 -14 773 127 629 -14 b 248 83 357 -14 283 29 l 177 0 l 108 0 l 108 867 b 64 925 108 905 102 914 l 17 938 l 17 979 l 273 1010 l 273 569 b 496 690 309 642 396 690 b 773 346 646 690 773 563 m 602 330 b 414 602 602 500 526 602 b 273 526 350 602 299 574 l 273 123 b 408 55 294 87 344 55 b 602 330 522 55 602 159 m 427 -280 b 342 -201 380 -280 342 -246 b 427 -121 342 -155 380 -121 b 513 -201 475 -121 513 -155 b 427 -280 513 -246 475 -280 "},"c":{"ha":703,"x_min":0,"x_max":0,"o":"m 402 -14 b 61 334 210 -14 61 121 b 417 690 61 551 221 690 b 656 524 576 690 656 614 b 571 436 656 472 618 436 b 486 519 523 436 486 473 b 547 600 486 559 513 592 b 446 624 522 616 488 624 b 234 366 322 624 234 525 b 489 75 234 184 341 75 b 661 137 557 75 621 100 l 661 90 b 402 -14 613 28 519 -14 "},"ć":{"ha":703,"x_min":0,"x_max":0,"o":"m 321 772 l 435 1023 l 610 1023 l 610 1015 l 380 772 m 402 -14 b 61 334 210 -14 61 121 b 417 690 61 551 221 690 b 656 524 576 690 656 614 b 571 436 656 472 618 436 b 486 519 523 436 486 473 b 547 600 486 559 513 592 b 446 624 522 616 488 624 b 234 366 322 624 234 525 b 489 75 234 184 341 75 b 661 137 557 75 621 100 l 661 90 b 402 -14 613 28 519 -14 "},"ĉ":{"ha":703,"x_min":0,"x_max":0,"o":"m 200 772 l 358 1023 l 460 1023 l 618 772 l 558 772 l 410 905 l 258 772 m 402 -14 b 61 334 210 -14 61 121 b 417 690 61 551 221 690 b 656 524 576 690 656 614 b 571 436 656 472 618 436 b 486 519 523 436 486 473 b 547 600 486 559 513 592 b 446 624 522 616 488 624 b 234 366 322 624 234 525 b 489 75 234 184 341 75 b 661 137 557 75 621 100 l 661 90 b 402 -14 613 28 519 -14 "},"č":{"ha":703,"x_min":0,"x_max":0,"o":"m 618 1028 l 460 778 l 358 778 l 200 1028 l 260 1028 l 409 895 l 560 1028 m 402 -14 b 61 334 210 -14 61 121 b 417 690 61 551 221 690 b 656 524 576 690 656 614 b 571 436 656 472 618 436 b 486 519 523 436 486 473 b 547 600 486 559 513 592 b 446 624 522 616 488 624 b 234 366 322 624 234 525 b 489 75 234 184 341 75 b 661 137 557 75 621 100 l 661 90 b 402 -14 613 28 519 -14 "}}}
